G04 #@! TF.GenerationSoftware,KiCad,Pcbnew,5.1.5*
G04 #@! TF.CreationDate,2020-06-04T17:32:55-05:00*
G04 #@! TF.ProjectId,Receiver,52656365-6976-4657-922e-6b696361645f,rev?*
G04 #@! TF.SameCoordinates,Original*
G04 #@! TF.FileFunction,Paste,Top*
G04 #@! TF.FilePolarity,Positive*
%FSLAX46Y46*%
G04 Gerber Fmt 4.6, Leading zero omitted, Abs format (unit mm)*
G04 Created by KiCad (PCBNEW 5.1.5) date 2020-06-04 17:32:55*
%MOMM*%
%LPD*%
G04 APERTURE LIST*
%ADD10R,1.060000X0.650000*%
%ADD11C,0.100000*%
%ADD12R,0.900000X1.200000*%
%ADD13R,2.500000X1.100000*%
%ADD14R,5.080000X1.500000*%
%ADD15R,2.200000X2.800000*%
%ADD16R,2.800000X2.800000*%
%ADD17R,1.300000X1.300000*%
%ADD18R,1.300000X2.000000*%
%ADD19R,1.120000X0.960000*%
%ADD20R,1.220000X0.650000*%
%ADD21R,1.550000X0.650000*%
%ADD22R,0.650000X1.060000*%
G04 APERTURE END LIST*
D10*
X146644000Y-117282000D03*
X146644000Y-115382000D03*
X148844000Y-115382000D03*
X148844000Y-116332000D03*
X148844000Y-117282000D03*
D11*
G36*
X135862142Y-106544674D02*
G01*
X135885803Y-106548184D01*
X135909007Y-106553996D01*
X135931529Y-106562054D01*
X135953153Y-106572282D01*
X135973670Y-106584579D01*
X135992883Y-106598829D01*
X136010607Y-106614893D01*
X136026671Y-106632617D01*
X136040921Y-106651830D01*
X136053218Y-106672347D01*
X136063446Y-106693971D01*
X136071504Y-106716493D01*
X136077316Y-106739697D01*
X136080826Y-106763358D01*
X136082000Y-106787250D01*
X136082000Y-107274750D01*
X136080826Y-107298642D01*
X136077316Y-107322303D01*
X136071504Y-107345507D01*
X136063446Y-107368029D01*
X136053218Y-107389653D01*
X136040921Y-107410170D01*
X136026671Y-107429383D01*
X136010607Y-107447107D01*
X135992883Y-107463171D01*
X135973670Y-107477421D01*
X135953153Y-107489718D01*
X135931529Y-107499946D01*
X135909007Y-107508004D01*
X135885803Y-107513816D01*
X135862142Y-107517326D01*
X135838250Y-107518500D01*
X134925750Y-107518500D01*
X134901858Y-107517326D01*
X134878197Y-107513816D01*
X134854993Y-107508004D01*
X134832471Y-107499946D01*
X134810847Y-107489718D01*
X134790330Y-107477421D01*
X134771117Y-107463171D01*
X134753393Y-107447107D01*
X134737329Y-107429383D01*
X134723079Y-107410170D01*
X134710782Y-107389653D01*
X134700554Y-107368029D01*
X134692496Y-107345507D01*
X134686684Y-107322303D01*
X134683174Y-107298642D01*
X134682000Y-107274750D01*
X134682000Y-106787250D01*
X134683174Y-106763358D01*
X134686684Y-106739697D01*
X134692496Y-106716493D01*
X134700554Y-106693971D01*
X134710782Y-106672347D01*
X134723079Y-106651830D01*
X134737329Y-106632617D01*
X134753393Y-106614893D01*
X134771117Y-106598829D01*
X134790330Y-106584579D01*
X134810847Y-106572282D01*
X134832471Y-106562054D01*
X134854993Y-106553996D01*
X134878197Y-106548184D01*
X134901858Y-106544674D01*
X134925750Y-106543500D01*
X135838250Y-106543500D01*
X135862142Y-106544674D01*
G37*
G36*
X135862142Y-104669674D02*
G01*
X135885803Y-104673184D01*
X135909007Y-104678996D01*
X135931529Y-104687054D01*
X135953153Y-104697282D01*
X135973670Y-104709579D01*
X135992883Y-104723829D01*
X136010607Y-104739893D01*
X136026671Y-104757617D01*
X136040921Y-104776830D01*
X136053218Y-104797347D01*
X136063446Y-104818971D01*
X136071504Y-104841493D01*
X136077316Y-104864697D01*
X136080826Y-104888358D01*
X136082000Y-104912250D01*
X136082000Y-105399750D01*
X136080826Y-105423642D01*
X136077316Y-105447303D01*
X136071504Y-105470507D01*
X136063446Y-105493029D01*
X136053218Y-105514653D01*
X136040921Y-105535170D01*
X136026671Y-105554383D01*
X136010607Y-105572107D01*
X135992883Y-105588171D01*
X135973670Y-105602421D01*
X135953153Y-105614718D01*
X135931529Y-105624946D01*
X135909007Y-105633004D01*
X135885803Y-105638816D01*
X135862142Y-105642326D01*
X135838250Y-105643500D01*
X134925750Y-105643500D01*
X134901858Y-105642326D01*
X134878197Y-105638816D01*
X134854993Y-105633004D01*
X134832471Y-105624946D01*
X134810847Y-105614718D01*
X134790330Y-105602421D01*
X134771117Y-105588171D01*
X134753393Y-105572107D01*
X134737329Y-105554383D01*
X134723079Y-105535170D01*
X134710782Y-105514653D01*
X134700554Y-105493029D01*
X134692496Y-105470507D01*
X134686684Y-105447303D01*
X134683174Y-105423642D01*
X134682000Y-105399750D01*
X134682000Y-104912250D01*
X134683174Y-104888358D01*
X134686684Y-104864697D01*
X134692496Y-104841493D01*
X134700554Y-104818971D01*
X134710782Y-104797347D01*
X134723079Y-104776830D01*
X134737329Y-104757617D01*
X134753393Y-104739893D01*
X134771117Y-104723829D01*
X134790330Y-104709579D01*
X134810847Y-104697282D01*
X134832471Y-104687054D01*
X134854993Y-104678996D01*
X134878197Y-104673184D01*
X134901858Y-104669674D01*
X134925750Y-104668500D01*
X135838250Y-104668500D01*
X135862142Y-104669674D01*
G37*
G36*
X144498142Y-115845674D02*
G01*
X144521803Y-115849184D01*
X144545007Y-115854996D01*
X144567529Y-115863054D01*
X144589153Y-115873282D01*
X144609670Y-115885579D01*
X144628883Y-115899829D01*
X144646607Y-115915893D01*
X144662671Y-115933617D01*
X144676921Y-115952830D01*
X144689218Y-115973347D01*
X144699446Y-115994971D01*
X144707504Y-116017493D01*
X144713316Y-116040697D01*
X144716826Y-116064358D01*
X144718000Y-116088250D01*
X144718000Y-116575750D01*
X144716826Y-116599642D01*
X144713316Y-116623303D01*
X144707504Y-116646507D01*
X144699446Y-116669029D01*
X144689218Y-116690653D01*
X144676921Y-116711170D01*
X144662671Y-116730383D01*
X144646607Y-116748107D01*
X144628883Y-116764171D01*
X144609670Y-116778421D01*
X144589153Y-116790718D01*
X144567529Y-116800946D01*
X144545007Y-116809004D01*
X144521803Y-116814816D01*
X144498142Y-116818326D01*
X144474250Y-116819500D01*
X143561750Y-116819500D01*
X143537858Y-116818326D01*
X143514197Y-116814816D01*
X143490993Y-116809004D01*
X143468471Y-116800946D01*
X143446847Y-116790718D01*
X143426330Y-116778421D01*
X143407117Y-116764171D01*
X143389393Y-116748107D01*
X143373329Y-116730383D01*
X143359079Y-116711170D01*
X143346782Y-116690653D01*
X143336554Y-116669029D01*
X143328496Y-116646507D01*
X143322684Y-116623303D01*
X143319174Y-116599642D01*
X143318000Y-116575750D01*
X143318000Y-116088250D01*
X143319174Y-116064358D01*
X143322684Y-116040697D01*
X143328496Y-116017493D01*
X143336554Y-115994971D01*
X143346782Y-115973347D01*
X143359079Y-115952830D01*
X143373329Y-115933617D01*
X143389393Y-115915893D01*
X143407117Y-115899829D01*
X143426330Y-115885579D01*
X143446847Y-115873282D01*
X143468471Y-115863054D01*
X143490993Y-115854996D01*
X143514197Y-115849184D01*
X143537858Y-115845674D01*
X143561750Y-115844500D01*
X144474250Y-115844500D01*
X144498142Y-115845674D01*
G37*
G36*
X144498142Y-117720674D02*
G01*
X144521803Y-117724184D01*
X144545007Y-117729996D01*
X144567529Y-117738054D01*
X144589153Y-117748282D01*
X144609670Y-117760579D01*
X144628883Y-117774829D01*
X144646607Y-117790893D01*
X144662671Y-117808617D01*
X144676921Y-117827830D01*
X144689218Y-117848347D01*
X144699446Y-117869971D01*
X144707504Y-117892493D01*
X144713316Y-117915697D01*
X144716826Y-117939358D01*
X144718000Y-117963250D01*
X144718000Y-118450750D01*
X144716826Y-118474642D01*
X144713316Y-118498303D01*
X144707504Y-118521507D01*
X144699446Y-118544029D01*
X144689218Y-118565653D01*
X144676921Y-118586170D01*
X144662671Y-118605383D01*
X144646607Y-118623107D01*
X144628883Y-118639171D01*
X144609670Y-118653421D01*
X144589153Y-118665718D01*
X144567529Y-118675946D01*
X144545007Y-118684004D01*
X144521803Y-118689816D01*
X144498142Y-118693326D01*
X144474250Y-118694500D01*
X143561750Y-118694500D01*
X143537858Y-118693326D01*
X143514197Y-118689816D01*
X143490993Y-118684004D01*
X143468471Y-118675946D01*
X143446847Y-118665718D01*
X143426330Y-118653421D01*
X143407117Y-118639171D01*
X143389393Y-118623107D01*
X143373329Y-118605383D01*
X143359079Y-118586170D01*
X143346782Y-118565653D01*
X143336554Y-118544029D01*
X143328496Y-118521507D01*
X143322684Y-118498303D01*
X143319174Y-118474642D01*
X143318000Y-118450750D01*
X143318000Y-117963250D01*
X143319174Y-117939358D01*
X143322684Y-117915697D01*
X143328496Y-117892493D01*
X143336554Y-117869971D01*
X143346782Y-117848347D01*
X143359079Y-117827830D01*
X143373329Y-117808617D01*
X143389393Y-117790893D01*
X143407117Y-117774829D01*
X143426330Y-117760579D01*
X143446847Y-117748282D01*
X143468471Y-117738054D01*
X143490993Y-117729996D01*
X143514197Y-117724184D01*
X143537858Y-117720674D01*
X143561750Y-117719500D01*
X144474250Y-117719500D01*
X144498142Y-117720674D01*
G37*
G36*
X151610142Y-117720674D02*
G01*
X151633803Y-117724184D01*
X151657007Y-117729996D01*
X151679529Y-117738054D01*
X151701153Y-117748282D01*
X151721670Y-117760579D01*
X151740883Y-117774829D01*
X151758607Y-117790893D01*
X151774671Y-117808617D01*
X151788921Y-117827830D01*
X151801218Y-117848347D01*
X151811446Y-117869971D01*
X151819504Y-117892493D01*
X151825316Y-117915697D01*
X151828826Y-117939358D01*
X151830000Y-117963250D01*
X151830000Y-118450750D01*
X151828826Y-118474642D01*
X151825316Y-118498303D01*
X151819504Y-118521507D01*
X151811446Y-118544029D01*
X151801218Y-118565653D01*
X151788921Y-118586170D01*
X151774671Y-118605383D01*
X151758607Y-118623107D01*
X151740883Y-118639171D01*
X151721670Y-118653421D01*
X151701153Y-118665718D01*
X151679529Y-118675946D01*
X151657007Y-118684004D01*
X151633803Y-118689816D01*
X151610142Y-118693326D01*
X151586250Y-118694500D01*
X150673750Y-118694500D01*
X150649858Y-118693326D01*
X150626197Y-118689816D01*
X150602993Y-118684004D01*
X150580471Y-118675946D01*
X150558847Y-118665718D01*
X150538330Y-118653421D01*
X150519117Y-118639171D01*
X150501393Y-118623107D01*
X150485329Y-118605383D01*
X150471079Y-118586170D01*
X150458782Y-118565653D01*
X150448554Y-118544029D01*
X150440496Y-118521507D01*
X150434684Y-118498303D01*
X150431174Y-118474642D01*
X150430000Y-118450750D01*
X150430000Y-117963250D01*
X150431174Y-117939358D01*
X150434684Y-117915697D01*
X150440496Y-117892493D01*
X150448554Y-117869971D01*
X150458782Y-117848347D01*
X150471079Y-117827830D01*
X150485329Y-117808617D01*
X150501393Y-117790893D01*
X150519117Y-117774829D01*
X150538330Y-117760579D01*
X150558847Y-117748282D01*
X150580471Y-117738054D01*
X150602993Y-117729996D01*
X150626197Y-117724184D01*
X150649858Y-117720674D01*
X150673750Y-117719500D01*
X151586250Y-117719500D01*
X151610142Y-117720674D01*
G37*
G36*
X151610142Y-115845674D02*
G01*
X151633803Y-115849184D01*
X151657007Y-115854996D01*
X151679529Y-115863054D01*
X151701153Y-115873282D01*
X151721670Y-115885579D01*
X151740883Y-115899829D01*
X151758607Y-115915893D01*
X151774671Y-115933617D01*
X151788921Y-115952830D01*
X151801218Y-115973347D01*
X151811446Y-115994971D01*
X151819504Y-116017493D01*
X151825316Y-116040697D01*
X151828826Y-116064358D01*
X151830000Y-116088250D01*
X151830000Y-116575750D01*
X151828826Y-116599642D01*
X151825316Y-116623303D01*
X151819504Y-116646507D01*
X151811446Y-116669029D01*
X151801218Y-116690653D01*
X151788921Y-116711170D01*
X151774671Y-116730383D01*
X151758607Y-116748107D01*
X151740883Y-116764171D01*
X151721670Y-116778421D01*
X151701153Y-116790718D01*
X151679529Y-116800946D01*
X151657007Y-116809004D01*
X151633803Y-116814816D01*
X151610142Y-116818326D01*
X151586250Y-116819500D01*
X150673750Y-116819500D01*
X150649858Y-116818326D01*
X150626197Y-116814816D01*
X150602993Y-116809004D01*
X150580471Y-116800946D01*
X150558847Y-116790718D01*
X150538330Y-116778421D01*
X150519117Y-116764171D01*
X150501393Y-116748107D01*
X150485329Y-116730383D01*
X150471079Y-116711170D01*
X150458782Y-116690653D01*
X150448554Y-116669029D01*
X150440496Y-116646507D01*
X150434684Y-116623303D01*
X150431174Y-116599642D01*
X150430000Y-116575750D01*
X150430000Y-116088250D01*
X150431174Y-116064358D01*
X150434684Y-116040697D01*
X150440496Y-116017493D01*
X150448554Y-115994971D01*
X150458782Y-115973347D01*
X150471079Y-115952830D01*
X150485329Y-115933617D01*
X150501393Y-115915893D01*
X150519117Y-115899829D01*
X150538330Y-115885579D01*
X150558847Y-115873282D01*
X150580471Y-115863054D01*
X150602993Y-115854996D01*
X150626197Y-115849184D01*
X150649858Y-115845674D01*
X150673750Y-115844500D01*
X151586250Y-115844500D01*
X151610142Y-115845674D01*
G37*
G36*
X172438142Y-118228674D02*
G01*
X172461803Y-118232184D01*
X172485007Y-118237996D01*
X172507529Y-118246054D01*
X172529153Y-118256282D01*
X172549670Y-118268579D01*
X172568883Y-118282829D01*
X172586607Y-118298893D01*
X172602671Y-118316617D01*
X172616921Y-118335830D01*
X172629218Y-118356347D01*
X172639446Y-118377971D01*
X172647504Y-118400493D01*
X172653316Y-118423697D01*
X172656826Y-118447358D01*
X172658000Y-118471250D01*
X172658000Y-118958750D01*
X172656826Y-118982642D01*
X172653316Y-119006303D01*
X172647504Y-119029507D01*
X172639446Y-119052029D01*
X172629218Y-119073653D01*
X172616921Y-119094170D01*
X172602671Y-119113383D01*
X172586607Y-119131107D01*
X172568883Y-119147171D01*
X172549670Y-119161421D01*
X172529153Y-119173718D01*
X172507529Y-119183946D01*
X172485007Y-119192004D01*
X172461803Y-119197816D01*
X172438142Y-119201326D01*
X172414250Y-119202500D01*
X171501750Y-119202500D01*
X171477858Y-119201326D01*
X171454197Y-119197816D01*
X171430993Y-119192004D01*
X171408471Y-119183946D01*
X171386847Y-119173718D01*
X171366330Y-119161421D01*
X171347117Y-119147171D01*
X171329393Y-119131107D01*
X171313329Y-119113383D01*
X171299079Y-119094170D01*
X171286782Y-119073653D01*
X171276554Y-119052029D01*
X171268496Y-119029507D01*
X171262684Y-119006303D01*
X171259174Y-118982642D01*
X171258000Y-118958750D01*
X171258000Y-118471250D01*
X171259174Y-118447358D01*
X171262684Y-118423697D01*
X171268496Y-118400493D01*
X171276554Y-118377971D01*
X171286782Y-118356347D01*
X171299079Y-118335830D01*
X171313329Y-118316617D01*
X171329393Y-118298893D01*
X171347117Y-118282829D01*
X171366330Y-118268579D01*
X171386847Y-118256282D01*
X171408471Y-118246054D01*
X171430993Y-118237996D01*
X171454197Y-118232184D01*
X171477858Y-118228674D01*
X171501750Y-118227500D01*
X172414250Y-118227500D01*
X172438142Y-118228674D01*
G37*
G36*
X172438142Y-116353674D02*
G01*
X172461803Y-116357184D01*
X172485007Y-116362996D01*
X172507529Y-116371054D01*
X172529153Y-116381282D01*
X172549670Y-116393579D01*
X172568883Y-116407829D01*
X172586607Y-116423893D01*
X172602671Y-116441617D01*
X172616921Y-116460830D01*
X172629218Y-116481347D01*
X172639446Y-116502971D01*
X172647504Y-116525493D01*
X172653316Y-116548697D01*
X172656826Y-116572358D01*
X172658000Y-116596250D01*
X172658000Y-117083750D01*
X172656826Y-117107642D01*
X172653316Y-117131303D01*
X172647504Y-117154507D01*
X172639446Y-117177029D01*
X172629218Y-117198653D01*
X172616921Y-117219170D01*
X172602671Y-117238383D01*
X172586607Y-117256107D01*
X172568883Y-117272171D01*
X172549670Y-117286421D01*
X172529153Y-117298718D01*
X172507529Y-117308946D01*
X172485007Y-117317004D01*
X172461803Y-117322816D01*
X172438142Y-117326326D01*
X172414250Y-117327500D01*
X171501750Y-117327500D01*
X171477858Y-117326326D01*
X171454197Y-117322816D01*
X171430993Y-117317004D01*
X171408471Y-117308946D01*
X171386847Y-117298718D01*
X171366330Y-117286421D01*
X171347117Y-117272171D01*
X171329393Y-117256107D01*
X171313329Y-117238383D01*
X171299079Y-117219170D01*
X171286782Y-117198653D01*
X171276554Y-117177029D01*
X171268496Y-117154507D01*
X171262684Y-117131303D01*
X171259174Y-117107642D01*
X171258000Y-117083750D01*
X171258000Y-116596250D01*
X171259174Y-116572358D01*
X171262684Y-116548697D01*
X171268496Y-116525493D01*
X171276554Y-116502971D01*
X171286782Y-116481347D01*
X171299079Y-116460830D01*
X171313329Y-116441617D01*
X171329393Y-116423893D01*
X171347117Y-116407829D01*
X171366330Y-116393579D01*
X171386847Y-116381282D01*
X171408471Y-116371054D01*
X171430993Y-116362996D01*
X171454197Y-116357184D01*
X171477858Y-116353674D01*
X171501750Y-116352500D01*
X172414250Y-116352500D01*
X172438142Y-116353674D01*
G37*
G36*
X175232142Y-118893674D02*
G01*
X175255803Y-118897184D01*
X175279007Y-118902996D01*
X175301529Y-118911054D01*
X175323153Y-118921282D01*
X175343670Y-118933579D01*
X175362883Y-118947829D01*
X175380607Y-118963893D01*
X175396671Y-118981617D01*
X175410921Y-119000830D01*
X175423218Y-119021347D01*
X175433446Y-119042971D01*
X175441504Y-119065493D01*
X175447316Y-119088697D01*
X175450826Y-119112358D01*
X175452000Y-119136250D01*
X175452000Y-119623750D01*
X175450826Y-119647642D01*
X175447316Y-119671303D01*
X175441504Y-119694507D01*
X175433446Y-119717029D01*
X175423218Y-119738653D01*
X175410921Y-119759170D01*
X175396671Y-119778383D01*
X175380607Y-119796107D01*
X175362883Y-119812171D01*
X175343670Y-119826421D01*
X175323153Y-119838718D01*
X175301529Y-119848946D01*
X175279007Y-119857004D01*
X175255803Y-119862816D01*
X175232142Y-119866326D01*
X175208250Y-119867500D01*
X174295750Y-119867500D01*
X174271858Y-119866326D01*
X174248197Y-119862816D01*
X174224993Y-119857004D01*
X174202471Y-119848946D01*
X174180847Y-119838718D01*
X174160330Y-119826421D01*
X174141117Y-119812171D01*
X174123393Y-119796107D01*
X174107329Y-119778383D01*
X174093079Y-119759170D01*
X174080782Y-119738653D01*
X174070554Y-119717029D01*
X174062496Y-119694507D01*
X174056684Y-119671303D01*
X174053174Y-119647642D01*
X174052000Y-119623750D01*
X174052000Y-119136250D01*
X174053174Y-119112358D01*
X174056684Y-119088697D01*
X174062496Y-119065493D01*
X174070554Y-119042971D01*
X174080782Y-119021347D01*
X174093079Y-119000830D01*
X174107329Y-118981617D01*
X174123393Y-118963893D01*
X174141117Y-118947829D01*
X174160330Y-118933579D01*
X174180847Y-118921282D01*
X174202471Y-118911054D01*
X174224993Y-118902996D01*
X174248197Y-118897184D01*
X174271858Y-118893674D01*
X174295750Y-118892500D01*
X175208250Y-118892500D01*
X175232142Y-118893674D01*
G37*
G36*
X175232142Y-120768674D02*
G01*
X175255803Y-120772184D01*
X175279007Y-120777996D01*
X175301529Y-120786054D01*
X175323153Y-120796282D01*
X175343670Y-120808579D01*
X175362883Y-120822829D01*
X175380607Y-120838893D01*
X175396671Y-120856617D01*
X175410921Y-120875830D01*
X175423218Y-120896347D01*
X175433446Y-120917971D01*
X175441504Y-120940493D01*
X175447316Y-120963697D01*
X175450826Y-120987358D01*
X175452000Y-121011250D01*
X175452000Y-121498750D01*
X175450826Y-121522642D01*
X175447316Y-121546303D01*
X175441504Y-121569507D01*
X175433446Y-121592029D01*
X175423218Y-121613653D01*
X175410921Y-121634170D01*
X175396671Y-121653383D01*
X175380607Y-121671107D01*
X175362883Y-121687171D01*
X175343670Y-121701421D01*
X175323153Y-121713718D01*
X175301529Y-121723946D01*
X175279007Y-121732004D01*
X175255803Y-121737816D01*
X175232142Y-121741326D01*
X175208250Y-121742500D01*
X174295750Y-121742500D01*
X174271858Y-121741326D01*
X174248197Y-121737816D01*
X174224993Y-121732004D01*
X174202471Y-121723946D01*
X174180847Y-121713718D01*
X174160330Y-121701421D01*
X174141117Y-121687171D01*
X174123393Y-121671107D01*
X174107329Y-121653383D01*
X174093079Y-121634170D01*
X174080782Y-121613653D01*
X174070554Y-121592029D01*
X174062496Y-121569507D01*
X174056684Y-121546303D01*
X174053174Y-121522642D01*
X174052000Y-121498750D01*
X174052000Y-121011250D01*
X174053174Y-120987358D01*
X174056684Y-120963697D01*
X174062496Y-120940493D01*
X174070554Y-120917971D01*
X174080782Y-120896347D01*
X174093079Y-120875830D01*
X174107329Y-120856617D01*
X174123393Y-120838893D01*
X174141117Y-120822829D01*
X174160330Y-120808579D01*
X174180847Y-120796282D01*
X174202471Y-120786054D01*
X174224993Y-120777996D01*
X174248197Y-120772184D01*
X174271858Y-120768674D01*
X174295750Y-120767500D01*
X175208250Y-120767500D01*
X175232142Y-120768674D01*
G37*
G36*
X176894642Y-116141174D02*
G01*
X176918303Y-116144684D01*
X176941507Y-116150496D01*
X176964029Y-116158554D01*
X176985653Y-116168782D01*
X177006170Y-116181079D01*
X177025383Y-116195329D01*
X177043107Y-116211393D01*
X177059171Y-116229117D01*
X177073421Y-116248330D01*
X177085718Y-116268847D01*
X177095946Y-116290471D01*
X177104004Y-116312993D01*
X177109816Y-116336197D01*
X177113326Y-116359858D01*
X177114500Y-116383750D01*
X177114500Y-117296250D01*
X177113326Y-117320142D01*
X177109816Y-117343803D01*
X177104004Y-117367007D01*
X177095946Y-117389529D01*
X177085718Y-117411153D01*
X177073421Y-117431670D01*
X177059171Y-117450883D01*
X177043107Y-117468607D01*
X177025383Y-117484671D01*
X177006170Y-117498921D01*
X176985653Y-117511218D01*
X176964029Y-117521446D01*
X176941507Y-117529504D01*
X176918303Y-117535316D01*
X176894642Y-117538826D01*
X176870750Y-117540000D01*
X176383250Y-117540000D01*
X176359358Y-117538826D01*
X176335697Y-117535316D01*
X176312493Y-117529504D01*
X176289971Y-117521446D01*
X176268347Y-117511218D01*
X176247830Y-117498921D01*
X176228617Y-117484671D01*
X176210893Y-117468607D01*
X176194829Y-117450883D01*
X176180579Y-117431670D01*
X176168282Y-117411153D01*
X176158054Y-117389529D01*
X176149996Y-117367007D01*
X176144184Y-117343803D01*
X176140674Y-117320142D01*
X176139500Y-117296250D01*
X176139500Y-116383750D01*
X176140674Y-116359858D01*
X176144184Y-116336197D01*
X176149996Y-116312993D01*
X176158054Y-116290471D01*
X176168282Y-116268847D01*
X176180579Y-116248330D01*
X176194829Y-116229117D01*
X176210893Y-116211393D01*
X176228617Y-116195329D01*
X176247830Y-116181079D01*
X176268347Y-116168782D01*
X176289971Y-116158554D01*
X176312493Y-116150496D01*
X176335697Y-116144684D01*
X176359358Y-116141174D01*
X176383250Y-116140000D01*
X176870750Y-116140000D01*
X176894642Y-116141174D01*
G37*
G36*
X175019642Y-116141174D02*
G01*
X175043303Y-116144684D01*
X175066507Y-116150496D01*
X175089029Y-116158554D01*
X175110653Y-116168782D01*
X175131170Y-116181079D01*
X175150383Y-116195329D01*
X175168107Y-116211393D01*
X175184171Y-116229117D01*
X175198421Y-116248330D01*
X175210718Y-116268847D01*
X175220946Y-116290471D01*
X175229004Y-116312993D01*
X175234816Y-116336197D01*
X175238326Y-116359858D01*
X175239500Y-116383750D01*
X175239500Y-117296250D01*
X175238326Y-117320142D01*
X175234816Y-117343803D01*
X175229004Y-117367007D01*
X175220946Y-117389529D01*
X175210718Y-117411153D01*
X175198421Y-117431670D01*
X175184171Y-117450883D01*
X175168107Y-117468607D01*
X175150383Y-117484671D01*
X175131170Y-117498921D01*
X175110653Y-117511218D01*
X175089029Y-117521446D01*
X175066507Y-117529504D01*
X175043303Y-117535316D01*
X175019642Y-117538826D01*
X174995750Y-117540000D01*
X174508250Y-117540000D01*
X174484358Y-117538826D01*
X174460697Y-117535316D01*
X174437493Y-117529504D01*
X174414971Y-117521446D01*
X174393347Y-117511218D01*
X174372830Y-117498921D01*
X174353617Y-117484671D01*
X174335893Y-117468607D01*
X174319829Y-117450883D01*
X174305579Y-117431670D01*
X174293282Y-117411153D01*
X174283054Y-117389529D01*
X174274996Y-117367007D01*
X174269184Y-117343803D01*
X174265674Y-117320142D01*
X174264500Y-117296250D01*
X174264500Y-116383750D01*
X174265674Y-116359858D01*
X174269184Y-116336197D01*
X174274996Y-116312993D01*
X174283054Y-116290471D01*
X174293282Y-116268847D01*
X174305579Y-116248330D01*
X174319829Y-116229117D01*
X174335893Y-116211393D01*
X174353617Y-116195329D01*
X174372830Y-116181079D01*
X174393347Y-116168782D01*
X174414971Y-116158554D01*
X174437493Y-116150496D01*
X174460697Y-116144684D01*
X174484358Y-116141174D01*
X174508250Y-116140000D01*
X174995750Y-116140000D01*
X175019642Y-116141174D01*
G37*
G36*
X168826642Y-104711174D02*
G01*
X168850303Y-104714684D01*
X168873507Y-104720496D01*
X168896029Y-104728554D01*
X168917653Y-104738782D01*
X168938170Y-104751079D01*
X168957383Y-104765329D01*
X168975107Y-104781393D01*
X168991171Y-104799117D01*
X169005421Y-104818330D01*
X169017718Y-104838847D01*
X169027946Y-104860471D01*
X169036004Y-104882993D01*
X169041816Y-104906197D01*
X169045326Y-104929858D01*
X169046500Y-104953750D01*
X169046500Y-105866250D01*
X169045326Y-105890142D01*
X169041816Y-105913803D01*
X169036004Y-105937007D01*
X169027946Y-105959529D01*
X169017718Y-105981153D01*
X169005421Y-106001670D01*
X168991171Y-106020883D01*
X168975107Y-106038607D01*
X168957383Y-106054671D01*
X168938170Y-106068921D01*
X168917653Y-106081218D01*
X168896029Y-106091446D01*
X168873507Y-106099504D01*
X168850303Y-106105316D01*
X168826642Y-106108826D01*
X168802750Y-106110000D01*
X168315250Y-106110000D01*
X168291358Y-106108826D01*
X168267697Y-106105316D01*
X168244493Y-106099504D01*
X168221971Y-106091446D01*
X168200347Y-106081218D01*
X168179830Y-106068921D01*
X168160617Y-106054671D01*
X168142893Y-106038607D01*
X168126829Y-106020883D01*
X168112579Y-106001670D01*
X168100282Y-105981153D01*
X168090054Y-105959529D01*
X168081996Y-105937007D01*
X168076184Y-105913803D01*
X168072674Y-105890142D01*
X168071500Y-105866250D01*
X168071500Y-104953750D01*
X168072674Y-104929858D01*
X168076184Y-104906197D01*
X168081996Y-104882993D01*
X168090054Y-104860471D01*
X168100282Y-104838847D01*
X168112579Y-104818330D01*
X168126829Y-104799117D01*
X168142893Y-104781393D01*
X168160617Y-104765329D01*
X168179830Y-104751079D01*
X168200347Y-104738782D01*
X168221971Y-104728554D01*
X168244493Y-104720496D01*
X168267697Y-104714684D01*
X168291358Y-104711174D01*
X168315250Y-104710000D01*
X168802750Y-104710000D01*
X168826642Y-104711174D01*
G37*
G36*
X170701642Y-104711174D02*
G01*
X170725303Y-104714684D01*
X170748507Y-104720496D01*
X170771029Y-104728554D01*
X170792653Y-104738782D01*
X170813170Y-104751079D01*
X170832383Y-104765329D01*
X170850107Y-104781393D01*
X170866171Y-104799117D01*
X170880421Y-104818330D01*
X170892718Y-104838847D01*
X170902946Y-104860471D01*
X170911004Y-104882993D01*
X170916816Y-104906197D01*
X170920326Y-104929858D01*
X170921500Y-104953750D01*
X170921500Y-105866250D01*
X170920326Y-105890142D01*
X170916816Y-105913803D01*
X170911004Y-105937007D01*
X170902946Y-105959529D01*
X170892718Y-105981153D01*
X170880421Y-106001670D01*
X170866171Y-106020883D01*
X170850107Y-106038607D01*
X170832383Y-106054671D01*
X170813170Y-106068921D01*
X170792653Y-106081218D01*
X170771029Y-106091446D01*
X170748507Y-106099504D01*
X170725303Y-106105316D01*
X170701642Y-106108826D01*
X170677750Y-106110000D01*
X170190250Y-106110000D01*
X170166358Y-106108826D01*
X170142697Y-106105316D01*
X170119493Y-106099504D01*
X170096971Y-106091446D01*
X170075347Y-106081218D01*
X170054830Y-106068921D01*
X170035617Y-106054671D01*
X170017893Y-106038607D01*
X170001829Y-106020883D01*
X169987579Y-106001670D01*
X169975282Y-105981153D01*
X169965054Y-105959529D01*
X169956996Y-105937007D01*
X169951184Y-105913803D01*
X169947674Y-105890142D01*
X169946500Y-105866250D01*
X169946500Y-104953750D01*
X169947674Y-104929858D01*
X169951184Y-104906197D01*
X169956996Y-104882993D01*
X169965054Y-104860471D01*
X169975282Y-104838847D01*
X169987579Y-104818330D01*
X170001829Y-104799117D01*
X170017893Y-104781393D01*
X170035617Y-104765329D01*
X170054830Y-104751079D01*
X170075347Y-104738782D01*
X170096971Y-104728554D01*
X170119493Y-104720496D01*
X170142697Y-104714684D01*
X170166358Y-104711174D01*
X170190250Y-104710000D01*
X170677750Y-104710000D01*
X170701642Y-104711174D01*
G37*
G36*
X165834142Y-105099174D02*
G01*
X165857803Y-105102684D01*
X165881007Y-105108496D01*
X165903529Y-105116554D01*
X165925153Y-105126782D01*
X165945670Y-105139079D01*
X165964883Y-105153329D01*
X165982607Y-105169393D01*
X165998671Y-105187117D01*
X166012921Y-105206330D01*
X166025218Y-105226847D01*
X166035446Y-105248471D01*
X166043504Y-105270993D01*
X166049316Y-105294197D01*
X166052826Y-105317858D01*
X166054000Y-105341750D01*
X166054000Y-105829250D01*
X166052826Y-105853142D01*
X166049316Y-105876803D01*
X166043504Y-105900007D01*
X166035446Y-105922529D01*
X166025218Y-105944153D01*
X166012921Y-105964670D01*
X165998671Y-105983883D01*
X165982607Y-106001607D01*
X165964883Y-106017671D01*
X165945670Y-106031921D01*
X165925153Y-106044218D01*
X165903529Y-106054446D01*
X165881007Y-106062504D01*
X165857803Y-106068316D01*
X165834142Y-106071826D01*
X165810250Y-106073000D01*
X164897750Y-106073000D01*
X164873858Y-106071826D01*
X164850197Y-106068316D01*
X164826993Y-106062504D01*
X164804471Y-106054446D01*
X164782847Y-106044218D01*
X164762330Y-106031921D01*
X164743117Y-106017671D01*
X164725393Y-106001607D01*
X164709329Y-105983883D01*
X164695079Y-105964670D01*
X164682782Y-105944153D01*
X164672554Y-105922529D01*
X164664496Y-105900007D01*
X164658684Y-105876803D01*
X164655174Y-105853142D01*
X164654000Y-105829250D01*
X164654000Y-105341750D01*
X164655174Y-105317858D01*
X164658684Y-105294197D01*
X164664496Y-105270993D01*
X164672554Y-105248471D01*
X164682782Y-105226847D01*
X164695079Y-105206330D01*
X164709329Y-105187117D01*
X164725393Y-105169393D01*
X164743117Y-105153329D01*
X164762330Y-105139079D01*
X164782847Y-105126782D01*
X164804471Y-105116554D01*
X164826993Y-105108496D01*
X164850197Y-105102684D01*
X164873858Y-105099174D01*
X164897750Y-105098000D01*
X165810250Y-105098000D01*
X165834142Y-105099174D01*
G37*
G36*
X165834142Y-103224174D02*
G01*
X165857803Y-103227684D01*
X165881007Y-103233496D01*
X165903529Y-103241554D01*
X165925153Y-103251782D01*
X165945670Y-103264079D01*
X165964883Y-103278329D01*
X165982607Y-103294393D01*
X165998671Y-103312117D01*
X166012921Y-103331330D01*
X166025218Y-103351847D01*
X166035446Y-103373471D01*
X166043504Y-103395993D01*
X166049316Y-103419197D01*
X166052826Y-103442858D01*
X166054000Y-103466750D01*
X166054000Y-103954250D01*
X166052826Y-103978142D01*
X166049316Y-104001803D01*
X166043504Y-104025007D01*
X166035446Y-104047529D01*
X166025218Y-104069153D01*
X166012921Y-104089670D01*
X165998671Y-104108883D01*
X165982607Y-104126607D01*
X165964883Y-104142671D01*
X165945670Y-104156921D01*
X165925153Y-104169218D01*
X165903529Y-104179446D01*
X165881007Y-104187504D01*
X165857803Y-104193316D01*
X165834142Y-104196826D01*
X165810250Y-104198000D01*
X164897750Y-104198000D01*
X164873858Y-104196826D01*
X164850197Y-104193316D01*
X164826993Y-104187504D01*
X164804471Y-104179446D01*
X164782847Y-104169218D01*
X164762330Y-104156921D01*
X164743117Y-104142671D01*
X164725393Y-104126607D01*
X164709329Y-104108883D01*
X164695079Y-104089670D01*
X164682782Y-104069153D01*
X164672554Y-104047529D01*
X164664496Y-104025007D01*
X164658684Y-104001803D01*
X164655174Y-103978142D01*
X164654000Y-103954250D01*
X164654000Y-103466750D01*
X164655174Y-103442858D01*
X164658684Y-103419197D01*
X164664496Y-103395993D01*
X164672554Y-103373471D01*
X164682782Y-103351847D01*
X164695079Y-103331330D01*
X164709329Y-103312117D01*
X164725393Y-103294393D01*
X164743117Y-103278329D01*
X164762330Y-103264079D01*
X164782847Y-103251782D01*
X164804471Y-103241554D01*
X164826993Y-103233496D01*
X164850197Y-103227684D01*
X164873858Y-103224174D01*
X164897750Y-103223000D01*
X165810250Y-103223000D01*
X165834142Y-103224174D01*
G37*
G36*
X150381642Y-98107174D02*
G01*
X150405303Y-98110684D01*
X150428507Y-98116496D01*
X150451029Y-98124554D01*
X150472653Y-98134782D01*
X150493170Y-98147079D01*
X150512383Y-98161329D01*
X150530107Y-98177393D01*
X150546171Y-98195117D01*
X150560421Y-98214330D01*
X150572718Y-98234847D01*
X150582946Y-98256471D01*
X150591004Y-98278993D01*
X150596816Y-98302197D01*
X150600326Y-98325858D01*
X150601500Y-98349750D01*
X150601500Y-99262250D01*
X150600326Y-99286142D01*
X150596816Y-99309803D01*
X150591004Y-99333007D01*
X150582946Y-99355529D01*
X150572718Y-99377153D01*
X150560421Y-99397670D01*
X150546171Y-99416883D01*
X150530107Y-99434607D01*
X150512383Y-99450671D01*
X150493170Y-99464921D01*
X150472653Y-99477218D01*
X150451029Y-99487446D01*
X150428507Y-99495504D01*
X150405303Y-99501316D01*
X150381642Y-99504826D01*
X150357750Y-99506000D01*
X149870250Y-99506000D01*
X149846358Y-99504826D01*
X149822697Y-99501316D01*
X149799493Y-99495504D01*
X149776971Y-99487446D01*
X149755347Y-99477218D01*
X149734830Y-99464921D01*
X149715617Y-99450671D01*
X149697893Y-99434607D01*
X149681829Y-99416883D01*
X149667579Y-99397670D01*
X149655282Y-99377153D01*
X149645054Y-99355529D01*
X149636996Y-99333007D01*
X149631184Y-99309803D01*
X149627674Y-99286142D01*
X149626500Y-99262250D01*
X149626500Y-98349750D01*
X149627674Y-98325858D01*
X149631184Y-98302197D01*
X149636996Y-98278993D01*
X149645054Y-98256471D01*
X149655282Y-98234847D01*
X149667579Y-98214330D01*
X149681829Y-98195117D01*
X149697893Y-98177393D01*
X149715617Y-98161329D01*
X149734830Y-98147079D01*
X149755347Y-98134782D01*
X149776971Y-98124554D01*
X149799493Y-98116496D01*
X149822697Y-98110684D01*
X149846358Y-98107174D01*
X149870250Y-98106000D01*
X150357750Y-98106000D01*
X150381642Y-98107174D01*
G37*
G36*
X148506642Y-98107174D02*
G01*
X148530303Y-98110684D01*
X148553507Y-98116496D01*
X148576029Y-98124554D01*
X148597653Y-98134782D01*
X148618170Y-98147079D01*
X148637383Y-98161329D01*
X148655107Y-98177393D01*
X148671171Y-98195117D01*
X148685421Y-98214330D01*
X148697718Y-98234847D01*
X148707946Y-98256471D01*
X148716004Y-98278993D01*
X148721816Y-98302197D01*
X148725326Y-98325858D01*
X148726500Y-98349750D01*
X148726500Y-99262250D01*
X148725326Y-99286142D01*
X148721816Y-99309803D01*
X148716004Y-99333007D01*
X148707946Y-99355529D01*
X148697718Y-99377153D01*
X148685421Y-99397670D01*
X148671171Y-99416883D01*
X148655107Y-99434607D01*
X148637383Y-99450671D01*
X148618170Y-99464921D01*
X148597653Y-99477218D01*
X148576029Y-99487446D01*
X148553507Y-99495504D01*
X148530303Y-99501316D01*
X148506642Y-99504826D01*
X148482750Y-99506000D01*
X147995250Y-99506000D01*
X147971358Y-99504826D01*
X147947697Y-99501316D01*
X147924493Y-99495504D01*
X147901971Y-99487446D01*
X147880347Y-99477218D01*
X147859830Y-99464921D01*
X147840617Y-99450671D01*
X147822893Y-99434607D01*
X147806829Y-99416883D01*
X147792579Y-99397670D01*
X147780282Y-99377153D01*
X147770054Y-99355529D01*
X147761996Y-99333007D01*
X147756184Y-99309803D01*
X147752674Y-99286142D01*
X147751500Y-99262250D01*
X147751500Y-98349750D01*
X147752674Y-98325858D01*
X147756184Y-98302197D01*
X147761996Y-98278993D01*
X147770054Y-98256471D01*
X147780282Y-98234847D01*
X147792579Y-98214330D01*
X147806829Y-98195117D01*
X147822893Y-98177393D01*
X147840617Y-98161329D01*
X147859830Y-98147079D01*
X147880347Y-98134782D01*
X147901971Y-98124554D01*
X147924493Y-98116496D01*
X147947697Y-98110684D01*
X147971358Y-98107174D01*
X147995250Y-98106000D01*
X148482750Y-98106000D01*
X148506642Y-98107174D01*
G37*
G36*
X150381642Y-106235174D02*
G01*
X150405303Y-106238684D01*
X150428507Y-106244496D01*
X150451029Y-106252554D01*
X150472653Y-106262782D01*
X150493170Y-106275079D01*
X150512383Y-106289329D01*
X150530107Y-106305393D01*
X150546171Y-106323117D01*
X150560421Y-106342330D01*
X150572718Y-106362847D01*
X150582946Y-106384471D01*
X150591004Y-106406993D01*
X150596816Y-106430197D01*
X150600326Y-106453858D01*
X150601500Y-106477750D01*
X150601500Y-107390250D01*
X150600326Y-107414142D01*
X150596816Y-107437803D01*
X150591004Y-107461007D01*
X150582946Y-107483529D01*
X150572718Y-107505153D01*
X150560421Y-107525670D01*
X150546171Y-107544883D01*
X150530107Y-107562607D01*
X150512383Y-107578671D01*
X150493170Y-107592921D01*
X150472653Y-107605218D01*
X150451029Y-107615446D01*
X150428507Y-107623504D01*
X150405303Y-107629316D01*
X150381642Y-107632826D01*
X150357750Y-107634000D01*
X149870250Y-107634000D01*
X149846358Y-107632826D01*
X149822697Y-107629316D01*
X149799493Y-107623504D01*
X149776971Y-107615446D01*
X149755347Y-107605218D01*
X149734830Y-107592921D01*
X149715617Y-107578671D01*
X149697893Y-107562607D01*
X149681829Y-107544883D01*
X149667579Y-107525670D01*
X149655282Y-107505153D01*
X149645054Y-107483529D01*
X149636996Y-107461007D01*
X149631184Y-107437803D01*
X149627674Y-107414142D01*
X149626500Y-107390250D01*
X149626500Y-106477750D01*
X149627674Y-106453858D01*
X149631184Y-106430197D01*
X149636996Y-106406993D01*
X149645054Y-106384471D01*
X149655282Y-106362847D01*
X149667579Y-106342330D01*
X149681829Y-106323117D01*
X149697893Y-106305393D01*
X149715617Y-106289329D01*
X149734830Y-106275079D01*
X149755347Y-106262782D01*
X149776971Y-106252554D01*
X149799493Y-106244496D01*
X149822697Y-106238684D01*
X149846358Y-106235174D01*
X149870250Y-106234000D01*
X150357750Y-106234000D01*
X150381642Y-106235174D01*
G37*
G36*
X148506642Y-106235174D02*
G01*
X148530303Y-106238684D01*
X148553507Y-106244496D01*
X148576029Y-106252554D01*
X148597653Y-106262782D01*
X148618170Y-106275079D01*
X148637383Y-106289329D01*
X148655107Y-106305393D01*
X148671171Y-106323117D01*
X148685421Y-106342330D01*
X148697718Y-106362847D01*
X148707946Y-106384471D01*
X148716004Y-106406993D01*
X148721816Y-106430197D01*
X148725326Y-106453858D01*
X148726500Y-106477750D01*
X148726500Y-107390250D01*
X148725326Y-107414142D01*
X148721816Y-107437803D01*
X148716004Y-107461007D01*
X148707946Y-107483529D01*
X148697718Y-107505153D01*
X148685421Y-107525670D01*
X148671171Y-107544883D01*
X148655107Y-107562607D01*
X148637383Y-107578671D01*
X148618170Y-107592921D01*
X148597653Y-107605218D01*
X148576029Y-107615446D01*
X148553507Y-107623504D01*
X148530303Y-107629316D01*
X148506642Y-107632826D01*
X148482750Y-107634000D01*
X147995250Y-107634000D01*
X147971358Y-107632826D01*
X147947697Y-107629316D01*
X147924493Y-107623504D01*
X147901971Y-107615446D01*
X147880347Y-107605218D01*
X147859830Y-107592921D01*
X147840617Y-107578671D01*
X147822893Y-107562607D01*
X147806829Y-107544883D01*
X147792579Y-107525670D01*
X147780282Y-107505153D01*
X147770054Y-107483529D01*
X147761996Y-107461007D01*
X147756184Y-107437803D01*
X147752674Y-107414142D01*
X147751500Y-107390250D01*
X147751500Y-106477750D01*
X147752674Y-106453858D01*
X147756184Y-106430197D01*
X147761996Y-106406993D01*
X147770054Y-106384471D01*
X147780282Y-106362847D01*
X147792579Y-106342330D01*
X147806829Y-106323117D01*
X147822893Y-106305393D01*
X147840617Y-106289329D01*
X147859830Y-106275079D01*
X147880347Y-106262782D01*
X147901971Y-106252554D01*
X147924493Y-106244496D01*
X147947697Y-106238684D01*
X147971358Y-106235174D01*
X147995250Y-106234000D01*
X148482750Y-106234000D01*
X148506642Y-106235174D01*
G37*
D12*
X168654000Y-113792000D03*
X165354000Y-113792000D03*
X165354000Y-118872000D03*
X168654000Y-118872000D03*
D13*
X131782000Y-104236000D03*
X131782000Y-102236000D03*
X131782000Y-106736000D03*
X131782000Y-99736000D03*
D14*
X183896000Y-109660000D03*
X183896000Y-101160000D03*
X183896000Y-105410000D03*
D15*
X181864000Y-92710000D03*
X183864000Y-85310000D03*
D16*
X174464000Y-85310000D03*
D11*
G36*
X140064642Y-109537174D02*
G01*
X140088303Y-109540684D01*
X140111507Y-109546496D01*
X140134029Y-109554554D01*
X140155653Y-109564782D01*
X140176170Y-109577079D01*
X140195383Y-109591329D01*
X140213107Y-109607393D01*
X140229171Y-109625117D01*
X140243421Y-109644330D01*
X140255718Y-109664847D01*
X140265946Y-109686471D01*
X140274004Y-109708993D01*
X140279816Y-109732197D01*
X140283326Y-109755858D01*
X140284500Y-109779750D01*
X140284500Y-110692250D01*
X140283326Y-110716142D01*
X140279816Y-110739803D01*
X140274004Y-110763007D01*
X140265946Y-110785529D01*
X140255718Y-110807153D01*
X140243421Y-110827670D01*
X140229171Y-110846883D01*
X140213107Y-110864607D01*
X140195383Y-110880671D01*
X140176170Y-110894921D01*
X140155653Y-110907218D01*
X140134029Y-110917446D01*
X140111507Y-110925504D01*
X140088303Y-110931316D01*
X140064642Y-110934826D01*
X140040750Y-110936000D01*
X139553250Y-110936000D01*
X139529358Y-110934826D01*
X139505697Y-110931316D01*
X139482493Y-110925504D01*
X139459971Y-110917446D01*
X139438347Y-110907218D01*
X139417830Y-110894921D01*
X139398617Y-110880671D01*
X139380893Y-110864607D01*
X139364829Y-110846883D01*
X139350579Y-110827670D01*
X139338282Y-110807153D01*
X139328054Y-110785529D01*
X139319996Y-110763007D01*
X139314184Y-110739803D01*
X139310674Y-110716142D01*
X139309500Y-110692250D01*
X139309500Y-109779750D01*
X139310674Y-109755858D01*
X139314184Y-109732197D01*
X139319996Y-109708993D01*
X139328054Y-109686471D01*
X139338282Y-109664847D01*
X139350579Y-109644330D01*
X139364829Y-109625117D01*
X139380893Y-109607393D01*
X139398617Y-109591329D01*
X139417830Y-109577079D01*
X139438347Y-109564782D01*
X139459971Y-109554554D01*
X139482493Y-109546496D01*
X139505697Y-109540684D01*
X139529358Y-109537174D01*
X139553250Y-109536000D01*
X140040750Y-109536000D01*
X140064642Y-109537174D01*
G37*
G36*
X138189642Y-109537174D02*
G01*
X138213303Y-109540684D01*
X138236507Y-109546496D01*
X138259029Y-109554554D01*
X138280653Y-109564782D01*
X138301170Y-109577079D01*
X138320383Y-109591329D01*
X138338107Y-109607393D01*
X138354171Y-109625117D01*
X138368421Y-109644330D01*
X138380718Y-109664847D01*
X138390946Y-109686471D01*
X138399004Y-109708993D01*
X138404816Y-109732197D01*
X138408326Y-109755858D01*
X138409500Y-109779750D01*
X138409500Y-110692250D01*
X138408326Y-110716142D01*
X138404816Y-110739803D01*
X138399004Y-110763007D01*
X138390946Y-110785529D01*
X138380718Y-110807153D01*
X138368421Y-110827670D01*
X138354171Y-110846883D01*
X138338107Y-110864607D01*
X138320383Y-110880671D01*
X138301170Y-110894921D01*
X138280653Y-110907218D01*
X138259029Y-110917446D01*
X138236507Y-110925504D01*
X138213303Y-110931316D01*
X138189642Y-110934826D01*
X138165750Y-110936000D01*
X137678250Y-110936000D01*
X137654358Y-110934826D01*
X137630697Y-110931316D01*
X137607493Y-110925504D01*
X137584971Y-110917446D01*
X137563347Y-110907218D01*
X137542830Y-110894921D01*
X137523617Y-110880671D01*
X137505893Y-110864607D01*
X137489829Y-110846883D01*
X137475579Y-110827670D01*
X137463282Y-110807153D01*
X137453054Y-110785529D01*
X137444996Y-110763007D01*
X137439184Y-110739803D01*
X137435674Y-110716142D01*
X137434500Y-110692250D01*
X137434500Y-109779750D01*
X137435674Y-109755858D01*
X137439184Y-109732197D01*
X137444996Y-109708993D01*
X137453054Y-109686471D01*
X137463282Y-109664847D01*
X137475579Y-109644330D01*
X137489829Y-109625117D01*
X137505893Y-109607393D01*
X137523617Y-109591329D01*
X137542830Y-109577079D01*
X137563347Y-109564782D01*
X137584971Y-109554554D01*
X137607493Y-109546496D01*
X137630697Y-109540684D01*
X137654358Y-109537174D01*
X137678250Y-109536000D01*
X138165750Y-109536000D01*
X138189642Y-109537174D01*
G37*
G36*
X170701642Y-101917174D02*
G01*
X170725303Y-101920684D01*
X170748507Y-101926496D01*
X170771029Y-101934554D01*
X170792653Y-101944782D01*
X170813170Y-101957079D01*
X170832383Y-101971329D01*
X170850107Y-101987393D01*
X170866171Y-102005117D01*
X170880421Y-102024330D01*
X170892718Y-102044847D01*
X170902946Y-102066471D01*
X170911004Y-102088993D01*
X170916816Y-102112197D01*
X170920326Y-102135858D01*
X170921500Y-102159750D01*
X170921500Y-103072250D01*
X170920326Y-103096142D01*
X170916816Y-103119803D01*
X170911004Y-103143007D01*
X170902946Y-103165529D01*
X170892718Y-103187153D01*
X170880421Y-103207670D01*
X170866171Y-103226883D01*
X170850107Y-103244607D01*
X170832383Y-103260671D01*
X170813170Y-103274921D01*
X170792653Y-103287218D01*
X170771029Y-103297446D01*
X170748507Y-103305504D01*
X170725303Y-103311316D01*
X170701642Y-103314826D01*
X170677750Y-103316000D01*
X170190250Y-103316000D01*
X170166358Y-103314826D01*
X170142697Y-103311316D01*
X170119493Y-103305504D01*
X170096971Y-103297446D01*
X170075347Y-103287218D01*
X170054830Y-103274921D01*
X170035617Y-103260671D01*
X170017893Y-103244607D01*
X170001829Y-103226883D01*
X169987579Y-103207670D01*
X169975282Y-103187153D01*
X169965054Y-103165529D01*
X169956996Y-103143007D01*
X169951184Y-103119803D01*
X169947674Y-103096142D01*
X169946500Y-103072250D01*
X169946500Y-102159750D01*
X169947674Y-102135858D01*
X169951184Y-102112197D01*
X169956996Y-102088993D01*
X169965054Y-102066471D01*
X169975282Y-102044847D01*
X169987579Y-102024330D01*
X170001829Y-102005117D01*
X170017893Y-101987393D01*
X170035617Y-101971329D01*
X170054830Y-101957079D01*
X170075347Y-101944782D01*
X170096971Y-101934554D01*
X170119493Y-101926496D01*
X170142697Y-101920684D01*
X170166358Y-101917174D01*
X170190250Y-101916000D01*
X170677750Y-101916000D01*
X170701642Y-101917174D01*
G37*
G36*
X168826642Y-101917174D02*
G01*
X168850303Y-101920684D01*
X168873507Y-101926496D01*
X168896029Y-101934554D01*
X168917653Y-101944782D01*
X168938170Y-101957079D01*
X168957383Y-101971329D01*
X168975107Y-101987393D01*
X168991171Y-102005117D01*
X169005421Y-102024330D01*
X169017718Y-102044847D01*
X169027946Y-102066471D01*
X169036004Y-102088993D01*
X169041816Y-102112197D01*
X169045326Y-102135858D01*
X169046500Y-102159750D01*
X169046500Y-103072250D01*
X169045326Y-103096142D01*
X169041816Y-103119803D01*
X169036004Y-103143007D01*
X169027946Y-103165529D01*
X169017718Y-103187153D01*
X169005421Y-103207670D01*
X168991171Y-103226883D01*
X168975107Y-103244607D01*
X168957383Y-103260671D01*
X168938170Y-103274921D01*
X168917653Y-103287218D01*
X168896029Y-103297446D01*
X168873507Y-103305504D01*
X168850303Y-103311316D01*
X168826642Y-103314826D01*
X168802750Y-103316000D01*
X168315250Y-103316000D01*
X168291358Y-103314826D01*
X168267697Y-103311316D01*
X168244493Y-103305504D01*
X168221971Y-103297446D01*
X168200347Y-103287218D01*
X168179830Y-103274921D01*
X168160617Y-103260671D01*
X168142893Y-103244607D01*
X168126829Y-103226883D01*
X168112579Y-103207670D01*
X168100282Y-103187153D01*
X168090054Y-103165529D01*
X168081996Y-103143007D01*
X168076184Y-103119803D01*
X168072674Y-103096142D01*
X168071500Y-103072250D01*
X168071500Y-102159750D01*
X168072674Y-102135858D01*
X168076184Y-102112197D01*
X168081996Y-102088993D01*
X168090054Y-102066471D01*
X168100282Y-102044847D01*
X168112579Y-102024330D01*
X168126829Y-102005117D01*
X168142893Y-101987393D01*
X168160617Y-101971329D01*
X168179830Y-101957079D01*
X168200347Y-101944782D01*
X168221971Y-101934554D01*
X168244493Y-101926496D01*
X168267697Y-101920684D01*
X168291358Y-101917174D01*
X168315250Y-101916000D01*
X168802750Y-101916000D01*
X168826642Y-101917174D01*
G37*
G36*
X170701642Y-99885174D02*
G01*
X170725303Y-99888684D01*
X170748507Y-99894496D01*
X170771029Y-99902554D01*
X170792653Y-99912782D01*
X170813170Y-99925079D01*
X170832383Y-99939329D01*
X170850107Y-99955393D01*
X170866171Y-99973117D01*
X170880421Y-99992330D01*
X170892718Y-100012847D01*
X170902946Y-100034471D01*
X170911004Y-100056993D01*
X170916816Y-100080197D01*
X170920326Y-100103858D01*
X170921500Y-100127750D01*
X170921500Y-101040250D01*
X170920326Y-101064142D01*
X170916816Y-101087803D01*
X170911004Y-101111007D01*
X170902946Y-101133529D01*
X170892718Y-101155153D01*
X170880421Y-101175670D01*
X170866171Y-101194883D01*
X170850107Y-101212607D01*
X170832383Y-101228671D01*
X170813170Y-101242921D01*
X170792653Y-101255218D01*
X170771029Y-101265446D01*
X170748507Y-101273504D01*
X170725303Y-101279316D01*
X170701642Y-101282826D01*
X170677750Y-101284000D01*
X170190250Y-101284000D01*
X170166358Y-101282826D01*
X170142697Y-101279316D01*
X170119493Y-101273504D01*
X170096971Y-101265446D01*
X170075347Y-101255218D01*
X170054830Y-101242921D01*
X170035617Y-101228671D01*
X170017893Y-101212607D01*
X170001829Y-101194883D01*
X169987579Y-101175670D01*
X169975282Y-101155153D01*
X169965054Y-101133529D01*
X169956996Y-101111007D01*
X169951184Y-101087803D01*
X169947674Y-101064142D01*
X169946500Y-101040250D01*
X169946500Y-100127750D01*
X169947674Y-100103858D01*
X169951184Y-100080197D01*
X169956996Y-100056993D01*
X169965054Y-100034471D01*
X169975282Y-100012847D01*
X169987579Y-99992330D01*
X170001829Y-99973117D01*
X170017893Y-99955393D01*
X170035617Y-99939329D01*
X170054830Y-99925079D01*
X170075347Y-99912782D01*
X170096971Y-99902554D01*
X170119493Y-99894496D01*
X170142697Y-99888684D01*
X170166358Y-99885174D01*
X170190250Y-99884000D01*
X170677750Y-99884000D01*
X170701642Y-99885174D01*
G37*
G36*
X168826642Y-99885174D02*
G01*
X168850303Y-99888684D01*
X168873507Y-99894496D01*
X168896029Y-99902554D01*
X168917653Y-99912782D01*
X168938170Y-99925079D01*
X168957383Y-99939329D01*
X168975107Y-99955393D01*
X168991171Y-99973117D01*
X169005421Y-99992330D01*
X169017718Y-100012847D01*
X169027946Y-100034471D01*
X169036004Y-100056993D01*
X169041816Y-100080197D01*
X169045326Y-100103858D01*
X169046500Y-100127750D01*
X169046500Y-101040250D01*
X169045326Y-101064142D01*
X169041816Y-101087803D01*
X169036004Y-101111007D01*
X169027946Y-101133529D01*
X169017718Y-101155153D01*
X169005421Y-101175670D01*
X168991171Y-101194883D01*
X168975107Y-101212607D01*
X168957383Y-101228671D01*
X168938170Y-101242921D01*
X168917653Y-101255218D01*
X168896029Y-101265446D01*
X168873507Y-101273504D01*
X168850303Y-101279316D01*
X168826642Y-101282826D01*
X168802750Y-101284000D01*
X168315250Y-101284000D01*
X168291358Y-101282826D01*
X168267697Y-101279316D01*
X168244493Y-101273504D01*
X168221971Y-101265446D01*
X168200347Y-101255218D01*
X168179830Y-101242921D01*
X168160617Y-101228671D01*
X168142893Y-101212607D01*
X168126829Y-101194883D01*
X168112579Y-101175670D01*
X168100282Y-101155153D01*
X168090054Y-101133529D01*
X168081996Y-101111007D01*
X168076184Y-101087803D01*
X168072674Y-101064142D01*
X168071500Y-101040250D01*
X168071500Y-100127750D01*
X168072674Y-100103858D01*
X168076184Y-100080197D01*
X168081996Y-100056993D01*
X168090054Y-100034471D01*
X168100282Y-100012847D01*
X168112579Y-99992330D01*
X168126829Y-99973117D01*
X168142893Y-99955393D01*
X168160617Y-99939329D01*
X168179830Y-99925079D01*
X168200347Y-99912782D01*
X168221971Y-99902554D01*
X168244493Y-99894496D01*
X168267697Y-99888684D01*
X168291358Y-99885174D01*
X168315250Y-99884000D01*
X168802750Y-99884000D01*
X168826642Y-99885174D01*
G37*
G36*
X150381642Y-103949174D02*
G01*
X150405303Y-103952684D01*
X150428507Y-103958496D01*
X150451029Y-103966554D01*
X150472653Y-103976782D01*
X150493170Y-103989079D01*
X150512383Y-104003329D01*
X150530107Y-104019393D01*
X150546171Y-104037117D01*
X150560421Y-104056330D01*
X150572718Y-104076847D01*
X150582946Y-104098471D01*
X150591004Y-104120993D01*
X150596816Y-104144197D01*
X150600326Y-104167858D01*
X150601500Y-104191750D01*
X150601500Y-105104250D01*
X150600326Y-105128142D01*
X150596816Y-105151803D01*
X150591004Y-105175007D01*
X150582946Y-105197529D01*
X150572718Y-105219153D01*
X150560421Y-105239670D01*
X150546171Y-105258883D01*
X150530107Y-105276607D01*
X150512383Y-105292671D01*
X150493170Y-105306921D01*
X150472653Y-105319218D01*
X150451029Y-105329446D01*
X150428507Y-105337504D01*
X150405303Y-105343316D01*
X150381642Y-105346826D01*
X150357750Y-105348000D01*
X149870250Y-105348000D01*
X149846358Y-105346826D01*
X149822697Y-105343316D01*
X149799493Y-105337504D01*
X149776971Y-105329446D01*
X149755347Y-105319218D01*
X149734830Y-105306921D01*
X149715617Y-105292671D01*
X149697893Y-105276607D01*
X149681829Y-105258883D01*
X149667579Y-105239670D01*
X149655282Y-105219153D01*
X149645054Y-105197529D01*
X149636996Y-105175007D01*
X149631184Y-105151803D01*
X149627674Y-105128142D01*
X149626500Y-105104250D01*
X149626500Y-104191750D01*
X149627674Y-104167858D01*
X149631184Y-104144197D01*
X149636996Y-104120993D01*
X149645054Y-104098471D01*
X149655282Y-104076847D01*
X149667579Y-104056330D01*
X149681829Y-104037117D01*
X149697893Y-104019393D01*
X149715617Y-104003329D01*
X149734830Y-103989079D01*
X149755347Y-103976782D01*
X149776971Y-103966554D01*
X149799493Y-103958496D01*
X149822697Y-103952684D01*
X149846358Y-103949174D01*
X149870250Y-103948000D01*
X150357750Y-103948000D01*
X150381642Y-103949174D01*
G37*
G36*
X148506642Y-103949174D02*
G01*
X148530303Y-103952684D01*
X148553507Y-103958496D01*
X148576029Y-103966554D01*
X148597653Y-103976782D01*
X148618170Y-103989079D01*
X148637383Y-104003329D01*
X148655107Y-104019393D01*
X148671171Y-104037117D01*
X148685421Y-104056330D01*
X148697718Y-104076847D01*
X148707946Y-104098471D01*
X148716004Y-104120993D01*
X148721816Y-104144197D01*
X148725326Y-104167858D01*
X148726500Y-104191750D01*
X148726500Y-105104250D01*
X148725326Y-105128142D01*
X148721816Y-105151803D01*
X148716004Y-105175007D01*
X148707946Y-105197529D01*
X148697718Y-105219153D01*
X148685421Y-105239670D01*
X148671171Y-105258883D01*
X148655107Y-105276607D01*
X148637383Y-105292671D01*
X148618170Y-105306921D01*
X148597653Y-105319218D01*
X148576029Y-105329446D01*
X148553507Y-105337504D01*
X148530303Y-105343316D01*
X148506642Y-105346826D01*
X148482750Y-105348000D01*
X147995250Y-105348000D01*
X147971358Y-105346826D01*
X147947697Y-105343316D01*
X147924493Y-105337504D01*
X147901971Y-105329446D01*
X147880347Y-105319218D01*
X147859830Y-105306921D01*
X147840617Y-105292671D01*
X147822893Y-105276607D01*
X147806829Y-105258883D01*
X147792579Y-105239670D01*
X147780282Y-105219153D01*
X147770054Y-105197529D01*
X147761996Y-105175007D01*
X147756184Y-105151803D01*
X147752674Y-105128142D01*
X147751500Y-105104250D01*
X147751500Y-104191750D01*
X147752674Y-104167858D01*
X147756184Y-104144197D01*
X147761996Y-104120993D01*
X147770054Y-104098471D01*
X147780282Y-104076847D01*
X147792579Y-104056330D01*
X147806829Y-104037117D01*
X147822893Y-104019393D01*
X147840617Y-104003329D01*
X147859830Y-103989079D01*
X147880347Y-103976782D01*
X147901971Y-103966554D01*
X147924493Y-103958496D01*
X147947697Y-103952684D01*
X147971358Y-103949174D01*
X147995250Y-103948000D01*
X148482750Y-103948000D01*
X148506642Y-103949174D01*
G37*
D17*
X178264000Y-101212000D03*
D18*
X172764000Y-102362000D03*
D17*
X178264000Y-103512000D03*
D19*
X153924000Y-113792000D03*
X153924000Y-116332000D03*
X153924000Y-118872000D03*
X163068000Y-118872000D03*
X163068000Y-116332000D03*
X163068000Y-113792000D03*
D10*
X140292000Y-108011000D03*
X140292000Y-107061000D03*
X140292000Y-106111000D03*
X138092000Y-106111000D03*
X138092000Y-108011000D03*
X138092000Y-107061000D03*
D20*
X169966000Y-109154000D03*
X169966000Y-108204000D03*
X169966000Y-107254000D03*
X167346000Y-107254000D03*
X167346000Y-109154000D03*
D21*
X154146000Y-107188000D03*
X162846000Y-107188000D03*
X154146000Y-104648000D03*
X162846000Y-104648000D03*
X154146000Y-102108000D03*
X162846000Y-102108000D03*
X154146000Y-99568000D03*
X162846000Y-99568000D03*
D20*
X149860000Y-100716000D03*
X149860000Y-102616000D03*
X147240000Y-102616000D03*
X147240000Y-101666000D03*
X147240000Y-100716000D03*
D22*
X176850000Y-121158000D03*
X177800000Y-121158000D03*
X178750000Y-121158000D03*
X178750000Y-118958000D03*
X176850000Y-118958000D03*
M02*
