G04 #@! TF.GenerationSoftware,KiCad,Pcbnew,5.1.5*
G04 #@! TF.CreationDate,2020-06-04T17:32:55-05:00*
G04 #@! TF.ProjectId,Receiver,52656365-6976-4657-922e-6b696361645f,rev?*
G04 #@! TF.SameCoordinates,Original*
G04 #@! TF.FileFunction,Soldermask,Top*
G04 #@! TF.FilePolarity,Negative*
%FSLAX46Y46*%
G04 Gerber Fmt 4.6, Leading zero omitted, Abs format (unit mm)*
G04 Created by KiCad (PCBNEW 5.1.5) date 2020-06-04 17:32:55*
%MOMM*%
%LPD*%
G04 APERTURE LIST*
%ADD10C,0.100000*%
G04 APERTURE END LIST*
D10*
G36*
X175336468Y-120721065D02*
G01*
X175375138Y-120732796D01*
X175410777Y-120751846D01*
X175442017Y-120777483D01*
X175467654Y-120808723D01*
X175486704Y-120844362D01*
X175498435Y-120883032D01*
X175503000Y-120929388D01*
X175503000Y-121580612D01*
X175498435Y-121626968D01*
X175486704Y-121665638D01*
X175467654Y-121701277D01*
X175442017Y-121732517D01*
X175410777Y-121758154D01*
X175375138Y-121777204D01*
X175336468Y-121788935D01*
X175290112Y-121793500D01*
X174213888Y-121793500D01*
X174167532Y-121788935D01*
X174128862Y-121777204D01*
X174093223Y-121758154D01*
X174061983Y-121732517D01*
X174036346Y-121701277D01*
X174017296Y-121665638D01*
X174005565Y-121626968D01*
X174001000Y-121580612D01*
X174001000Y-120929388D01*
X174005565Y-120883032D01*
X174017296Y-120844362D01*
X174036346Y-120808723D01*
X174061983Y-120777483D01*
X174093223Y-120751846D01*
X174128862Y-120732796D01*
X174167532Y-120721065D01*
X174213888Y-120716500D01*
X175290112Y-120716500D01*
X175336468Y-120721065D01*
G37*
G36*
X179126000Y-121739000D02*
G01*
X176474000Y-121739000D01*
X176474000Y-120577000D01*
X179126000Y-120577000D01*
X179126000Y-121739000D01*
G37*
G36*
X175336468Y-118846065D02*
G01*
X175375138Y-118857796D01*
X175410777Y-118876846D01*
X175442017Y-118902483D01*
X175467654Y-118933723D01*
X175486704Y-118969362D01*
X175498435Y-119008032D01*
X175503000Y-119054388D01*
X175503000Y-119705612D01*
X175498435Y-119751968D01*
X175486704Y-119790638D01*
X175467654Y-119826277D01*
X175442017Y-119857517D01*
X175410777Y-119883154D01*
X175375138Y-119902204D01*
X175336468Y-119913935D01*
X175290112Y-119918500D01*
X174213888Y-119918500D01*
X174167532Y-119913935D01*
X174128862Y-119902204D01*
X174093223Y-119883154D01*
X174061983Y-119857517D01*
X174036346Y-119826277D01*
X174017296Y-119790638D01*
X174005565Y-119751968D01*
X174001000Y-119705612D01*
X174001000Y-119054388D01*
X174005565Y-119008032D01*
X174017296Y-118969362D01*
X174036346Y-118933723D01*
X174061983Y-118902483D01*
X174093223Y-118876846D01*
X174128862Y-118857796D01*
X174167532Y-118846065D01*
X174213888Y-118841500D01*
X175290112Y-118841500D01*
X175336468Y-118846065D01*
G37*
G36*
X177226000Y-119539000D02*
G01*
X176474000Y-119539000D01*
X176474000Y-118377000D01*
X177226000Y-118377000D01*
X177226000Y-119539000D01*
G37*
G36*
X179126000Y-119539000D02*
G01*
X178374000Y-119539000D01*
X178374000Y-118377000D01*
X179126000Y-118377000D01*
X179126000Y-119539000D01*
G37*
G36*
X169155000Y-119523000D02*
G01*
X168153000Y-119523000D01*
X168153000Y-118221000D01*
X169155000Y-118221000D01*
X169155000Y-119523000D01*
G37*
G36*
X165855000Y-119523000D02*
G01*
X164853000Y-119523000D01*
X164853000Y-118221000D01*
X165855000Y-118221000D01*
X165855000Y-119523000D01*
G37*
G36*
X163679000Y-119403000D02*
G01*
X162457000Y-119403000D01*
X162457000Y-118341000D01*
X163679000Y-118341000D01*
X163679000Y-119403000D01*
G37*
G36*
X154535000Y-119403000D02*
G01*
X153313000Y-119403000D01*
X153313000Y-118341000D01*
X154535000Y-118341000D01*
X154535000Y-119403000D01*
G37*
G36*
X172542468Y-118181065D02*
G01*
X172581138Y-118192796D01*
X172616777Y-118211846D01*
X172648017Y-118237483D01*
X172673654Y-118268723D01*
X172692704Y-118304362D01*
X172704435Y-118343032D01*
X172709000Y-118389388D01*
X172709000Y-119040612D01*
X172704435Y-119086968D01*
X172692704Y-119125638D01*
X172673654Y-119161277D01*
X172648017Y-119192517D01*
X172616777Y-119218154D01*
X172581138Y-119237204D01*
X172542468Y-119248935D01*
X172496112Y-119253500D01*
X171419888Y-119253500D01*
X171373532Y-119248935D01*
X171334862Y-119237204D01*
X171299223Y-119218154D01*
X171267983Y-119192517D01*
X171242346Y-119161277D01*
X171223296Y-119125638D01*
X171211565Y-119086968D01*
X171207000Y-119040612D01*
X171207000Y-118389388D01*
X171211565Y-118343032D01*
X171223296Y-118304362D01*
X171242346Y-118268723D01*
X171267983Y-118237483D01*
X171299223Y-118211846D01*
X171334862Y-118192796D01*
X171373532Y-118181065D01*
X171419888Y-118176500D01*
X172496112Y-118176500D01*
X172542468Y-118181065D01*
G37*
G36*
X144602468Y-117673065D02*
G01*
X144641138Y-117684796D01*
X144676777Y-117703846D01*
X144708017Y-117729483D01*
X144733654Y-117760723D01*
X144752704Y-117796362D01*
X144764435Y-117835032D01*
X144769000Y-117881388D01*
X144769000Y-118532612D01*
X144764435Y-118578968D01*
X144752704Y-118617638D01*
X144733654Y-118653277D01*
X144708017Y-118684517D01*
X144676777Y-118710154D01*
X144641138Y-118729204D01*
X144602468Y-118740935D01*
X144556112Y-118745500D01*
X143479888Y-118745500D01*
X143433532Y-118740935D01*
X143394862Y-118729204D01*
X143359223Y-118710154D01*
X143327983Y-118684517D01*
X143302346Y-118653277D01*
X143283296Y-118617638D01*
X143271565Y-118578968D01*
X143267000Y-118532612D01*
X143267000Y-117881388D01*
X143271565Y-117835032D01*
X143283296Y-117796362D01*
X143302346Y-117760723D01*
X143327983Y-117729483D01*
X143359223Y-117703846D01*
X143394862Y-117684796D01*
X143433532Y-117673065D01*
X143479888Y-117668500D01*
X144556112Y-117668500D01*
X144602468Y-117673065D01*
G37*
G36*
X151714468Y-117673065D02*
G01*
X151753138Y-117684796D01*
X151788777Y-117703846D01*
X151820017Y-117729483D01*
X151845654Y-117760723D01*
X151864704Y-117796362D01*
X151876435Y-117835032D01*
X151881000Y-117881388D01*
X151881000Y-118532612D01*
X151876435Y-118578968D01*
X151864704Y-118617638D01*
X151845654Y-118653277D01*
X151820017Y-118684517D01*
X151788777Y-118710154D01*
X151753138Y-118729204D01*
X151714468Y-118740935D01*
X151668112Y-118745500D01*
X150591888Y-118745500D01*
X150545532Y-118740935D01*
X150506862Y-118729204D01*
X150471223Y-118710154D01*
X150439983Y-118684517D01*
X150414346Y-118653277D01*
X150395296Y-118617638D01*
X150383565Y-118578968D01*
X150379000Y-118532612D01*
X150379000Y-117881388D01*
X150383565Y-117835032D01*
X150395296Y-117796362D01*
X150414346Y-117760723D01*
X150439983Y-117729483D01*
X150471223Y-117703846D01*
X150506862Y-117684796D01*
X150545532Y-117673065D01*
X150591888Y-117668500D01*
X151668112Y-117668500D01*
X151714468Y-117673065D01*
G37*
G36*
X149425000Y-117658000D02*
G01*
X148263000Y-117658000D01*
X148263000Y-115006000D01*
X149425000Y-115006000D01*
X149425000Y-117658000D01*
G37*
G36*
X147225000Y-117658000D02*
G01*
X146063000Y-117658000D01*
X146063000Y-116906000D01*
X147225000Y-116906000D01*
X147225000Y-117658000D01*
G37*
G36*
X176998968Y-116093565D02*
G01*
X177037638Y-116105296D01*
X177073277Y-116124346D01*
X177104517Y-116149983D01*
X177130154Y-116181223D01*
X177149204Y-116216862D01*
X177160935Y-116255532D01*
X177165500Y-116301888D01*
X177165500Y-117378112D01*
X177160935Y-117424468D01*
X177149204Y-117463138D01*
X177130154Y-117498777D01*
X177104517Y-117530017D01*
X177073277Y-117555654D01*
X177037638Y-117574704D01*
X176998968Y-117586435D01*
X176952612Y-117591000D01*
X176301388Y-117591000D01*
X176255032Y-117586435D01*
X176216362Y-117574704D01*
X176180723Y-117555654D01*
X176149483Y-117530017D01*
X176123846Y-117498777D01*
X176104796Y-117463138D01*
X176093065Y-117424468D01*
X176088500Y-117378112D01*
X176088500Y-116301888D01*
X176093065Y-116255532D01*
X176104796Y-116216862D01*
X176123846Y-116181223D01*
X176149483Y-116149983D01*
X176180723Y-116124346D01*
X176216362Y-116105296D01*
X176255032Y-116093565D01*
X176301388Y-116089000D01*
X176952612Y-116089000D01*
X176998968Y-116093565D01*
G37*
G36*
X175123968Y-116093565D02*
G01*
X175162638Y-116105296D01*
X175198277Y-116124346D01*
X175229517Y-116149983D01*
X175255154Y-116181223D01*
X175274204Y-116216862D01*
X175285935Y-116255532D01*
X175290500Y-116301888D01*
X175290500Y-117378112D01*
X175285935Y-117424468D01*
X175274204Y-117463138D01*
X175255154Y-117498777D01*
X175229517Y-117530017D01*
X175198277Y-117555654D01*
X175162638Y-117574704D01*
X175123968Y-117586435D01*
X175077612Y-117591000D01*
X174426388Y-117591000D01*
X174380032Y-117586435D01*
X174341362Y-117574704D01*
X174305723Y-117555654D01*
X174274483Y-117530017D01*
X174248846Y-117498777D01*
X174229796Y-117463138D01*
X174218065Y-117424468D01*
X174213500Y-117378112D01*
X174213500Y-116301888D01*
X174218065Y-116255532D01*
X174229796Y-116216862D01*
X174248846Y-116181223D01*
X174274483Y-116149983D01*
X174305723Y-116124346D01*
X174341362Y-116105296D01*
X174380032Y-116093565D01*
X174426388Y-116089000D01*
X175077612Y-116089000D01*
X175123968Y-116093565D01*
G37*
G36*
X172542468Y-116306065D02*
G01*
X172581138Y-116317796D01*
X172616777Y-116336846D01*
X172648017Y-116362483D01*
X172673654Y-116393723D01*
X172692704Y-116429362D01*
X172704435Y-116468032D01*
X172709000Y-116514388D01*
X172709000Y-117165612D01*
X172704435Y-117211968D01*
X172692704Y-117250638D01*
X172673654Y-117286277D01*
X172648017Y-117317517D01*
X172616777Y-117343154D01*
X172581138Y-117362204D01*
X172542468Y-117373935D01*
X172496112Y-117378500D01*
X171419888Y-117378500D01*
X171373532Y-117373935D01*
X171334862Y-117362204D01*
X171299223Y-117343154D01*
X171267983Y-117317517D01*
X171242346Y-117286277D01*
X171223296Y-117250638D01*
X171211565Y-117211968D01*
X171207000Y-117165612D01*
X171207000Y-116514388D01*
X171211565Y-116468032D01*
X171223296Y-116429362D01*
X171242346Y-116393723D01*
X171267983Y-116362483D01*
X171299223Y-116336846D01*
X171334862Y-116317796D01*
X171373532Y-116306065D01*
X171419888Y-116301500D01*
X172496112Y-116301500D01*
X172542468Y-116306065D01*
G37*
G36*
X151714468Y-115798065D02*
G01*
X151753138Y-115809796D01*
X151788777Y-115828846D01*
X151820017Y-115854483D01*
X151845654Y-115885723D01*
X151864704Y-115921362D01*
X151876435Y-115960032D01*
X151881000Y-116006388D01*
X151881000Y-116657612D01*
X151876435Y-116703968D01*
X151864704Y-116742638D01*
X151845654Y-116778277D01*
X151820017Y-116809517D01*
X151788777Y-116835154D01*
X151753138Y-116854204D01*
X151714468Y-116865935D01*
X151668112Y-116870500D01*
X150591888Y-116870500D01*
X150545532Y-116865935D01*
X150506862Y-116854204D01*
X150471223Y-116835154D01*
X150439983Y-116809517D01*
X150414346Y-116778277D01*
X150395296Y-116742638D01*
X150383565Y-116703968D01*
X150379000Y-116657612D01*
X150379000Y-116006388D01*
X150383565Y-115960032D01*
X150395296Y-115921362D01*
X150414346Y-115885723D01*
X150439983Y-115854483D01*
X150471223Y-115828846D01*
X150506862Y-115809796D01*
X150545532Y-115798065D01*
X150591888Y-115793500D01*
X151668112Y-115793500D01*
X151714468Y-115798065D01*
G37*
G36*
X144602468Y-115798065D02*
G01*
X144641138Y-115809796D01*
X144676777Y-115828846D01*
X144708017Y-115854483D01*
X144733654Y-115885723D01*
X144752704Y-115921362D01*
X144764435Y-115960032D01*
X144769000Y-116006388D01*
X144769000Y-116657612D01*
X144764435Y-116703968D01*
X144752704Y-116742638D01*
X144733654Y-116778277D01*
X144708017Y-116809517D01*
X144676777Y-116835154D01*
X144641138Y-116854204D01*
X144602468Y-116865935D01*
X144556112Y-116870500D01*
X143479888Y-116870500D01*
X143433532Y-116865935D01*
X143394862Y-116854204D01*
X143359223Y-116835154D01*
X143327983Y-116809517D01*
X143302346Y-116778277D01*
X143283296Y-116742638D01*
X143271565Y-116703968D01*
X143267000Y-116657612D01*
X143267000Y-116006388D01*
X143271565Y-115960032D01*
X143283296Y-115921362D01*
X143302346Y-115885723D01*
X143327983Y-115854483D01*
X143359223Y-115828846D01*
X143394862Y-115809796D01*
X143433532Y-115798065D01*
X143479888Y-115793500D01*
X144556112Y-115793500D01*
X144602468Y-115798065D01*
G37*
G36*
X154535000Y-116863000D02*
G01*
X153313000Y-116863000D01*
X153313000Y-115801000D01*
X154535000Y-115801000D01*
X154535000Y-116863000D01*
G37*
G36*
X163679000Y-116863000D02*
G01*
X162457000Y-116863000D01*
X162457000Y-115801000D01*
X163679000Y-115801000D01*
X163679000Y-116863000D01*
G37*
G36*
X147225000Y-115758000D02*
G01*
X146063000Y-115758000D01*
X146063000Y-115006000D01*
X147225000Y-115006000D01*
X147225000Y-115758000D01*
G37*
G36*
X165855000Y-114443000D02*
G01*
X164853000Y-114443000D01*
X164853000Y-113141000D01*
X165855000Y-113141000D01*
X165855000Y-114443000D01*
G37*
G36*
X169155000Y-114443000D02*
G01*
X168153000Y-114443000D01*
X168153000Y-113141000D01*
X169155000Y-113141000D01*
X169155000Y-114443000D01*
G37*
G36*
X163679000Y-114323000D02*
G01*
X162457000Y-114323000D01*
X162457000Y-113261000D01*
X163679000Y-113261000D01*
X163679000Y-114323000D01*
G37*
G36*
X154535000Y-114323000D02*
G01*
X153313000Y-114323000D01*
X153313000Y-113261000D01*
X154535000Y-113261000D01*
X154535000Y-114323000D01*
G37*
G36*
X138293968Y-109489565D02*
G01*
X138332638Y-109501296D01*
X138368277Y-109520346D01*
X138399517Y-109545983D01*
X138425154Y-109577223D01*
X138444204Y-109612862D01*
X138455935Y-109651532D01*
X138460500Y-109697888D01*
X138460500Y-110774112D01*
X138455935Y-110820468D01*
X138444204Y-110859138D01*
X138425154Y-110894777D01*
X138399517Y-110926017D01*
X138368277Y-110951654D01*
X138332638Y-110970704D01*
X138293968Y-110982435D01*
X138247612Y-110987000D01*
X137596388Y-110987000D01*
X137550032Y-110982435D01*
X137511362Y-110970704D01*
X137475723Y-110951654D01*
X137444483Y-110926017D01*
X137418846Y-110894777D01*
X137399796Y-110859138D01*
X137388065Y-110820468D01*
X137383500Y-110774112D01*
X137383500Y-109697888D01*
X137388065Y-109651532D01*
X137399796Y-109612862D01*
X137418846Y-109577223D01*
X137444483Y-109545983D01*
X137475723Y-109520346D01*
X137511362Y-109501296D01*
X137550032Y-109489565D01*
X137596388Y-109485000D01*
X138247612Y-109485000D01*
X138293968Y-109489565D01*
G37*
G36*
X140168968Y-109489565D02*
G01*
X140207638Y-109501296D01*
X140243277Y-109520346D01*
X140274517Y-109545983D01*
X140300154Y-109577223D01*
X140319204Y-109612862D01*
X140330935Y-109651532D01*
X140335500Y-109697888D01*
X140335500Y-110774112D01*
X140330935Y-110820468D01*
X140319204Y-110859138D01*
X140300154Y-110894777D01*
X140274517Y-110926017D01*
X140243277Y-110951654D01*
X140207638Y-110970704D01*
X140168968Y-110982435D01*
X140122612Y-110987000D01*
X139471388Y-110987000D01*
X139425032Y-110982435D01*
X139386362Y-110970704D01*
X139350723Y-110951654D01*
X139319483Y-110926017D01*
X139293846Y-110894777D01*
X139274796Y-110859138D01*
X139263065Y-110820468D01*
X139258500Y-110774112D01*
X139258500Y-109697888D01*
X139263065Y-109651532D01*
X139274796Y-109612862D01*
X139293846Y-109577223D01*
X139319483Y-109545983D01*
X139350723Y-109520346D01*
X139386362Y-109501296D01*
X139425032Y-109489565D01*
X139471388Y-109485000D01*
X140122612Y-109485000D01*
X140168968Y-109489565D01*
G37*
G36*
X186487000Y-110461000D02*
G01*
X181305000Y-110461000D01*
X181305000Y-108859000D01*
X186487000Y-108859000D01*
X186487000Y-110461000D01*
G37*
G36*
X130028228Y-107949483D02*
G01*
X130216922Y-108006723D01*
X130390815Y-108099671D01*
X130543239Y-108224761D01*
X130668329Y-108377185D01*
X130761277Y-108551078D01*
X130818517Y-108739772D01*
X130837843Y-108936000D01*
X130818517Y-109132228D01*
X130761277Y-109320922D01*
X130668329Y-109494815D01*
X130543239Y-109647239D01*
X130390815Y-109772329D01*
X130216922Y-109865277D01*
X130028228Y-109922517D01*
X129881175Y-109937000D01*
X128182825Y-109937000D01*
X128035772Y-109922517D01*
X127847078Y-109865277D01*
X127673185Y-109772329D01*
X127520761Y-109647239D01*
X127395671Y-109494815D01*
X127302723Y-109320922D01*
X127245483Y-109132228D01*
X127226157Y-108936000D01*
X127245483Y-108739772D01*
X127302723Y-108551078D01*
X127395671Y-108377185D01*
X127520761Y-108224761D01*
X127673185Y-108099671D01*
X127847078Y-108006723D01*
X128035772Y-107949483D01*
X128182825Y-107935000D01*
X129881175Y-107935000D01*
X130028228Y-107949483D01*
G37*
G36*
X168007000Y-109530000D02*
G01*
X166685000Y-109530000D01*
X166685000Y-108778000D01*
X168007000Y-108778000D01*
X168007000Y-109530000D01*
G37*
G36*
X170627000Y-109530000D02*
G01*
X169305000Y-109530000D01*
X169305000Y-106878000D01*
X170627000Y-106878000D01*
X170627000Y-109530000D01*
G37*
G36*
X138673000Y-108387000D02*
G01*
X137511000Y-108387000D01*
X137511000Y-105735000D01*
X138673000Y-105735000D01*
X138673000Y-108387000D01*
G37*
G36*
X140873000Y-108387000D02*
G01*
X139711000Y-108387000D01*
X139711000Y-105735000D01*
X140873000Y-105735000D01*
X140873000Y-108387000D01*
G37*
G36*
X148610968Y-106187565D02*
G01*
X148649638Y-106199296D01*
X148685277Y-106218346D01*
X148716517Y-106243983D01*
X148742154Y-106275223D01*
X148761204Y-106310862D01*
X148772935Y-106349532D01*
X148777500Y-106395888D01*
X148777500Y-107472112D01*
X148772935Y-107518468D01*
X148761204Y-107557138D01*
X148742154Y-107592777D01*
X148716517Y-107624017D01*
X148685277Y-107649654D01*
X148649638Y-107668704D01*
X148610968Y-107680435D01*
X148564612Y-107685000D01*
X147913388Y-107685000D01*
X147867032Y-107680435D01*
X147828362Y-107668704D01*
X147792723Y-107649654D01*
X147761483Y-107624017D01*
X147735846Y-107592777D01*
X147716796Y-107557138D01*
X147705065Y-107518468D01*
X147700500Y-107472112D01*
X147700500Y-106395888D01*
X147705065Y-106349532D01*
X147716796Y-106310862D01*
X147735846Y-106275223D01*
X147761483Y-106243983D01*
X147792723Y-106218346D01*
X147828362Y-106199296D01*
X147867032Y-106187565D01*
X147913388Y-106183000D01*
X148564612Y-106183000D01*
X148610968Y-106187565D01*
G37*
G36*
X150485968Y-106187565D02*
G01*
X150524638Y-106199296D01*
X150560277Y-106218346D01*
X150591517Y-106243983D01*
X150617154Y-106275223D01*
X150636204Y-106310862D01*
X150647935Y-106349532D01*
X150652500Y-106395888D01*
X150652500Y-107472112D01*
X150647935Y-107518468D01*
X150636204Y-107557138D01*
X150617154Y-107592777D01*
X150591517Y-107624017D01*
X150560277Y-107649654D01*
X150524638Y-107668704D01*
X150485968Y-107680435D01*
X150439612Y-107685000D01*
X149788388Y-107685000D01*
X149742032Y-107680435D01*
X149703362Y-107668704D01*
X149667723Y-107649654D01*
X149636483Y-107624017D01*
X149610846Y-107592777D01*
X149591796Y-107557138D01*
X149580065Y-107518468D01*
X149575500Y-107472112D01*
X149575500Y-106395888D01*
X149580065Y-106349532D01*
X149591796Y-106310862D01*
X149610846Y-106275223D01*
X149636483Y-106243983D01*
X149667723Y-106218346D01*
X149703362Y-106199296D01*
X149742032Y-106187565D01*
X149788388Y-106183000D01*
X150439612Y-106183000D01*
X150485968Y-106187565D01*
G37*
G36*
X168007000Y-107630000D02*
G01*
X166685000Y-107630000D01*
X166685000Y-106878000D01*
X168007000Y-106878000D01*
X168007000Y-107630000D01*
G37*
G36*
X135966468Y-106497065D02*
G01*
X136005138Y-106508796D01*
X136040777Y-106527846D01*
X136072017Y-106553483D01*
X136097654Y-106584723D01*
X136116704Y-106620362D01*
X136128435Y-106659032D01*
X136133000Y-106705388D01*
X136133000Y-107356612D01*
X136128435Y-107402968D01*
X136116704Y-107441638D01*
X136097654Y-107477277D01*
X136072017Y-107508517D01*
X136040777Y-107534154D01*
X136005138Y-107553204D01*
X135966468Y-107564935D01*
X135920112Y-107569500D01*
X134843888Y-107569500D01*
X134797532Y-107564935D01*
X134758862Y-107553204D01*
X134723223Y-107534154D01*
X134691983Y-107508517D01*
X134666346Y-107477277D01*
X134647296Y-107441638D01*
X134635565Y-107402968D01*
X134631000Y-107356612D01*
X134631000Y-106705388D01*
X134635565Y-106659032D01*
X134647296Y-106620362D01*
X134666346Y-106584723D01*
X134691983Y-106553483D01*
X134723223Y-106527846D01*
X134758862Y-106508796D01*
X134797532Y-106497065D01*
X134843888Y-106492500D01*
X135920112Y-106492500D01*
X135966468Y-106497065D01*
G37*
G36*
X163672000Y-107564000D02*
G01*
X162020000Y-107564000D01*
X162020000Y-106812000D01*
X163672000Y-106812000D01*
X163672000Y-107564000D01*
G37*
G36*
X154972000Y-107564000D02*
G01*
X153320000Y-107564000D01*
X153320000Y-106812000D01*
X154972000Y-106812000D01*
X154972000Y-107564000D01*
G37*
G36*
X133083000Y-107337000D02*
G01*
X130481000Y-107337000D01*
X130481000Y-106135000D01*
X133083000Y-106135000D01*
X133083000Y-107337000D01*
G37*
G36*
X186487000Y-106211000D02*
G01*
X181305000Y-106211000D01*
X181305000Y-104609000D01*
X186487000Y-104609000D01*
X186487000Y-106211000D01*
G37*
G36*
X170805968Y-104663565D02*
G01*
X170844638Y-104675296D01*
X170880277Y-104694346D01*
X170911517Y-104719983D01*
X170937154Y-104751223D01*
X170956204Y-104786862D01*
X170967935Y-104825532D01*
X170972500Y-104871888D01*
X170972500Y-105948112D01*
X170967935Y-105994468D01*
X170956204Y-106033138D01*
X170937154Y-106068777D01*
X170911517Y-106100017D01*
X170880277Y-106125654D01*
X170844638Y-106144704D01*
X170805968Y-106156435D01*
X170759612Y-106161000D01*
X170108388Y-106161000D01*
X170062032Y-106156435D01*
X170023362Y-106144704D01*
X169987723Y-106125654D01*
X169956483Y-106100017D01*
X169930846Y-106068777D01*
X169911796Y-106033138D01*
X169900065Y-105994468D01*
X169895500Y-105948112D01*
X169895500Y-104871888D01*
X169900065Y-104825532D01*
X169911796Y-104786862D01*
X169930846Y-104751223D01*
X169956483Y-104719983D01*
X169987723Y-104694346D01*
X170023362Y-104675296D01*
X170062032Y-104663565D01*
X170108388Y-104659000D01*
X170759612Y-104659000D01*
X170805968Y-104663565D01*
G37*
G36*
X168930968Y-104663565D02*
G01*
X168969638Y-104675296D01*
X169005277Y-104694346D01*
X169036517Y-104719983D01*
X169062154Y-104751223D01*
X169081204Y-104786862D01*
X169092935Y-104825532D01*
X169097500Y-104871888D01*
X169097500Y-105948112D01*
X169092935Y-105994468D01*
X169081204Y-106033138D01*
X169062154Y-106068777D01*
X169036517Y-106100017D01*
X169005277Y-106125654D01*
X168969638Y-106144704D01*
X168930968Y-106156435D01*
X168884612Y-106161000D01*
X168233388Y-106161000D01*
X168187032Y-106156435D01*
X168148362Y-106144704D01*
X168112723Y-106125654D01*
X168081483Y-106100017D01*
X168055846Y-106068777D01*
X168036796Y-106033138D01*
X168025065Y-105994468D01*
X168020500Y-105948112D01*
X168020500Y-104871888D01*
X168025065Y-104825532D01*
X168036796Y-104786862D01*
X168055846Y-104751223D01*
X168081483Y-104719983D01*
X168112723Y-104694346D01*
X168148362Y-104675296D01*
X168187032Y-104663565D01*
X168233388Y-104659000D01*
X168884612Y-104659000D01*
X168930968Y-104663565D01*
G37*
G36*
X129168601Y-104950397D02*
G01*
X129207305Y-104958096D01*
X129239340Y-104971365D01*
X129316680Y-105003400D01*
X129415115Y-105069173D01*
X129498827Y-105152885D01*
X129564600Y-105251320D01*
X129591494Y-105316250D01*
X129609904Y-105360695D01*
X129613447Y-105378505D01*
X129633000Y-105476805D01*
X129633000Y-105595195D01*
X129609904Y-105711304D01*
X129564600Y-105820680D01*
X129498827Y-105919115D01*
X129415115Y-106002827D01*
X129316680Y-106068600D01*
X129240831Y-106100017D01*
X129207305Y-106113904D01*
X129168601Y-106121603D01*
X129091195Y-106137000D01*
X128972805Y-106137000D01*
X128895399Y-106121603D01*
X128856695Y-106113904D01*
X128823169Y-106100017D01*
X128747320Y-106068600D01*
X128648885Y-106002827D01*
X128565173Y-105919115D01*
X128499400Y-105820680D01*
X128454096Y-105711304D01*
X128431000Y-105595195D01*
X128431000Y-105476805D01*
X128450553Y-105378505D01*
X128454096Y-105360695D01*
X128472506Y-105316250D01*
X128499400Y-105251320D01*
X128565173Y-105152885D01*
X128648885Y-105069173D01*
X128747320Y-105003400D01*
X128824660Y-104971365D01*
X128856695Y-104958096D01*
X128895399Y-104950397D01*
X128972805Y-104935000D01*
X129091195Y-104935000D01*
X129168601Y-104950397D01*
G37*
G36*
X165938468Y-105051565D02*
G01*
X165977138Y-105063296D01*
X166012777Y-105082346D01*
X166044017Y-105107983D01*
X166069654Y-105139223D01*
X166088704Y-105174862D01*
X166100435Y-105213532D01*
X166105000Y-105259888D01*
X166105000Y-105911112D01*
X166100435Y-105957468D01*
X166088704Y-105996138D01*
X166069654Y-106031777D01*
X166044017Y-106063017D01*
X166012777Y-106088654D01*
X165977138Y-106107704D01*
X165938468Y-106119435D01*
X165892112Y-106124000D01*
X164815888Y-106124000D01*
X164769532Y-106119435D01*
X164730862Y-106107704D01*
X164695223Y-106088654D01*
X164663983Y-106063017D01*
X164638346Y-106031777D01*
X164619296Y-105996138D01*
X164607565Y-105957468D01*
X164603000Y-105911112D01*
X164603000Y-105259888D01*
X164607565Y-105213532D01*
X164619296Y-105174862D01*
X164638346Y-105139223D01*
X164663983Y-105107983D01*
X164695223Y-105082346D01*
X164730862Y-105063296D01*
X164769532Y-105051565D01*
X164815888Y-105047000D01*
X165892112Y-105047000D01*
X165938468Y-105051565D01*
G37*
G36*
X135966468Y-104622065D02*
G01*
X136005138Y-104633796D01*
X136040777Y-104652846D01*
X136072017Y-104678483D01*
X136097654Y-104709723D01*
X136116704Y-104745362D01*
X136128435Y-104784032D01*
X136133000Y-104830388D01*
X136133000Y-105481612D01*
X136128435Y-105527968D01*
X136116704Y-105566638D01*
X136097654Y-105602277D01*
X136072017Y-105633517D01*
X136040777Y-105659154D01*
X136005138Y-105678204D01*
X135966468Y-105689935D01*
X135920112Y-105694500D01*
X134843888Y-105694500D01*
X134797532Y-105689935D01*
X134758862Y-105678204D01*
X134723223Y-105659154D01*
X134691983Y-105633517D01*
X134666346Y-105602277D01*
X134647296Y-105566638D01*
X134635565Y-105527968D01*
X134631000Y-105481612D01*
X134631000Y-104830388D01*
X134635565Y-104784032D01*
X134647296Y-104745362D01*
X134666346Y-104709723D01*
X134691983Y-104678483D01*
X134723223Y-104652846D01*
X134758862Y-104633796D01*
X134797532Y-104622065D01*
X134843888Y-104617500D01*
X135920112Y-104617500D01*
X135966468Y-104622065D01*
G37*
G36*
X148610968Y-103901565D02*
G01*
X148649638Y-103913296D01*
X148685277Y-103932346D01*
X148716517Y-103957983D01*
X148742154Y-103989223D01*
X148761204Y-104024862D01*
X148772935Y-104063532D01*
X148777500Y-104109888D01*
X148777500Y-105186112D01*
X148772935Y-105232468D01*
X148761204Y-105271138D01*
X148742154Y-105306777D01*
X148716517Y-105338017D01*
X148685277Y-105363654D01*
X148649638Y-105382704D01*
X148610968Y-105394435D01*
X148564612Y-105399000D01*
X147913388Y-105399000D01*
X147867032Y-105394435D01*
X147828362Y-105382704D01*
X147792723Y-105363654D01*
X147761483Y-105338017D01*
X147735846Y-105306777D01*
X147716796Y-105271138D01*
X147705065Y-105232468D01*
X147700500Y-105186112D01*
X147700500Y-104109888D01*
X147705065Y-104063532D01*
X147716796Y-104024862D01*
X147735846Y-103989223D01*
X147761483Y-103957983D01*
X147792723Y-103932346D01*
X147828362Y-103913296D01*
X147867032Y-103901565D01*
X147913388Y-103897000D01*
X148564612Y-103897000D01*
X148610968Y-103901565D01*
G37*
G36*
X150485968Y-103901565D02*
G01*
X150524638Y-103913296D01*
X150560277Y-103932346D01*
X150591517Y-103957983D01*
X150617154Y-103989223D01*
X150636204Y-104024862D01*
X150647935Y-104063532D01*
X150652500Y-104109888D01*
X150652500Y-105186112D01*
X150647935Y-105232468D01*
X150636204Y-105271138D01*
X150617154Y-105306777D01*
X150591517Y-105338017D01*
X150560277Y-105363654D01*
X150524638Y-105382704D01*
X150485968Y-105394435D01*
X150439612Y-105399000D01*
X149788388Y-105399000D01*
X149742032Y-105394435D01*
X149703362Y-105382704D01*
X149667723Y-105363654D01*
X149636483Y-105338017D01*
X149610846Y-105306777D01*
X149591796Y-105271138D01*
X149580065Y-105232468D01*
X149575500Y-105186112D01*
X149575500Y-104109888D01*
X149580065Y-104063532D01*
X149591796Y-104024862D01*
X149610846Y-103989223D01*
X149636483Y-103957983D01*
X149667723Y-103932346D01*
X149703362Y-103913296D01*
X149742032Y-103901565D01*
X149788388Y-103897000D01*
X150439612Y-103897000D01*
X150485968Y-103901565D01*
G37*
G36*
X154972000Y-105024000D02*
G01*
X153320000Y-105024000D01*
X153320000Y-104272000D01*
X154972000Y-104272000D01*
X154972000Y-105024000D01*
G37*
G36*
X163672000Y-105024000D02*
G01*
X162020000Y-105024000D01*
X162020000Y-104272000D01*
X163672000Y-104272000D01*
X163672000Y-105024000D01*
G37*
G36*
X133083000Y-104837000D02*
G01*
X130481000Y-104837000D01*
X130481000Y-103635000D01*
X133083000Y-103635000D01*
X133083000Y-104837000D01*
G37*
G36*
X165938468Y-103176565D02*
G01*
X165977138Y-103188296D01*
X166012777Y-103207346D01*
X166044017Y-103232983D01*
X166069654Y-103264223D01*
X166088704Y-103299862D01*
X166100435Y-103338532D01*
X166105000Y-103384888D01*
X166105000Y-104036112D01*
X166100435Y-104082468D01*
X166088704Y-104121138D01*
X166069654Y-104156777D01*
X166044017Y-104188017D01*
X166012777Y-104213654D01*
X165977138Y-104232704D01*
X165938468Y-104244435D01*
X165892112Y-104249000D01*
X164815888Y-104249000D01*
X164769532Y-104244435D01*
X164730862Y-104232704D01*
X164695223Y-104213654D01*
X164663983Y-104188017D01*
X164638346Y-104156777D01*
X164619296Y-104121138D01*
X164607565Y-104082468D01*
X164603000Y-104036112D01*
X164603000Y-103384888D01*
X164607565Y-103338532D01*
X164619296Y-103299862D01*
X164638346Y-103264223D01*
X164663983Y-103232983D01*
X164695223Y-103207346D01*
X164730862Y-103188296D01*
X164769532Y-103176565D01*
X164815888Y-103172000D01*
X165892112Y-103172000D01*
X165938468Y-103176565D01*
G37*
G36*
X178965000Y-104213000D02*
G01*
X177563000Y-104213000D01*
X177563000Y-102811000D01*
X178965000Y-102811000D01*
X178965000Y-104213000D01*
G37*
G36*
X173465000Y-103413000D02*
G01*
X172063000Y-103413000D01*
X172063000Y-101311000D01*
X173465000Y-101311000D01*
X173465000Y-103413000D01*
G37*
G36*
X168930968Y-101869565D02*
G01*
X168969638Y-101881296D01*
X169005277Y-101900346D01*
X169036517Y-101925983D01*
X169062154Y-101957223D01*
X169081204Y-101992862D01*
X169092935Y-102031532D01*
X169097500Y-102077888D01*
X169097500Y-103154112D01*
X169092935Y-103200468D01*
X169081204Y-103239138D01*
X169062154Y-103274777D01*
X169036517Y-103306017D01*
X169005277Y-103331654D01*
X168969638Y-103350704D01*
X168930968Y-103362435D01*
X168884612Y-103367000D01*
X168233388Y-103367000D01*
X168187032Y-103362435D01*
X168148362Y-103350704D01*
X168112723Y-103331654D01*
X168081483Y-103306017D01*
X168055846Y-103274777D01*
X168036796Y-103239138D01*
X168025065Y-103200468D01*
X168020500Y-103154112D01*
X168020500Y-102077888D01*
X168025065Y-102031532D01*
X168036796Y-101992862D01*
X168055846Y-101957223D01*
X168081483Y-101925983D01*
X168112723Y-101900346D01*
X168148362Y-101881296D01*
X168187032Y-101869565D01*
X168233388Y-101865000D01*
X168884612Y-101865000D01*
X168930968Y-101869565D01*
G37*
G36*
X170805968Y-101869565D02*
G01*
X170844638Y-101881296D01*
X170880277Y-101900346D01*
X170911517Y-101925983D01*
X170937154Y-101957223D01*
X170956204Y-101992862D01*
X170967935Y-102031532D01*
X170972500Y-102077888D01*
X170972500Y-103154112D01*
X170967935Y-103200468D01*
X170956204Y-103239138D01*
X170937154Y-103274777D01*
X170911517Y-103306017D01*
X170880277Y-103331654D01*
X170844638Y-103350704D01*
X170805968Y-103362435D01*
X170759612Y-103367000D01*
X170108388Y-103367000D01*
X170062032Y-103362435D01*
X170023362Y-103350704D01*
X169987723Y-103331654D01*
X169956483Y-103306017D01*
X169930846Y-103274777D01*
X169911796Y-103239138D01*
X169900065Y-103200468D01*
X169895500Y-103154112D01*
X169895500Y-102077888D01*
X169900065Y-102031532D01*
X169911796Y-101992862D01*
X169930846Y-101957223D01*
X169956483Y-101925983D01*
X169987723Y-101900346D01*
X170023362Y-101881296D01*
X170062032Y-101869565D01*
X170108388Y-101865000D01*
X170759612Y-101865000D01*
X170805968Y-101869565D01*
G37*
G36*
X147901000Y-102992000D02*
G01*
X146579000Y-102992000D01*
X146579000Y-100340000D01*
X147901000Y-100340000D01*
X147901000Y-102992000D01*
G37*
G36*
X150521000Y-102992000D02*
G01*
X149199000Y-102992000D01*
X149199000Y-102240000D01*
X150521000Y-102240000D01*
X150521000Y-102992000D01*
G37*
G36*
X133083000Y-102837000D02*
G01*
X130481000Y-102837000D01*
X130481000Y-101635000D01*
X133083000Y-101635000D01*
X133083000Y-102837000D01*
G37*
G36*
X154972000Y-102484000D02*
G01*
X153320000Y-102484000D01*
X153320000Y-101732000D01*
X154972000Y-101732000D01*
X154972000Y-102484000D01*
G37*
G36*
X163672000Y-102484000D02*
G01*
X162020000Y-102484000D01*
X162020000Y-101732000D01*
X163672000Y-101732000D01*
X163672000Y-102484000D01*
G37*
G36*
X186487000Y-101961000D02*
G01*
X181305000Y-101961000D01*
X181305000Y-100359000D01*
X186487000Y-100359000D01*
X186487000Y-101961000D01*
G37*
G36*
X178965000Y-101913000D02*
G01*
X177563000Y-101913000D01*
X177563000Y-100511000D01*
X178965000Y-100511000D01*
X178965000Y-101913000D01*
G37*
G36*
X129168601Y-100350397D02*
G01*
X129207305Y-100358096D01*
X129239340Y-100371365D01*
X129316680Y-100403400D01*
X129415115Y-100469173D01*
X129498827Y-100552885D01*
X129564600Y-100651320D01*
X129596635Y-100728660D01*
X129609904Y-100760695D01*
X129633000Y-100876807D01*
X129633000Y-100995193D01*
X129609904Y-101111305D01*
X129596635Y-101143340D01*
X129564600Y-101220680D01*
X129498827Y-101319115D01*
X129415115Y-101402827D01*
X129316680Y-101468600D01*
X129239340Y-101500635D01*
X129207305Y-101513904D01*
X129168601Y-101521603D01*
X129091195Y-101537000D01*
X128972805Y-101537000D01*
X128895399Y-101521603D01*
X128856695Y-101513904D01*
X128824660Y-101500635D01*
X128747320Y-101468600D01*
X128648885Y-101402827D01*
X128565173Y-101319115D01*
X128499400Y-101220680D01*
X128467365Y-101143340D01*
X128454096Y-101111305D01*
X128431000Y-100995193D01*
X128431000Y-100876807D01*
X128454096Y-100760695D01*
X128467365Y-100728660D01*
X128499400Y-100651320D01*
X128565173Y-100552885D01*
X128648885Y-100469173D01*
X128747320Y-100403400D01*
X128824660Y-100371365D01*
X128856695Y-100358096D01*
X128895399Y-100350397D01*
X128972805Y-100335000D01*
X129091195Y-100335000D01*
X129168601Y-100350397D01*
G37*
G36*
X168930968Y-99837565D02*
G01*
X168969638Y-99849296D01*
X169005277Y-99868346D01*
X169036517Y-99893983D01*
X169062154Y-99925223D01*
X169081204Y-99960862D01*
X169092935Y-99999532D01*
X169097500Y-100045888D01*
X169097500Y-101122112D01*
X169092935Y-101168468D01*
X169081204Y-101207138D01*
X169062154Y-101242777D01*
X169036517Y-101274017D01*
X169005277Y-101299654D01*
X168969638Y-101318704D01*
X168930968Y-101330435D01*
X168884612Y-101335000D01*
X168233388Y-101335000D01*
X168187032Y-101330435D01*
X168148362Y-101318704D01*
X168112723Y-101299654D01*
X168081483Y-101274017D01*
X168055846Y-101242777D01*
X168036796Y-101207138D01*
X168025065Y-101168468D01*
X168020500Y-101122112D01*
X168020500Y-100045888D01*
X168025065Y-99999532D01*
X168036796Y-99960862D01*
X168055846Y-99925223D01*
X168081483Y-99893983D01*
X168112723Y-99868346D01*
X168148362Y-99849296D01*
X168187032Y-99837565D01*
X168233388Y-99833000D01*
X168884612Y-99833000D01*
X168930968Y-99837565D01*
G37*
G36*
X170805968Y-99837565D02*
G01*
X170844638Y-99849296D01*
X170880277Y-99868346D01*
X170911517Y-99893983D01*
X170937154Y-99925223D01*
X170956204Y-99960862D01*
X170967935Y-99999532D01*
X170972500Y-100045888D01*
X170972500Y-101122112D01*
X170967935Y-101168468D01*
X170956204Y-101207138D01*
X170937154Y-101242777D01*
X170911517Y-101274017D01*
X170880277Y-101299654D01*
X170844638Y-101318704D01*
X170805968Y-101330435D01*
X170759612Y-101335000D01*
X170108388Y-101335000D01*
X170062032Y-101330435D01*
X170023362Y-101318704D01*
X169987723Y-101299654D01*
X169956483Y-101274017D01*
X169930846Y-101242777D01*
X169911796Y-101207138D01*
X169900065Y-101168468D01*
X169895500Y-101122112D01*
X169895500Y-100045888D01*
X169900065Y-99999532D01*
X169911796Y-99960862D01*
X169930846Y-99925223D01*
X169956483Y-99893983D01*
X169987723Y-99868346D01*
X170023362Y-99849296D01*
X170062032Y-99837565D01*
X170108388Y-99833000D01*
X170759612Y-99833000D01*
X170805968Y-99837565D01*
G37*
G36*
X150521000Y-101092000D02*
G01*
X149199000Y-101092000D01*
X149199000Y-100340000D01*
X150521000Y-100340000D01*
X150521000Y-101092000D01*
G37*
G36*
X133083000Y-100337000D02*
G01*
X130481000Y-100337000D01*
X130481000Y-99135000D01*
X133083000Y-99135000D01*
X133083000Y-100337000D01*
G37*
G36*
X154972000Y-99944000D02*
G01*
X153320000Y-99944000D01*
X153320000Y-99192000D01*
X154972000Y-99192000D01*
X154972000Y-99944000D01*
G37*
G36*
X163672000Y-99944000D02*
G01*
X162020000Y-99944000D01*
X162020000Y-99192000D01*
X163672000Y-99192000D01*
X163672000Y-99944000D01*
G37*
G36*
X150485968Y-98059565D02*
G01*
X150524638Y-98071296D01*
X150560277Y-98090346D01*
X150591517Y-98115983D01*
X150617154Y-98147223D01*
X150636204Y-98182862D01*
X150647935Y-98221532D01*
X150652500Y-98267888D01*
X150652500Y-99344112D01*
X150647935Y-99390468D01*
X150636204Y-99429138D01*
X150617154Y-99464777D01*
X150591517Y-99496017D01*
X150560277Y-99521654D01*
X150524638Y-99540704D01*
X150485968Y-99552435D01*
X150439612Y-99557000D01*
X149788388Y-99557000D01*
X149742032Y-99552435D01*
X149703362Y-99540704D01*
X149667723Y-99521654D01*
X149636483Y-99496017D01*
X149610846Y-99464777D01*
X149591796Y-99429138D01*
X149580065Y-99390468D01*
X149575500Y-99344112D01*
X149575500Y-98267888D01*
X149580065Y-98221532D01*
X149591796Y-98182862D01*
X149610846Y-98147223D01*
X149636483Y-98115983D01*
X149667723Y-98090346D01*
X149703362Y-98071296D01*
X149742032Y-98059565D01*
X149788388Y-98055000D01*
X150439612Y-98055000D01*
X150485968Y-98059565D01*
G37*
G36*
X148610968Y-98059565D02*
G01*
X148649638Y-98071296D01*
X148685277Y-98090346D01*
X148716517Y-98115983D01*
X148742154Y-98147223D01*
X148761204Y-98182862D01*
X148772935Y-98221532D01*
X148777500Y-98267888D01*
X148777500Y-99344112D01*
X148772935Y-99390468D01*
X148761204Y-99429138D01*
X148742154Y-99464777D01*
X148716517Y-99496017D01*
X148685277Y-99521654D01*
X148649638Y-99540704D01*
X148610968Y-99552435D01*
X148564612Y-99557000D01*
X147913388Y-99557000D01*
X147867032Y-99552435D01*
X147828362Y-99540704D01*
X147792723Y-99521654D01*
X147761483Y-99496017D01*
X147735846Y-99464777D01*
X147716796Y-99429138D01*
X147705065Y-99390468D01*
X147700500Y-99344112D01*
X147700500Y-98267888D01*
X147705065Y-98221532D01*
X147716796Y-98182862D01*
X147735846Y-98147223D01*
X147761483Y-98115983D01*
X147792723Y-98090346D01*
X147828362Y-98071296D01*
X147867032Y-98059565D01*
X147913388Y-98055000D01*
X148564612Y-98055000D01*
X148610968Y-98059565D01*
G37*
G36*
X130028228Y-96549483D02*
G01*
X130216922Y-96606723D01*
X130390815Y-96699671D01*
X130543239Y-96824761D01*
X130668329Y-96977185D01*
X130761277Y-97151078D01*
X130818517Y-97339772D01*
X130837843Y-97536000D01*
X130818517Y-97732228D01*
X130761277Y-97920922D01*
X130668329Y-98094815D01*
X130543239Y-98247239D01*
X130390815Y-98372329D01*
X130216922Y-98465277D01*
X130028228Y-98522517D01*
X129881175Y-98537000D01*
X128182825Y-98537000D01*
X128035772Y-98522517D01*
X127847078Y-98465277D01*
X127673185Y-98372329D01*
X127520761Y-98247239D01*
X127395671Y-98094815D01*
X127302723Y-97920922D01*
X127245483Y-97732228D01*
X127226157Y-97536000D01*
X127245483Y-97339772D01*
X127302723Y-97151078D01*
X127395671Y-96977185D01*
X127520761Y-96824761D01*
X127673185Y-96699671D01*
X127847078Y-96606723D01*
X128035772Y-96549483D01*
X128182825Y-96535000D01*
X129881175Y-96535000D01*
X130028228Y-96549483D01*
G37*
G36*
X183015000Y-94161000D02*
G01*
X180713000Y-94161000D01*
X180713000Y-91259000D01*
X183015000Y-91259000D01*
X183015000Y-94161000D01*
G37*
G36*
X182877512Y-88113927D02*
G01*
X183026812Y-88143624D01*
X183190784Y-88211544D01*
X183338354Y-88310147D01*
X183463853Y-88435646D01*
X183562456Y-88583216D01*
X183630376Y-88747188D01*
X183665000Y-88921259D01*
X183665000Y-89098741D01*
X183630376Y-89272812D01*
X183562456Y-89436784D01*
X183463853Y-89584354D01*
X183338354Y-89709853D01*
X183190784Y-89808456D01*
X183026812Y-89876376D01*
X182877512Y-89906073D01*
X182852742Y-89911000D01*
X182675258Y-89911000D01*
X182650488Y-89906073D01*
X182501188Y-89876376D01*
X182337216Y-89808456D01*
X182189646Y-89709853D01*
X182064147Y-89584354D01*
X181965544Y-89436784D01*
X181897624Y-89272812D01*
X181863000Y-89098741D01*
X181863000Y-88921259D01*
X181897624Y-88747188D01*
X181965544Y-88583216D01*
X182064147Y-88435646D01*
X182189646Y-88310147D01*
X182337216Y-88211544D01*
X182501188Y-88143624D01*
X182650488Y-88113927D01*
X182675258Y-88109000D01*
X182852742Y-88109000D01*
X182877512Y-88113927D01*
G37*
G36*
X175877512Y-88113927D02*
G01*
X176026812Y-88143624D01*
X176190784Y-88211544D01*
X176338354Y-88310147D01*
X176463853Y-88435646D01*
X176562456Y-88583216D01*
X176630376Y-88747188D01*
X176665000Y-88921259D01*
X176665000Y-89098741D01*
X176630376Y-89272812D01*
X176562456Y-89436784D01*
X176463853Y-89584354D01*
X176338354Y-89709853D01*
X176190784Y-89808456D01*
X176026812Y-89876376D01*
X175877512Y-89906073D01*
X175852742Y-89911000D01*
X175675258Y-89911000D01*
X175650488Y-89906073D01*
X175501188Y-89876376D01*
X175337216Y-89808456D01*
X175189646Y-89709853D01*
X175064147Y-89584354D01*
X174965544Y-89436784D01*
X174897624Y-89272812D01*
X174863000Y-89098741D01*
X174863000Y-88921259D01*
X174897624Y-88747188D01*
X174965544Y-88583216D01*
X175064147Y-88435646D01*
X175189646Y-88310147D01*
X175337216Y-88211544D01*
X175501188Y-88143624D01*
X175650488Y-88113927D01*
X175675258Y-88109000D01*
X175852742Y-88109000D01*
X175877512Y-88113927D01*
G37*
G36*
X168110228Y-85795703D02*
G01*
X168265100Y-85859853D01*
X168404481Y-85952985D01*
X168523015Y-86071519D01*
X168616147Y-86210900D01*
X168680297Y-86365772D01*
X168713000Y-86530184D01*
X168713000Y-86697816D01*
X168680297Y-86862228D01*
X168616147Y-87017100D01*
X168523015Y-87156481D01*
X168404481Y-87275015D01*
X168265100Y-87368147D01*
X168110228Y-87432297D01*
X167945816Y-87465000D01*
X167778184Y-87465000D01*
X167613772Y-87432297D01*
X167458900Y-87368147D01*
X167319519Y-87275015D01*
X167200985Y-87156481D01*
X167107853Y-87017100D01*
X167043703Y-86862228D01*
X167011000Y-86697816D01*
X167011000Y-86530184D01*
X167043703Y-86365772D01*
X167107853Y-86210900D01*
X167200985Y-86071519D01*
X167319519Y-85952985D01*
X167458900Y-85859853D01*
X167613772Y-85795703D01*
X167778184Y-85763000D01*
X167945816Y-85763000D01*
X168110228Y-85795703D01*
G37*
G36*
X166713000Y-87465000D02*
G01*
X165011000Y-87465000D01*
X165011000Y-85763000D01*
X166713000Y-85763000D01*
X166713000Y-87465000D01*
G37*
G36*
X185015000Y-86761000D02*
G01*
X182713000Y-86761000D01*
X182713000Y-83859000D01*
X185015000Y-83859000D01*
X185015000Y-86761000D01*
G37*
G36*
X175915000Y-86761000D02*
G01*
X173013000Y-86761000D01*
X173013000Y-83859000D01*
X175915000Y-83859000D01*
X175915000Y-86761000D01*
G37*
M02*
