G04 #@! TF.GenerationSoftware,KiCad,Pcbnew,5.1.5*
G04 #@! TF.CreationDate,2020-06-04T17:32:55-05:00*
G04 #@! TF.ProjectId,Receiver,52656365-6976-4657-922e-6b696361645f,rev?*
G04 #@! TF.SameCoordinates,Original*
G04 #@! TF.FileFunction,Copper,L1,Top*
G04 #@! TF.FilePolarity,Positive*
%FSLAX46Y46*%
G04 Gerber Fmt 4.6, Leading zero omitted, Abs format (unit mm)*
G04 Created by KiCad (PCBNEW 5.1.5) date 2020-06-04 17:32:55*
%MOMM*%
%LPD*%
G04 APERTURE LIST*
%ADD10R,1.060000X0.650000*%
%ADD11C,0.100000*%
%ADD12R,1.600000X1.600000*%
%ADD13C,1.600000*%
%ADD14R,0.900000X1.200000*%
%ADD15R,2.500000X1.100000*%
%ADD16O,3.500000X1.900000*%
%ADD17R,5.080000X1.500000*%
%ADD18R,2.200000X2.800000*%
%ADD19R,2.800000X2.800000*%
%ADD20R,1.300000X1.300000*%
%ADD21R,1.300000X2.000000*%
%ADD22R,1.120000X0.960000*%
%ADD23R,1.220000X0.650000*%
%ADD24R,1.550000X0.650000*%
%ADD25R,0.650000X1.060000*%
%ADD26C,0.800000*%
%ADD27C,0.508000*%
%ADD28C,0.381000*%
%ADD29C,0.508000*%
%ADD30C,0.650000*%
%ADD31C,0.254000*%
G04 APERTURE END LIST*
D10*
X146644000Y-117282000D03*
X146644000Y-115382000D03*
X148844000Y-115382000D03*
X148844000Y-116332000D03*
X148844000Y-117282000D03*
G04 #@! TA.AperFunction,SMDPad,CuDef*
D11*
G36*
X135862142Y-106544674D02*
G01*
X135885803Y-106548184D01*
X135909007Y-106553996D01*
X135931529Y-106562054D01*
X135953153Y-106572282D01*
X135973670Y-106584579D01*
X135992883Y-106598829D01*
X136010607Y-106614893D01*
X136026671Y-106632617D01*
X136040921Y-106651830D01*
X136053218Y-106672347D01*
X136063446Y-106693971D01*
X136071504Y-106716493D01*
X136077316Y-106739697D01*
X136080826Y-106763358D01*
X136082000Y-106787250D01*
X136082000Y-107274750D01*
X136080826Y-107298642D01*
X136077316Y-107322303D01*
X136071504Y-107345507D01*
X136063446Y-107368029D01*
X136053218Y-107389653D01*
X136040921Y-107410170D01*
X136026671Y-107429383D01*
X136010607Y-107447107D01*
X135992883Y-107463171D01*
X135973670Y-107477421D01*
X135953153Y-107489718D01*
X135931529Y-107499946D01*
X135909007Y-107508004D01*
X135885803Y-107513816D01*
X135862142Y-107517326D01*
X135838250Y-107518500D01*
X134925750Y-107518500D01*
X134901858Y-107517326D01*
X134878197Y-107513816D01*
X134854993Y-107508004D01*
X134832471Y-107499946D01*
X134810847Y-107489718D01*
X134790330Y-107477421D01*
X134771117Y-107463171D01*
X134753393Y-107447107D01*
X134737329Y-107429383D01*
X134723079Y-107410170D01*
X134710782Y-107389653D01*
X134700554Y-107368029D01*
X134692496Y-107345507D01*
X134686684Y-107322303D01*
X134683174Y-107298642D01*
X134682000Y-107274750D01*
X134682000Y-106787250D01*
X134683174Y-106763358D01*
X134686684Y-106739697D01*
X134692496Y-106716493D01*
X134700554Y-106693971D01*
X134710782Y-106672347D01*
X134723079Y-106651830D01*
X134737329Y-106632617D01*
X134753393Y-106614893D01*
X134771117Y-106598829D01*
X134790330Y-106584579D01*
X134810847Y-106572282D01*
X134832471Y-106562054D01*
X134854993Y-106553996D01*
X134878197Y-106548184D01*
X134901858Y-106544674D01*
X134925750Y-106543500D01*
X135838250Y-106543500D01*
X135862142Y-106544674D01*
G37*
G04 #@! TD.AperFunction*
G04 #@! TA.AperFunction,SMDPad,CuDef*
G36*
X135862142Y-104669674D02*
G01*
X135885803Y-104673184D01*
X135909007Y-104678996D01*
X135931529Y-104687054D01*
X135953153Y-104697282D01*
X135973670Y-104709579D01*
X135992883Y-104723829D01*
X136010607Y-104739893D01*
X136026671Y-104757617D01*
X136040921Y-104776830D01*
X136053218Y-104797347D01*
X136063446Y-104818971D01*
X136071504Y-104841493D01*
X136077316Y-104864697D01*
X136080826Y-104888358D01*
X136082000Y-104912250D01*
X136082000Y-105399750D01*
X136080826Y-105423642D01*
X136077316Y-105447303D01*
X136071504Y-105470507D01*
X136063446Y-105493029D01*
X136053218Y-105514653D01*
X136040921Y-105535170D01*
X136026671Y-105554383D01*
X136010607Y-105572107D01*
X135992883Y-105588171D01*
X135973670Y-105602421D01*
X135953153Y-105614718D01*
X135931529Y-105624946D01*
X135909007Y-105633004D01*
X135885803Y-105638816D01*
X135862142Y-105642326D01*
X135838250Y-105643500D01*
X134925750Y-105643500D01*
X134901858Y-105642326D01*
X134878197Y-105638816D01*
X134854993Y-105633004D01*
X134832471Y-105624946D01*
X134810847Y-105614718D01*
X134790330Y-105602421D01*
X134771117Y-105588171D01*
X134753393Y-105572107D01*
X134737329Y-105554383D01*
X134723079Y-105535170D01*
X134710782Y-105514653D01*
X134700554Y-105493029D01*
X134692496Y-105470507D01*
X134686684Y-105447303D01*
X134683174Y-105423642D01*
X134682000Y-105399750D01*
X134682000Y-104912250D01*
X134683174Y-104888358D01*
X134686684Y-104864697D01*
X134692496Y-104841493D01*
X134700554Y-104818971D01*
X134710782Y-104797347D01*
X134723079Y-104776830D01*
X134737329Y-104757617D01*
X134753393Y-104739893D01*
X134771117Y-104723829D01*
X134790330Y-104709579D01*
X134810847Y-104697282D01*
X134832471Y-104687054D01*
X134854993Y-104678996D01*
X134878197Y-104673184D01*
X134901858Y-104669674D01*
X134925750Y-104668500D01*
X135838250Y-104668500D01*
X135862142Y-104669674D01*
G37*
G04 #@! TD.AperFunction*
G04 #@! TA.AperFunction,SMDPad,CuDef*
G36*
X144498142Y-115845674D02*
G01*
X144521803Y-115849184D01*
X144545007Y-115854996D01*
X144567529Y-115863054D01*
X144589153Y-115873282D01*
X144609670Y-115885579D01*
X144628883Y-115899829D01*
X144646607Y-115915893D01*
X144662671Y-115933617D01*
X144676921Y-115952830D01*
X144689218Y-115973347D01*
X144699446Y-115994971D01*
X144707504Y-116017493D01*
X144713316Y-116040697D01*
X144716826Y-116064358D01*
X144718000Y-116088250D01*
X144718000Y-116575750D01*
X144716826Y-116599642D01*
X144713316Y-116623303D01*
X144707504Y-116646507D01*
X144699446Y-116669029D01*
X144689218Y-116690653D01*
X144676921Y-116711170D01*
X144662671Y-116730383D01*
X144646607Y-116748107D01*
X144628883Y-116764171D01*
X144609670Y-116778421D01*
X144589153Y-116790718D01*
X144567529Y-116800946D01*
X144545007Y-116809004D01*
X144521803Y-116814816D01*
X144498142Y-116818326D01*
X144474250Y-116819500D01*
X143561750Y-116819500D01*
X143537858Y-116818326D01*
X143514197Y-116814816D01*
X143490993Y-116809004D01*
X143468471Y-116800946D01*
X143446847Y-116790718D01*
X143426330Y-116778421D01*
X143407117Y-116764171D01*
X143389393Y-116748107D01*
X143373329Y-116730383D01*
X143359079Y-116711170D01*
X143346782Y-116690653D01*
X143336554Y-116669029D01*
X143328496Y-116646507D01*
X143322684Y-116623303D01*
X143319174Y-116599642D01*
X143318000Y-116575750D01*
X143318000Y-116088250D01*
X143319174Y-116064358D01*
X143322684Y-116040697D01*
X143328496Y-116017493D01*
X143336554Y-115994971D01*
X143346782Y-115973347D01*
X143359079Y-115952830D01*
X143373329Y-115933617D01*
X143389393Y-115915893D01*
X143407117Y-115899829D01*
X143426330Y-115885579D01*
X143446847Y-115873282D01*
X143468471Y-115863054D01*
X143490993Y-115854996D01*
X143514197Y-115849184D01*
X143537858Y-115845674D01*
X143561750Y-115844500D01*
X144474250Y-115844500D01*
X144498142Y-115845674D01*
G37*
G04 #@! TD.AperFunction*
G04 #@! TA.AperFunction,SMDPad,CuDef*
G36*
X144498142Y-117720674D02*
G01*
X144521803Y-117724184D01*
X144545007Y-117729996D01*
X144567529Y-117738054D01*
X144589153Y-117748282D01*
X144609670Y-117760579D01*
X144628883Y-117774829D01*
X144646607Y-117790893D01*
X144662671Y-117808617D01*
X144676921Y-117827830D01*
X144689218Y-117848347D01*
X144699446Y-117869971D01*
X144707504Y-117892493D01*
X144713316Y-117915697D01*
X144716826Y-117939358D01*
X144718000Y-117963250D01*
X144718000Y-118450750D01*
X144716826Y-118474642D01*
X144713316Y-118498303D01*
X144707504Y-118521507D01*
X144699446Y-118544029D01*
X144689218Y-118565653D01*
X144676921Y-118586170D01*
X144662671Y-118605383D01*
X144646607Y-118623107D01*
X144628883Y-118639171D01*
X144609670Y-118653421D01*
X144589153Y-118665718D01*
X144567529Y-118675946D01*
X144545007Y-118684004D01*
X144521803Y-118689816D01*
X144498142Y-118693326D01*
X144474250Y-118694500D01*
X143561750Y-118694500D01*
X143537858Y-118693326D01*
X143514197Y-118689816D01*
X143490993Y-118684004D01*
X143468471Y-118675946D01*
X143446847Y-118665718D01*
X143426330Y-118653421D01*
X143407117Y-118639171D01*
X143389393Y-118623107D01*
X143373329Y-118605383D01*
X143359079Y-118586170D01*
X143346782Y-118565653D01*
X143336554Y-118544029D01*
X143328496Y-118521507D01*
X143322684Y-118498303D01*
X143319174Y-118474642D01*
X143318000Y-118450750D01*
X143318000Y-117963250D01*
X143319174Y-117939358D01*
X143322684Y-117915697D01*
X143328496Y-117892493D01*
X143336554Y-117869971D01*
X143346782Y-117848347D01*
X143359079Y-117827830D01*
X143373329Y-117808617D01*
X143389393Y-117790893D01*
X143407117Y-117774829D01*
X143426330Y-117760579D01*
X143446847Y-117748282D01*
X143468471Y-117738054D01*
X143490993Y-117729996D01*
X143514197Y-117724184D01*
X143537858Y-117720674D01*
X143561750Y-117719500D01*
X144474250Y-117719500D01*
X144498142Y-117720674D01*
G37*
G04 #@! TD.AperFunction*
G04 #@! TA.AperFunction,SMDPad,CuDef*
G36*
X151610142Y-117720674D02*
G01*
X151633803Y-117724184D01*
X151657007Y-117729996D01*
X151679529Y-117738054D01*
X151701153Y-117748282D01*
X151721670Y-117760579D01*
X151740883Y-117774829D01*
X151758607Y-117790893D01*
X151774671Y-117808617D01*
X151788921Y-117827830D01*
X151801218Y-117848347D01*
X151811446Y-117869971D01*
X151819504Y-117892493D01*
X151825316Y-117915697D01*
X151828826Y-117939358D01*
X151830000Y-117963250D01*
X151830000Y-118450750D01*
X151828826Y-118474642D01*
X151825316Y-118498303D01*
X151819504Y-118521507D01*
X151811446Y-118544029D01*
X151801218Y-118565653D01*
X151788921Y-118586170D01*
X151774671Y-118605383D01*
X151758607Y-118623107D01*
X151740883Y-118639171D01*
X151721670Y-118653421D01*
X151701153Y-118665718D01*
X151679529Y-118675946D01*
X151657007Y-118684004D01*
X151633803Y-118689816D01*
X151610142Y-118693326D01*
X151586250Y-118694500D01*
X150673750Y-118694500D01*
X150649858Y-118693326D01*
X150626197Y-118689816D01*
X150602993Y-118684004D01*
X150580471Y-118675946D01*
X150558847Y-118665718D01*
X150538330Y-118653421D01*
X150519117Y-118639171D01*
X150501393Y-118623107D01*
X150485329Y-118605383D01*
X150471079Y-118586170D01*
X150458782Y-118565653D01*
X150448554Y-118544029D01*
X150440496Y-118521507D01*
X150434684Y-118498303D01*
X150431174Y-118474642D01*
X150430000Y-118450750D01*
X150430000Y-117963250D01*
X150431174Y-117939358D01*
X150434684Y-117915697D01*
X150440496Y-117892493D01*
X150448554Y-117869971D01*
X150458782Y-117848347D01*
X150471079Y-117827830D01*
X150485329Y-117808617D01*
X150501393Y-117790893D01*
X150519117Y-117774829D01*
X150538330Y-117760579D01*
X150558847Y-117748282D01*
X150580471Y-117738054D01*
X150602993Y-117729996D01*
X150626197Y-117724184D01*
X150649858Y-117720674D01*
X150673750Y-117719500D01*
X151586250Y-117719500D01*
X151610142Y-117720674D01*
G37*
G04 #@! TD.AperFunction*
G04 #@! TA.AperFunction,SMDPad,CuDef*
G36*
X151610142Y-115845674D02*
G01*
X151633803Y-115849184D01*
X151657007Y-115854996D01*
X151679529Y-115863054D01*
X151701153Y-115873282D01*
X151721670Y-115885579D01*
X151740883Y-115899829D01*
X151758607Y-115915893D01*
X151774671Y-115933617D01*
X151788921Y-115952830D01*
X151801218Y-115973347D01*
X151811446Y-115994971D01*
X151819504Y-116017493D01*
X151825316Y-116040697D01*
X151828826Y-116064358D01*
X151830000Y-116088250D01*
X151830000Y-116575750D01*
X151828826Y-116599642D01*
X151825316Y-116623303D01*
X151819504Y-116646507D01*
X151811446Y-116669029D01*
X151801218Y-116690653D01*
X151788921Y-116711170D01*
X151774671Y-116730383D01*
X151758607Y-116748107D01*
X151740883Y-116764171D01*
X151721670Y-116778421D01*
X151701153Y-116790718D01*
X151679529Y-116800946D01*
X151657007Y-116809004D01*
X151633803Y-116814816D01*
X151610142Y-116818326D01*
X151586250Y-116819500D01*
X150673750Y-116819500D01*
X150649858Y-116818326D01*
X150626197Y-116814816D01*
X150602993Y-116809004D01*
X150580471Y-116800946D01*
X150558847Y-116790718D01*
X150538330Y-116778421D01*
X150519117Y-116764171D01*
X150501393Y-116748107D01*
X150485329Y-116730383D01*
X150471079Y-116711170D01*
X150458782Y-116690653D01*
X150448554Y-116669029D01*
X150440496Y-116646507D01*
X150434684Y-116623303D01*
X150431174Y-116599642D01*
X150430000Y-116575750D01*
X150430000Y-116088250D01*
X150431174Y-116064358D01*
X150434684Y-116040697D01*
X150440496Y-116017493D01*
X150448554Y-115994971D01*
X150458782Y-115973347D01*
X150471079Y-115952830D01*
X150485329Y-115933617D01*
X150501393Y-115915893D01*
X150519117Y-115899829D01*
X150538330Y-115885579D01*
X150558847Y-115873282D01*
X150580471Y-115863054D01*
X150602993Y-115854996D01*
X150626197Y-115849184D01*
X150649858Y-115845674D01*
X150673750Y-115844500D01*
X151586250Y-115844500D01*
X151610142Y-115845674D01*
G37*
G04 #@! TD.AperFunction*
G04 #@! TA.AperFunction,SMDPad,CuDef*
G36*
X172438142Y-118228674D02*
G01*
X172461803Y-118232184D01*
X172485007Y-118237996D01*
X172507529Y-118246054D01*
X172529153Y-118256282D01*
X172549670Y-118268579D01*
X172568883Y-118282829D01*
X172586607Y-118298893D01*
X172602671Y-118316617D01*
X172616921Y-118335830D01*
X172629218Y-118356347D01*
X172639446Y-118377971D01*
X172647504Y-118400493D01*
X172653316Y-118423697D01*
X172656826Y-118447358D01*
X172658000Y-118471250D01*
X172658000Y-118958750D01*
X172656826Y-118982642D01*
X172653316Y-119006303D01*
X172647504Y-119029507D01*
X172639446Y-119052029D01*
X172629218Y-119073653D01*
X172616921Y-119094170D01*
X172602671Y-119113383D01*
X172586607Y-119131107D01*
X172568883Y-119147171D01*
X172549670Y-119161421D01*
X172529153Y-119173718D01*
X172507529Y-119183946D01*
X172485007Y-119192004D01*
X172461803Y-119197816D01*
X172438142Y-119201326D01*
X172414250Y-119202500D01*
X171501750Y-119202500D01*
X171477858Y-119201326D01*
X171454197Y-119197816D01*
X171430993Y-119192004D01*
X171408471Y-119183946D01*
X171386847Y-119173718D01*
X171366330Y-119161421D01*
X171347117Y-119147171D01*
X171329393Y-119131107D01*
X171313329Y-119113383D01*
X171299079Y-119094170D01*
X171286782Y-119073653D01*
X171276554Y-119052029D01*
X171268496Y-119029507D01*
X171262684Y-119006303D01*
X171259174Y-118982642D01*
X171258000Y-118958750D01*
X171258000Y-118471250D01*
X171259174Y-118447358D01*
X171262684Y-118423697D01*
X171268496Y-118400493D01*
X171276554Y-118377971D01*
X171286782Y-118356347D01*
X171299079Y-118335830D01*
X171313329Y-118316617D01*
X171329393Y-118298893D01*
X171347117Y-118282829D01*
X171366330Y-118268579D01*
X171386847Y-118256282D01*
X171408471Y-118246054D01*
X171430993Y-118237996D01*
X171454197Y-118232184D01*
X171477858Y-118228674D01*
X171501750Y-118227500D01*
X172414250Y-118227500D01*
X172438142Y-118228674D01*
G37*
G04 #@! TD.AperFunction*
G04 #@! TA.AperFunction,SMDPad,CuDef*
G36*
X172438142Y-116353674D02*
G01*
X172461803Y-116357184D01*
X172485007Y-116362996D01*
X172507529Y-116371054D01*
X172529153Y-116381282D01*
X172549670Y-116393579D01*
X172568883Y-116407829D01*
X172586607Y-116423893D01*
X172602671Y-116441617D01*
X172616921Y-116460830D01*
X172629218Y-116481347D01*
X172639446Y-116502971D01*
X172647504Y-116525493D01*
X172653316Y-116548697D01*
X172656826Y-116572358D01*
X172658000Y-116596250D01*
X172658000Y-117083750D01*
X172656826Y-117107642D01*
X172653316Y-117131303D01*
X172647504Y-117154507D01*
X172639446Y-117177029D01*
X172629218Y-117198653D01*
X172616921Y-117219170D01*
X172602671Y-117238383D01*
X172586607Y-117256107D01*
X172568883Y-117272171D01*
X172549670Y-117286421D01*
X172529153Y-117298718D01*
X172507529Y-117308946D01*
X172485007Y-117317004D01*
X172461803Y-117322816D01*
X172438142Y-117326326D01*
X172414250Y-117327500D01*
X171501750Y-117327500D01*
X171477858Y-117326326D01*
X171454197Y-117322816D01*
X171430993Y-117317004D01*
X171408471Y-117308946D01*
X171386847Y-117298718D01*
X171366330Y-117286421D01*
X171347117Y-117272171D01*
X171329393Y-117256107D01*
X171313329Y-117238383D01*
X171299079Y-117219170D01*
X171286782Y-117198653D01*
X171276554Y-117177029D01*
X171268496Y-117154507D01*
X171262684Y-117131303D01*
X171259174Y-117107642D01*
X171258000Y-117083750D01*
X171258000Y-116596250D01*
X171259174Y-116572358D01*
X171262684Y-116548697D01*
X171268496Y-116525493D01*
X171276554Y-116502971D01*
X171286782Y-116481347D01*
X171299079Y-116460830D01*
X171313329Y-116441617D01*
X171329393Y-116423893D01*
X171347117Y-116407829D01*
X171366330Y-116393579D01*
X171386847Y-116381282D01*
X171408471Y-116371054D01*
X171430993Y-116362996D01*
X171454197Y-116357184D01*
X171477858Y-116353674D01*
X171501750Y-116352500D01*
X172414250Y-116352500D01*
X172438142Y-116353674D01*
G37*
G04 #@! TD.AperFunction*
G04 #@! TA.AperFunction,SMDPad,CuDef*
G36*
X175232142Y-118893674D02*
G01*
X175255803Y-118897184D01*
X175279007Y-118902996D01*
X175301529Y-118911054D01*
X175323153Y-118921282D01*
X175343670Y-118933579D01*
X175362883Y-118947829D01*
X175380607Y-118963893D01*
X175396671Y-118981617D01*
X175410921Y-119000830D01*
X175423218Y-119021347D01*
X175433446Y-119042971D01*
X175441504Y-119065493D01*
X175447316Y-119088697D01*
X175450826Y-119112358D01*
X175452000Y-119136250D01*
X175452000Y-119623750D01*
X175450826Y-119647642D01*
X175447316Y-119671303D01*
X175441504Y-119694507D01*
X175433446Y-119717029D01*
X175423218Y-119738653D01*
X175410921Y-119759170D01*
X175396671Y-119778383D01*
X175380607Y-119796107D01*
X175362883Y-119812171D01*
X175343670Y-119826421D01*
X175323153Y-119838718D01*
X175301529Y-119848946D01*
X175279007Y-119857004D01*
X175255803Y-119862816D01*
X175232142Y-119866326D01*
X175208250Y-119867500D01*
X174295750Y-119867500D01*
X174271858Y-119866326D01*
X174248197Y-119862816D01*
X174224993Y-119857004D01*
X174202471Y-119848946D01*
X174180847Y-119838718D01*
X174160330Y-119826421D01*
X174141117Y-119812171D01*
X174123393Y-119796107D01*
X174107329Y-119778383D01*
X174093079Y-119759170D01*
X174080782Y-119738653D01*
X174070554Y-119717029D01*
X174062496Y-119694507D01*
X174056684Y-119671303D01*
X174053174Y-119647642D01*
X174052000Y-119623750D01*
X174052000Y-119136250D01*
X174053174Y-119112358D01*
X174056684Y-119088697D01*
X174062496Y-119065493D01*
X174070554Y-119042971D01*
X174080782Y-119021347D01*
X174093079Y-119000830D01*
X174107329Y-118981617D01*
X174123393Y-118963893D01*
X174141117Y-118947829D01*
X174160330Y-118933579D01*
X174180847Y-118921282D01*
X174202471Y-118911054D01*
X174224993Y-118902996D01*
X174248197Y-118897184D01*
X174271858Y-118893674D01*
X174295750Y-118892500D01*
X175208250Y-118892500D01*
X175232142Y-118893674D01*
G37*
G04 #@! TD.AperFunction*
G04 #@! TA.AperFunction,SMDPad,CuDef*
G36*
X175232142Y-120768674D02*
G01*
X175255803Y-120772184D01*
X175279007Y-120777996D01*
X175301529Y-120786054D01*
X175323153Y-120796282D01*
X175343670Y-120808579D01*
X175362883Y-120822829D01*
X175380607Y-120838893D01*
X175396671Y-120856617D01*
X175410921Y-120875830D01*
X175423218Y-120896347D01*
X175433446Y-120917971D01*
X175441504Y-120940493D01*
X175447316Y-120963697D01*
X175450826Y-120987358D01*
X175452000Y-121011250D01*
X175452000Y-121498750D01*
X175450826Y-121522642D01*
X175447316Y-121546303D01*
X175441504Y-121569507D01*
X175433446Y-121592029D01*
X175423218Y-121613653D01*
X175410921Y-121634170D01*
X175396671Y-121653383D01*
X175380607Y-121671107D01*
X175362883Y-121687171D01*
X175343670Y-121701421D01*
X175323153Y-121713718D01*
X175301529Y-121723946D01*
X175279007Y-121732004D01*
X175255803Y-121737816D01*
X175232142Y-121741326D01*
X175208250Y-121742500D01*
X174295750Y-121742500D01*
X174271858Y-121741326D01*
X174248197Y-121737816D01*
X174224993Y-121732004D01*
X174202471Y-121723946D01*
X174180847Y-121713718D01*
X174160330Y-121701421D01*
X174141117Y-121687171D01*
X174123393Y-121671107D01*
X174107329Y-121653383D01*
X174093079Y-121634170D01*
X174080782Y-121613653D01*
X174070554Y-121592029D01*
X174062496Y-121569507D01*
X174056684Y-121546303D01*
X174053174Y-121522642D01*
X174052000Y-121498750D01*
X174052000Y-121011250D01*
X174053174Y-120987358D01*
X174056684Y-120963697D01*
X174062496Y-120940493D01*
X174070554Y-120917971D01*
X174080782Y-120896347D01*
X174093079Y-120875830D01*
X174107329Y-120856617D01*
X174123393Y-120838893D01*
X174141117Y-120822829D01*
X174160330Y-120808579D01*
X174180847Y-120796282D01*
X174202471Y-120786054D01*
X174224993Y-120777996D01*
X174248197Y-120772184D01*
X174271858Y-120768674D01*
X174295750Y-120767500D01*
X175208250Y-120767500D01*
X175232142Y-120768674D01*
G37*
G04 #@! TD.AperFunction*
G04 #@! TA.AperFunction,SMDPad,CuDef*
G36*
X176894642Y-116141174D02*
G01*
X176918303Y-116144684D01*
X176941507Y-116150496D01*
X176964029Y-116158554D01*
X176985653Y-116168782D01*
X177006170Y-116181079D01*
X177025383Y-116195329D01*
X177043107Y-116211393D01*
X177059171Y-116229117D01*
X177073421Y-116248330D01*
X177085718Y-116268847D01*
X177095946Y-116290471D01*
X177104004Y-116312993D01*
X177109816Y-116336197D01*
X177113326Y-116359858D01*
X177114500Y-116383750D01*
X177114500Y-117296250D01*
X177113326Y-117320142D01*
X177109816Y-117343803D01*
X177104004Y-117367007D01*
X177095946Y-117389529D01*
X177085718Y-117411153D01*
X177073421Y-117431670D01*
X177059171Y-117450883D01*
X177043107Y-117468607D01*
X177025383Y-117484671D01*
X177006170Y-117498921D01*
X176985653Y-117511218D01*
X176964029Y-117521446D01*
X176941507Y-117529504D01*
X176918303Y-117535316D01*
X176894642Y-117538826D01*
X176870750Y-117540000D01*
X176383250Y-117540000D01*
X176359358Y-117538826D01*
X176335697Y-117535316D01*
X176312493Y-117529504D01*
X176289971Y-117521446D01*
X176268347Y-117511218D01*
X176247830Y-117498921D01*
X176228617Y-117484671D01*
X176210893Y-117468607D01*
X176194829Y-117450883D01*
X176180579Y-117431670D01*
X176168282Y-117411153D01*
X176158054Y-117389529D01*
X176149996Y-117367007D01*
X176144184Y-117343803D01*
X176140674Y-117320142D01*
X176139500Y-117296250D01*
X176139500Y-116383750D01*
X176140674Y-116359858D01*
X176144184Y-116336197D01*
X176149996Y-116312993D01*
X176158054Y-116290471D01*
X176168282Y-116268847D01*
X176180579Y-116248330D01*
X176194829Y-116229117D01*
X176210893Y-116211393D01*
X176228617Y-116195329D01*
X176247830Y-116181079D01*
X176268347Y-116168782D01*
X176289971Y-116158554D01*
X176312493Y-116150496D01*
X176335697Y-116144684D01*
X176359358Y-116141174D01*
X176383250Y-116140000D01*
X176870750Y-116140000D01*
X176894642Y-116141174D01*
G37*
G04 #@! TD.AperFunction*
G04 #@! TA.AperFunction,SMDPad,CuDef*
G36*
X175019642Y-116141174D02*
G01*
X175043303Y-116144684D01*
X175066507Y-116150496D01*
X175089029Y-116158554D01*
X175110653Y-116168782D01*
X175131170Y-116181079D01*
X175150383Y-116195329D01*
X175168107Y-116211393D01*
X175184171Y-116229117D01*
X175198421Y-116248330D01*
X175210718Y-116268847D01*
X175220946Y-116290471D01*
X175229004Y-116312993D01*
X175234816Y-116336197D01*
X175238326Y-116359858D01*
X175239500Y-116383750D01*
X175239500Y-117296250D01*
X175238326Y-117320142D01*
X175234816Y-117343803D01*
X175229004Y-117367007D01*
X175220946Y-117389529D01*
X175210718Y-117411153D01*
X175198421Y-117431670D01*
X175184171Y-117450883D01*
X175168107Y-117468607D01*
X175150383Y-117484671D01*
X175131170Y-117498921D01*
X175110653Y-117511218D01*
X175089029Y-117521446D01*
X175066507Y-117529504D01*
X175043303Y-117535316D01*
X175019642Y-117538826D01*
X174995750Y-117540000D01*
X174508250Y-117540000D01*
X174484358Y-117538826D01*
X174460697Y-117535316D01*
X174437493Y-117529504D01*
X174414971Y-117521446D01*
X174393347Y-117511218D01*
X174372830Y-117498921D01*
X174353617Y-117484671D01*
X174335893Y-117468607D01*
X174319829Y-117450883D01*
X174305579Y-117431670D01*
X174293282Y-117411153D01*
X174283054Y-117389529D01*
X174274996Y-117367007D01*
X174269184Y-117343803D01*
X174265674Y-117320142D01*
X174264500Y-117296250D01*
X174264500Y-116383750D01*
X174265674Y-116359858D01*
X174269184Y-116336197D01*
X174274996Y-116312993D01*
X174283054Y-116290471D01*
X174293282Y-116268847D01*
X174305579Y-116248330D01*
X174319829Y-116229117D01*
X174335893Y-116211393D01*
X174353617Y-116195329D01*
X174372830Y-116181079D01*
X174393347Y-116168782D01*
X174414971Y-116158554D01*
X174437493Y-116150496D01*
X174460697Y-116144684D01*
X174484358Y-116141174D01*
X174508250Y-116140000D01*
X174995750Y-116140000D01*
X175019642Y-116141174D01*
G37*
G04 #@! TD.AperFunction*
G04 #@! TA.AperFunction,SMDPad,CuDef*
G36*
X168826642Y-104711174D02*
G01*
X168850303Y-104714684D01*
X168873507Y-104720496D01*
X168896029Y-104728554D01*
X168917653Y-104738782D01*
X168938170Y-104751079D01*
X168957383Y-104765329D01*
X168975107Y-104781393D01*
X168991171Y-104799117D01*
X169005421Y-104818330D01*
X169017718Y-104838847D01*
X169027946Y-104860471D01*
X169036004Y-104882993D01*
X169041816Y-104906197D01*
X169045326Y-104929858D01*
X169046500Y-104953750D01*
X169046500Y-105866250D01*
X169045326Y-105890142D01*
X169041816Y-105913803D01*
X169036004Y-105937007D01*
X169027946Y-105959529D01*
X169017718Y-105981153D01*
X169005421Y-106001670D01*
X168991171Y-106020883D01*
X168975107Y-106038607D01*
X168957383Y-106054671D01*
X168938170Y-106068921D01*
X168917653Y-106081218D01*
X168896029Y-106091446D01*
X168873507Y-106099504D01*
X168850303Y-106105316D01*
X168826642Y-106108826D01*
X168802750Y-106110000D01*
X168315250Y-106110000D01*
X168291358Y-106108826D01*
X168267697Y-106105316D01*
X168244493Y-106099504D01*
X168221971Y-106091446D01*
X168200347Y-106081218D01*
X168179830Y-106068921D01*
X168160617Y-106054671D01*
X168142893Y-106038607D01*
X168126829Y-106020883D01*
X168112579Y-106001670D01*
X168100282Y-105981153D01*
X168090054Y-105959529D01*
X168081996Y-105937007D01*
X168076184Y-105913803D01*
X168072674Y-105890142D01*
X168071500Y-105866250D01*
X168071500Y-104953750D01*
X168072674Y-104929858D01*
X168076184Y-104906197D01*
X168081996Y-104882993D01*
X168090054Y-104860471D01*
X168100282Y-104838847D01*
X168112579Y-104818330D01*
X168126829Y-104799117D01*
X168142893Y-104781393D01*
X168160617Y-104765329D01*
X168179830Y-104751079D01*
X168200347Y-104738782D01*
X168221971Y-104728554D01*
X168244493Y-104720496D01*
X168267697Y-104714684D01*
X168291358Y-104711174D01*
X168315250Y-104710000D01*
X168802750Y-104710000D01*
X168826642Y-104711174D01*
G37*
G04 #@! TD.AperFunction*
G04 #@! TA.AperFunction,SMDPad,CuDef*
G36*
X170701642Y-104711174D02*
G01*
X170725303Y-104714684D01*
X170748507Y-104720496D01*
X170771029Y-104728554D01*
X170792653Y-104738782D01*
X170813170Y-104751079D01*
X170832383Y-104765329D01*
X170850107Y-104781393D01*
X170866171Y-104799117D01*
X170880421Y-104818330D01*
X170892718Y-104838847D01*
X170902946Y-104860471D01*
X170911004Y-104882993D01*
X170916816Y-104906197D01*
X170920326Y-104929858D01*
X170921500Y-104953750D01*
X170921500Y-105866250D01*
X170920326Y-105890142D01*
X170916816Y-105913803D01*
X170911004Y-105937007D01*
X170902946Y-105959529D01*
X170892718Y-105981153D01*
X170880421Y-106001670D01*
X170866171Y-106020883D01*
X170850107Y-106038607D01*
X170832383Y-106054671D01*
X170813170Y-106068921D01*
X170792653Y-106081218D01*
X170771029Y-106091446D01*
X170748507Y-106099504D01*
X170725303Y-106105316D01*
X170701642Y-106108826D01*
X170677750Y-106110000D01*
X170190250Y-106110000D01*
X170166358Y-106108826D01*
X170142697Y-106105316D01*
X170119493Y-106099504D01*
X170096971Y-106091446D01*
X170075347Y-106081218D01*
X170054830Y-106068921D01*
X170035617Y-106054671D01*
X170017893Y-106038607D01*
X170001829Y-106020883D01*
X169987579Y-106001670D01*
X169975282Y-105981153D01*
X169965054Y-105959529D01*
X169956996Y-105937007D01*
X169951184Y-105913803D01*
X169947674Y-105890142D01*
X169946500Y-105866250D01*
X169946500Y-104953750D01*
X169947674Y-104929858D01*
X169951184Y-104906197D01*
X169956996Y-104882993D01*
X169965054Y-104860471D01*
X169975282Y-104838847D01*
X169987579Y-104818330D01*
X170001829Y-104799117D01*
X170017893Y-104781393D01*
X170035617Y-104765329D01*
X170054830Y-104751079D01*
X170075347Y-104738782D01*
X170096971Y-104728554D01*
X170119493Y-104720496D01*
X170142697Y-104714684D01*
X170166358Y-104711174D01*
X170190250Y-104710000D01*
X170677750Y-104710000D01*
X170701642Y-104711174D01*
G37*
G04 #@! TD.AperFunction*
G04 #@! TA.AperFunction,SMDPad,CuDef*
G36*
X165834142Y-105099174D02*
G01*
X165857803Y-105102684D01*
X165881007Y-105108496D01*
X165903529Y-105116554D01*
X165925153Y-105126782D01*
X165945670Y-105139079D01*
X165964883Y-105153329D01*
X165982607Y-105169393D01*
X165998671Y-105187117D01*
X166012921Y-105206330D01*
X166025218Y-105226847D01*
X166035446Y-105248471D01*
X166043504Y-105270993D01*
X166049316Y-105294197D01*
X166052826Y-105317858D01*
X166054000Y-105341750D01*
X166054000Y-105829250D01*
X166052826Y-105853142D01*
X166049316Y-105876803D01*
X166043504Y-105900007D01*
X166035446Y-105922529D01*
X166025218Y-105944153D01*
X166012921Y-105964670D01*
X165998671Y-105983883D01*
X165982607Y-106001607D01*
X165964883Y-106017671D01*
X165945670Y-106031921D01*
X165925153Y-106044218D01*
X165903529Y-106054446D01*
X165881007Y-106062504D01*
X165857803Y-106068316D01*
X165834142Y-106071826D01*
X165810250Y-106073000D01*
X164897750Y-106073000D01*
X164873858Y-106071826D01*
X164850197Y-106068316D01*
X164826993Y-106062504D01*
X164804471Y-106054446D01*
X164782847Y-106044218D01*
X164762330Y-106031921D01*
X164743117Y-106017671D01*
X164725393Y-106001607D01*
X164709329Y-105983883D01*
X164695079Y-105964670D01*
X164682782Y-105944153D01*
X164672554Y-105922529D01*
X164664496Y-105900007D01*
X164658684Y-105876803D01*
X164655174Y-105853142D01*
X164654000Y-105829250D01*
X164654000Y-105341750D01*
X164655174Y-105317858D01*
X164658684Y-105294197D01*
X164664496Y-105270993D01*
X164672554Y-105248471D01*
X164682782Y-105226847D01*
X164695079Y-105206330D01*
X164709329Y-105187117D01*
X164725393Y-105169393D01*
X164743117Y-105153329D01*
X164762330Y-105139079D01*
X164782847Y-105126782D01*
X164804471Y-105116554D01*
X164826993Y-105108496D01*
X164850197Y-105102684D01*
X164873858Y-105099174D01*
X164897750Y-105098000D01*
X165810250Y-105098000D01*
X165834142Y-105099174D01*
G37*
G04 #@! TD.AperFunction*
G04 #@! TA.AperFunction,SMDPad,CuDef*
G36*
X165834142Y-103224174D02*
G01*
X165857803Y-103227684D01*
X165881007Y-103233496D01*
X165903529Y-103241554D01*
X165925153Y-103251782D01*
X165945670Y-103264079D01*
X165964883Y-103278329D01*
X165982607Y-103294393D01*
X165998671Y-103312117D01*
X166012921Y-103331330D01*
X166025218Y-103351847D01*
X166035446Y-103373471D01*
X166043504Y-103395993D01*
X166049316Y-103419197D01*
X166052826Y-103442858D01*
X166054000Y-103466750D01*
X166054000Y-103954250D01*
X166052826Y-103978142D01*
X166049316Y-104001803D01*
X166043504Y-104025007D01*
X166035446Y-104047529D01*
X166025218Y-104069153D01*
X166012921Y-104089670D01*
X165998671Y-104108883D01*
X165982607Y-104126607D01*
X165964883Y-104142671D01*
X165945670Y-104156921D01*
X165925153Y-104169218D01*
X165903529Y-104179446D01*
X165881007Y-104187504D01*
X165857803Y-104193316D01*
X165834142Y-104196826D01*
X165810250Y-104198000D01*
X164897750Y-104198000D01*
X164873858Y-104196826D01*
X164850197Y-104193316D01*
X164826993Y-104187504D01*
X164804471Y-104179446D01*
X164782847Y-104169218D01*
X164762330Y-104156921D01*
X164743117Y-104142671D01*
X164725393Y-104126607D01*
X164709329Y-104108883D01*
X164695079Y-104089670D01*
X164682782Y-104069153D01*
X164672554Y-104047529D01*
X164664496Y-104025007D01*
X164658684Y-104001803D01*
X164655174Y-103978142D01*
X164654000Y-103954250D01*
X164654000Y-103466750D01*
X164655174Y-103442858D01*
X164658684Y-103419197D01*
X164664496Y-103395993D01*
X164672554Y-103373471D01*
X164682782Y-103351847D01*
X164695079Y-103331330D01*
X164709329Y-103312117D01*
X164725393Y-103294393D01*
X164743117Y-103278329D01*
X164762330Y-103264079D01*
X164782847Y-103251782D01*
X164804471Y-103241554D01*
X164826993Y-103233496D01*
X164850197Y-103227684D01*
X164873858Y-103224174D01*
X164897750Y-103223000D01*
X165810250Y-103223000D01*
X165834142Y-103224174D01*
G37*
G04 #@! TD.AperFunction*
G04 #@! TA.AperFunction,SMDPad,CuDef*
G36*
X150381642Y-98107174D02*
G01*
X150405303Y-98110684D01*
X150428507Y-98116496D01*
X150451029Y-98124554D01*
X150472653Y-98134782D01*
X150493170Y-98147079D01*
X150512383Y-98161329D01*
X150530107Y-98177393D01*
X150546171Y-98195117D01*
X150560421Y-98214330D01*
X150572718Y-98234847D01*
X150582946Y-98256471D01*
X150591004Y-98278993D01*
X150596816Y-98302197D01*
X150600326Y-98325858D01*
X150601500Y-98349750D01*
X150601500Y-99262250D01*
X150600326Y-99286142D01*
X150596816Y-99309803D01*
X150591004Y-99333007D01*
X150582946Y-99355529D01*
X150572718Y-99377153D01*
X150560421Y-99397670D01*
X150546171Y-99416883D01*
X150530107Y-99434607D01*
X150512383Y-99450671D01*
X150493170Y-99464921D01*
X150472653Y-99477218D01*
X150451029Y-99487446D01*
X150428507Y-99495504D01*
X150405303Y-99501316D01*
X150381642Y-99504826D01*
X150357750Y-99506000D01*
X149870250Y-99506000D01*
X149846358Y-99504826D01*
X149822697Y-99501316D01*
X149799493Y-99495504D01*
X149776971Y-99487446D01*
X149755347Y-99477218D01*
X149734830Y-99464921D01*
X149715617Y-99450671D01*
X149697893Y-99434607D01*
X149681829Y-99416883D01*
X149667579Y-99397670D01*
X149655282Y-99377153D01*
X149645054Y-99355529D01*
X149636996Y-99333007D01*
X149631184Y-99309803D01*
X149627674Y-99286142D01*
X149626500Y-99262250D01*
X149626500Y-98349750D01*
X149627674Y-98325858D01*
X149631184Y-98302197D01*
X149636996Y-98278993D01*
X149645054Y-98256471D01*
X149655282Y-98234847D01*
X149667579Y-98214330D01*
X149681829Y-98195117D01*
X149697893Y-98177393D01*
X149715617Y-98161329D01*
X149734830Y-98147079D01*
X149755347Y-98134782D01*
X149776971Y-98124554D01*
X149799493Y-98116496D01*
X149822697Y-98110684D01*
X149846358Y-98107174D01*
X149870250Y-98106000D01*
X150357750Y-98106000D01*
X150381642Y-98107174D01*
G37*
G04 #@! TD.AperFunction*
G04 #@! TA.AperFunction,SMDPad,CuDef*
G36*
X148506642Y-98107174D02*
G01*
X148530303Y-98110684D01*
X148553507Y-98116496D01*
X148576029Y-98124554D01*
X148597653Y-98134782D01*
X148618170Y-98147079D01*
X148637383Y-98161329D01*
X148655107Y-98177393D01*
X148671171Y-98195117D01*
X148685421Y-98214330D01*
X148697718Y-98234847D01*
X148707946Y-98256471D01*
X148716004Y-98278993D01*
X148721816Y-98302197D01*
X148725326Y-98325858D01*
X148726500Y-98349750D01*
X148726500Y-99262250D01*
X148725326Y-99286142D01*
X148721816Y-99309803D01*
X148716004Y-99333007D01*
X148707946Y-99355529D01*
X148697718Y-99377153D01*
X148685421Y-99397670D01*
X148671171Y-99416883D01*
X148655107Y-99434607D01*
X148637383Y-99450671D01*
X148618170Y-99464921D01*
X148597653Y-99477218D01*
X148576029Y-99487446D01*
X148553507Y-99495504D01*
X148530303Y-99501316D01*
X148506642Y-99504826D01*
X148482750Y-99506000D01*
X147995250Y-99506000D01*
X147971358Y-99504826D01*
X147947697Y-99501316D01*
X147924493Y-99495504D01*
X147901971Y-99487446D01*
X147880347Y-99477218D01*
X147859830Y-99464921D01*
X147840617Y-99450671D01*
X147822893Y-99434607D01*
X147806829Y-99416883D01*
X147792579Y-99397670D01*
X147780282Y-99377153D01*
X147770054Y-99355529D01*
X147761996Y-99333007D01*
X147756184Y-99309803D01*
X147752674Y-99286142D01*
X147751500Y-99262250D01*
X147751500Y-98349750D01*
X147752674Y-98325858D01*
X147756184Y-98302197D01*
X147761996Y-98278993D01*
X147770054Y-98256471D01*
X147780282Y-98234847D01*
X147792579Y-98214330D01*
X147806829Y-98195117D01*
X147822893Y-98177393D01*
X147840617Y-98161329D01*
X147859830Y-98147079D01*
X147880347Y-98134782D01*
X147901971Y-98124554D01*
X147924493Y-98116496D01*
X147947697Y-98110684D01*
X147971358Y-98107174D01*
X147995250Y-98106000D01*
X148482750Y-98106000D01*
X148506642Y-98107174D01*
G37*
G04 #@! TD.AperFunction*
G04 #@! TA.AperFunction,SMDPad,CuDef*
G36*
X150381642Y-106235174D02*
G01*
X150405303Y-106238684D01*
X150428507Y-106244496D01*
X150451029Y-106252554D01*
X150472653Y-106262782D01*
X150493170Y-106275079D01*
X150512383Y-106289329D01*
X150530107Y-106305393D01*
X150546171Y-106323117D01*
X150560421Y-106342330D01*
X150572718Y-106362847D01*
X150582946Y-106384471D01*
X150591004Y-106406993D01*
X150596816Y-106430197D01*
X150600326Y-106453858D01*
X150601500Y-106477750D01*
X150601500Y-107390250D01*
X150600326Y-107414142D01*
X150596816Y-107437803D01*
X150591004Y-107461007D01*
X150582946Y-107483529D01*
X150572718Y-107505153D01*
X150560421Y-107525670D01*
X150546171Y-107544883D01*
X150530107Y-107562607D01*
X150512383Y-107578671D01*
X150493170Y-107592921D01*
X150472653Y-107605218D01*
X150451029Y-107615446D01*
X150428507Y-107623504D01*
X150405303Y-107629316D01*
X150381642Y-107632826D01*
X150357750Y-107634000D01*
X149870250Y-107634000D01*
X149846358Y-107632826D01*
X149822697Y-107629316D01*
X149799493Y-107623504D01*
X149776971Y-107615446D01*
X149755347Y-107605218D01*
X149734830Y-107592921D01*
X149715617Y-107578671D01*
X149697893Y-107562607D01*
X149681829Y-107544883D01*
X149667579Y-107525670D01*
X149655282Y-107505153D01*
X149645054Y-107483529D01*
X149636996Y-107461007D01*
X149631184Y-107437803D01*
X149627674Y-107414142D01*
X149626500Y-107390250D01*
X149626500Y-106477750D01*
X149627674Y-106453858D01*
X149631184Y-106430197D01*
X149636996Y-106406993D01*
X149645054Y-106384471D01*
X149655282Y-106362847D01*
X149667579Y-106342330D01*
X149681829Y-106323117D01*
X149697893Y-106305393D01*
X149715617Y-106289329D01*
X149734830Y-106275079D01*
X149755347Y-106262782D01*
X149776971Y-106252554D01*
X149799493Y-106244496D01*
X149822697Y-106238684D01*
X149846358Y-106235174D01*
X149870250Y-106234000D01*
X150357750Y-106234000D01*
X150381642Y-106235174D01*
G37*
G04 #@! TD.AperFunction*
G04 #@! TA.AperFunction,SMDPad,CuDef*
G36*
X148506642Y-106235174D02*
G01*
X148530303Y-106238684D01*
X148553507Y-106244496D01*
X148576029Y-106252554D01*
X148597653Y-106262782D01*
X148618170Y-106275079D01*
X148637383Y-106289329D01*
X148655107Y-106305393D01*
X148671171Y-106323117D01*
X148685421Y-106342330D01*
X148697718Y-106362847D01*
X148707946Y-106384471D01*
X148716004Y-106406993D01*
X148721816Y-106430197D01*
X148725326Y-106453858D01*
X148726500Y-106477750D01*
X148726500Y-107390250D01*
X148725326Y-107414142D01*
X148721816Y-107437803D01*
X148716004Y-107461007D01*
X148707946Y-107483529D01*
X148697718Y-107505153D01*
X148685421Y-107525670D01*
X148671171Y-107544883D01*
X148655107Y-107562607D01*
X148637383Y-107578671D01*
X148618170Y-107592921D01*
X148597653Y-107605218D01*
X148576029Y-107615446D01*
X148553507Y-107623504D01*
X148530303Y-107629316D01*
X148506642Y-107632826D01*
X148482750Y-107634000D01*
X147995250Y-107634000D01*
X147971358Y-107632826D01*
X147947697Y-107629316D01*
X147924493Y-107623504D01*
X147901971Y-107615446D01*
X147880347Y-107605218D01*
X147859830Y-107592921D01*
X147840617Y-107578671D01*
X147822893Y-107562607D01*
X147806829Y-107544883D01*
X147792579Y-107525670D01*
X147780282Y-107505153D01*
X147770054Y-107483529D01*
X147761996Y-107461007D01*
X147756184Y-107437803D01*
X147752674Y-107414142D01*
X147751500Y-107390250D01*
X147751500Y-106477750D01*
X147752674Y-106453858D01*
X147756184Y-106430197D01*
X147761996Y-106406993D01*
X147770054Y-106384471D01*
X147780282Y-106362847D01*
X147792579Y-106342330D01*
X147806829Y-106323117D01*
X147822893Y-106305393D01*
X147840617Y-106289329D01*
X147859830Y-106275079D01*
X147880347Y-106262782D01*
X147901971Y-106252554D01*
X147924493Y-106244496D01*
X147947697Y-106238684D01*
X147971358Y-106235174D01*
X147995250Y-106234000D01*
X148482750Y-106234000D01*
X148506642Y-106235174D01*
G37*
G04 #@! TD.AperFunction*
D12*
X165862000Y-86614000D03*
D13*
X167862000Y-86614000D03*
D14*
X168654000Y-113792000D03*
X165354000Y-113792000D03*
X165354000Y-118872000D03*
X168654000Y-118872000D03*
D15*
X131782000Y-104236000D03*
X131782000Y-102236000D03*
X131782000Y-106736000D03*
X131782000Y-99736000D03*
D16*
X129032000Y-108936000D03*
X129032000Y-97536000D03*
D17*
X183896000Y-109660000D03*
X183896000Y-101160000D03*
X183896000Y-105410000D03*
D18*
X181864000Y-92710000D03*
X183864000Y-85310000D03*
D19*
X174464000Y-85310000D03*
G04 #@! TA.AperFunction,SMDPad,CuDef*
D11*
G36*
X140064642Y-109537174D02*
G01*
X140088303Y-109540684D01*
X140111507Y-109546496D01*
X140134029Y-109554554D01*
X140155653Y-109564782D01*
X140176170Y-109577079D01*
X140195383Y-109591329D01*
X140213107Y-109607393D01*
X140229171Y-109625117D01*
X140243421Y-109644330D01*
X140255718Y-109664847D01*
X140265946Y-109686471D01*
X140274004Y-109708993D01*
X140279816Y-109732197D01*
X140283326Y-109755858D01*
X140284500Y-109779750D01*
X140284500Y-110692250D01*
X140283326Y-110716142D01*
X140279816Y-110739803D01*
X140274004Y-110763007D01*
X140265946Y-110785529D01*
X140255718Y-110807153D01*
X140243421Y-110827670D01*
X140229171Y-110846883D01*
X140213107Y-110864607D01*
X140195383Y-110880671D01*
X140176170Y-110894921D01*
X140155653Y-110907218D01*
X140134029Y-110917446D01*
X140111507Y-110925504D01*
X140088303Y-110931316D01*
X140064642Y-110934826D01*
X140040750Y-110936000D01*
X139553250Y-110936000D01*
X139529358Y-110934826D01*
X139505697Y-110931316D01*
X139482493Y-110925504D01*
X139459971Y-110917446D01*
X139438347Y-110907218D01*
X139417830Y-110894921D01*
X139398617Y-110880671D01*
X139380893Y-110864607D01*
X139364829Y-110846883D01*
X139350579Y-110827670D01*
X139338282Y-110807153D01*
X139328054Y-110785529D01*
X139319996Y-110763007D01*
X139314184Y-110739803D01*
X139310674Y-110716142D01*
X139309500Y-110692250D01*
X139309500Y-109779750D01*
X139310674Y-109755858D01*
X139314184Y-109732197D01*
X139319996Y-109708993D01*
X139328054Y-109686471D01*
X139338282Y-109664847D01*
X139350579Y-109644330D01*
X139364829Y-109625117D01*
X139380893Y-109607393D01*
X139398617Y-109591329D01*
X139417830Y-109577079D01*
X139438347Y-109564782D01*
X139459971Y-109554554D01*
X139482493Y-109546496D01*
X139505697Y-109540684D01*
X139529358Y-109537174D01*
X139553250Y-109536000D01*
X140040750Y-109536000D01*
X140064642Y-109537174D01*
G37*
G04 #@! TD.AperFunction*
G04 #@! TA.AperFunction,SMDPad,CuDef*
G36*
X138189642Y-109537174D02*
G01*
X138213303Y-109540684D01*
X138236507Y-109546496D01*
X138259029Y-109554554D01*
X138280653Y-109564782D01*
X138301170Y-109577079D01*
X138320383Y-109591329D01*
X138338107Y-109607393D01*
X138354171Y-109625117D01*
X138368421Y-109644330D01*
X138380718Y-109664847D01*
X138390946Y-109686471D01*
X138399004Y-109708993D01*
X138404816Y-109732197D01*
X138408326Y-109755858D01*
X138409500Y-109779750D01*
X138409500Y-110692250D01*
X138408326Y-110716142D01*
X138404816Y-110739803D01*
X138399004Y-110763007D01*
X138390946Y-110785529D01*
X138380718Y-110807153D01*
X138368421Y-110827670D01*
X138354171Y-110846883D01*
X138338107Y-110864607D01*
X138320383Y-110880671D01*
X138301170Y-110894921D01*
X138280653Y-110907218D01*
X138259029Y-110917446D01*
X138236507Y-110925504D01*
X138213303Y-110931316D01*
X138189642Y-110934826D01*
X138165750Y-110936000D01*
X137678250Y-110936000D01*
X137654358Y-110934826D01*
X137630697Y-110931316D01*
X137607493Y-110925504D01*
X137584971Y-110917446D01*
X137563347Y-110907218D01*
X137542830Y-110894921D01*
X137523617Y-110880671D01*
X137505893Y-110864607D01*
X137489829Y-110846883D01*
X137475579Y-110827670D01*
X137463282Y-110807153D01*
X137453054Y-110785529D01*
X137444996Y-110763007D01*
X137439184Y-110739803D01*
X137435674Y-110716142D01*
X137434500Y-110692250D01*
X137434500Y-109779750D01*
X137435674Y-109755858D01*
X137439184Y-109732197D01*
X137444996Y-109708993D01*
X137453054Y-109686471D01*
X137463282Y-109664847D01*
X137475579Y-109644330D01*
X137489829Y-109625117D01*
X137505893Y-109607393D01*
X137523617Y-109591329D01*
X137542830Y-109577079D01*
X137563347Y-109564782D01*
X137584971Y-109554554D01*
X137607493Y-109546496D01*
X137630697Y-109540684D01*
X137654358Y-109537174D01*
X137678250Y-109536000D01*
X138165750Y-109536000D01*
X138189642Y-109537174D01*
G37*
G04 #@! TD.AperFunction*
G04 #@! TA.AperFunction,SMDPad,CuDef*
G36*
X170701642Y-101917174D02*
G01*
X170725303Y-101920684D01*
X170748507Y-101926496D01*
X170771029Y-101934554D01*
X170792653Y-101944782D01*
X170813170Y-101957079D01*
X170832383Y-101971329D01*
X170850107Y-101987393D01*
X170866171Y-102005117D01*
X170880421Y-102024330D01*
X170892718Y-102044847D01*
X170902946Y-102066471D01*
X170911004Y-102088993D01*
X170916816Y-102112197D01*
X170920326Y-102135858D01*
X170921500Y-102159750D01*
X170921500Y-103072250D01*
X170920326Y-103096142D01*
X170916816Y-103119803D01*
X170911004Y-103143007D01*
X170902946Y-103165529D01*
X170892718Y-103187153D01*
X170880421Y-103207670D01*
X170866171Y-103226883D01*
X170850107Y-103244607D01*
X170832383Y-103260671D01*
X170813170Y-103274921D01*
X170792653Y-103287218D01*
X170771029Y-103297446D01*
X170748507Y-103305504D01*
X170725303Y-103311316D01*
X170701642Y-103314826D01*
X170677750Y-103316000D01*
X170190250Y-103316000D01*
X170166358Y-103314826D01*
X170142697Y-103311316D01*
X170119493Y-103305504D01*
X170096971Y-103297446D01*
X170075347Y-103287218D01*
X170054830Y-103274921D01*
X170035617Y-103260671D01*
X170017893Y-103244607D01*
X170001829Y-103226883D01*
X169987579Y-103207670D01*
X169975282Y-103187153D01*
X169965054Y-103165529D01*
X169956996Y-103143007D01*
X169951184Y-103119803D01*
X169947674Y-103096142D01*
X169946500Y-103072250D01*
X169946500Y-102159750D01*
X169947674Y-102135858D01*
X169951184Y-102112197D01*
X169956996Y-102088993D01*
X169965054Y-102066471D01*
X169975282Y-102044847D01*
X169987579Y-102024330D01*
X170001829Y-102005117D01*
X170017893Y-101987393D01*
X170035617Y-101971329D01*
X170054830Y-101957079D01*
X170075347Y-101944782D01*
X170096971Y-101934554D01*
X170119493Y-101926496D01*
X170142697Y-101920684D01*
X170166358Y-101917174D01*
X170190250Y-101916000D01*
X170677750Y-101916000D01*
X170701642Y-101917174D01*
G37*
G04 #@! TD.AperFunction*
G04 #@! TA.AperFunction,SMDPad,CuDef*
G36*
X168826642Y-101917174D02*
G01*
X168850303Y-101920684D01*
X168873507Y-101926496D01*
X168896029Y-101934554D01*
X168917653Y-101944782D01*
X168938170Y-101957079D01*
X168957383Y-101971329D01*
X168975107Y-101987393D01*
X168991171Y-102005117D01*
X169005421Y-102024330D01*
X169017718Y-102044847D01*
X169027946Y-102066471D01*
X169036004Y-102088993D01*
X169041816Y-102112197D01*
X169045326Y-102135858D01*
X169046500Y-102159750D01*
X169046500Y-103072250D01*
X169045326Y-103096142D01*
X169041816Y-103119803D01*
X169036004Y-103143007D01*
X169027946Y-103165529D01*
X169017718Y-103187153D01*
X169005421Y-103207670D01*
X168991171Y-103226883D01*
X168975107Y-103244607D01*
X168957383Y-103260671D01*
X168938170Y-103274921D01*
X168917653Y-103287218D01*
X168896029Y-103297446D01*
X168873507Y-103305504D01*
X168850303Y-103311316D01*
X168826642Y-103314826D01*
X168802750Y-103316000D01*
X168315250Y-103316000D01*
X168291358Y-103314826D01*
X168267697Y-103311316D01*
X168244493Y-103305504D01*
X168221971Y-103297446D01*
X168200347Y-103287218D01*
X168179830Y-103274921D01*
X168160617Y-103260671D01*
X168142893Y-103244607D01*
X168126829Y-103226883D01*
X168112579Y-103207670D01*
X168100282Y-103187153D01*
X168090054Y-103165529D01*
X168081996Y-103143007D01*
X168076184Y-103119803D01*
X168072674Y-103096142D01*
X168071500Y-103072250D01*
X168071500Y-102159750D01*
X168072674Y-102135858D01*
X168076184Y-102112197D01*
X168081996Y-102088993D01*
X168090054Y-102066471D01*
X168100282Y-102044847D01*
X168112579Y-102024330D01*
X168126829Y-102005117D01*
X168142893Y-101987393D01*
X168160617Y-101971329D01*
X168179830Y-101957079D01*
X168200347Y-101944782D01*
X168221971Y-101934554D01*
X168244493Y-101926496D01*
X168267697Y-101920684D01*
X168291358Y-101917174D01*
X168315250Y-101916000D01*
X168802750Y-101916000D01*
X168826642Y-101917174D01*
G37*
G04 #@! TD.AperFunction*
G04 #@! TA.AperFunction,SMDPad,CuDef*
G36*
X170701642Y-99885174D02*
G01*
X170725303Y-99888684D01*
X170748507Y-99894496D01*
X170771029Y-99902554D01*
X170792653Y-99912782D01*
X170813170Y-99925079D01*
X170832383Y-99939329D01*
X170850107Y-99955393D01*
X170866171Y-99973117D01*
X170880421Y-99992330D01*
X170892718Y-100012847D01*
X170902946Y-100034471D01*
X170911004Y-100056993D01*
X170916816Y-100080197D01*
X170920326Y-100103858D01*
X170921500Y-100127750D01*
X170921500Y-101040250D01*
X170920326Y-101064142D01*
X170916816Y-101087803D01*
X170911004Y-101111007D01*
X170902946Y-101133529D01*
X170892718Y-101155153D01*
X170880421Y-101175670D01*
X170866171Y-101194883D01*
X170850107Y-101212607D01*
X170832383Y-101228671D01*
X170813170Y-101242921D01*
X170792653Y-101255218D01*
X170771029Y-101265446D01*
X170748507Y-101273504D01*
X170725303Y-101279316D01*
X170701642Y-101282826D01*
X170677750Y-101284000D01*
X170190250Y-101284000D01*
X170166358Y-101282826D01*
X170142697Y-101279316D01*
X170119493Y-101273504D01*
X170096971Y-101265446D01*
X170075347Y-101255218D01*
X170054830Y-101242921D01*
X170035617Y-101228671D01*
X170017893Y-101212607D01*
X170001829Y-101194883D01*
X169987579Y-101175670D01*
X169975282Y-101155153D01*
X169965054Y-101133529D01*
X169956996Y-101111007D01*
X169951184Y-101087803D01*
X169947674Y-101064142D01*
X169946500Y-101040250D01*
X169946500Y-100127750D01*
X169947674Y-100103858D01*
X169951184Y-100080197D01*
X169956996Y-100056993D01*
X169965054Y-100034471D01*
X169975282Y-100012847D01*
X169987579Y-99992330D01*
X170001829Y-99973117D01*
X170017893Y-99955393D01*
X170035617Y-99939329D01*
X170054830Y-99925079D01*
X170075347Y-99912782D01*
X170096971Y-99902554D01*
X170119493Y-99894496D01*
X170142697Y-99888684D01*
X170166358Y-99885174D01*
X170190250Y-99884000D01*
X170677750Y-99884000D01*
X170701642Y-99885174D01*
G37*
G04 #@! TD.AperFunction*
G04 #@! TA.AperFunction,SMDPad,CuDef*
G36*
X168826642Y-99885174D02*
G01*
X168850303Y-99888684D01*
X168873507Y-99894496D01*
X168896029Y-99902554D01*
X168917653Y-99912782D01*
X168938170Y-99925079D01*
X168957383Y-99939329D01*
X168975107Y-99955393D01*
X168991171Y-99973117D01*
X169005421Y-99992330D01*
X169017718Y-100012847D01*
X169027946Y-100034471D01*
X169036004Y-100056993D01*
X169041816Y-100080197D01*
X169045326Y-100103858D01*
X169046500Y-100127750D01*
X169046500Y-101040250D01*
X169045326Y-101064142D01*
X169041816Y-101087803D01*
X169036004Y-101111007D01*
X169027946Y-101133529D01*
X169017718Y-101155153D01*
X169005421Y-101175670D01*
X168991171Y-101194883D01*
X168975107Y-101212607D01*
X168957383Y-101228671D01*
X168938170Y-101242921D01*
X168917653Y-101255218D01*
X168896029Y-101265446D01*
X168873507Y-101273504D01*
X168850303Y-101279316D01*
X168826642Y-101282826D01*
X168802750Y-101284000D01*
X168315250Y-101284000D01*
X168291358Y-101282826D01*
X168267697Y-101279316D01*
X168244493Y-101273504D01*
X168221971Y-101265446D01*
X168200347Y-101255218D01*
X168179830Y-101242921D01*
X168160617Y-101228671D01*
X168142893Y-101212607D01*
X168126829Y-101194883D01*
X168112579Y-101175670D01*
X168100282Y-101155153D01*
X168090054Y-101133529D01*
X168081996Y-101111007D01*
X168076184Y-101087803D01*
X168072674Y-101064142D01*
X168071500Y-101040250D01*
X168071500Y-100127750D01*
X168072674Y-100103858D01*
X168076184Y-100080197D01*
X168081996Y-100056993D01*
X168090054Y-100034471D01*
X168100282Y-100012847D01*
X168112579Y-99992330D01*
X168126829Y-99973117D01*
X168142893Y-99955393D01*
X168160617Y-99939329D01*
X168179830Y-99925079D01*
X168200347Y-99912782D01*
X168221971Y-99902554D01*
X168244493Y-99894496D01*
X168267697Y-99888684D01*
X168291358Y-99885174D01*
X168315250Y-99884000D01*
X168802750Y-99884000D01*
X168826642Y-99885174D01*
G37*
G04 #@! TD.AperFunction*
G04 #@! TA.AperFunction,SMDPad,CuDef*
G36*
X150381642Y-103949174D02*
G01*
X150405303Y-103952684D01*
X150428507Y-103958496D01*
X150451029Y-103966554D01*
X150472653Y-103976782D01*
X150493170Y-103989079D01*
X150512383Y-104003329D01*
X150530107Y-104019393D01*
X150546171Y-104037117D01*
X150560421Y-104056330D01*
X150572718Y-104076847D01*
X150582946Y-104098471D01*
X150591004Y-104120993D01*
X150596816Y-104144197D01*
X150600326Y-104167858D01*
X150601500Y-104191750D01*
X150601500Y-105104250D01*
X150600326Y-105128142D01*
X150596816Y-105151803D01*
X150591004Y-105175007D01*
X150582946Y-105197529D01*
X150572718Y-105219153D01*
X150560421Y-105239670D01*
X150546171Y-105258883D01*
X150530107Y-105276607D01*
X150512383Y-105292671D01*
X150493170Y-105306921D01*
X150472653Y-105319218D01*
X150451029Y-105329446D01*
X150428507Y-105337504D01*
X150405303Y-105343316D01*
X150381642Y-105346826D01*
X150357750Y-105348000D01*
X149870250Y-105348000D01*
X149846358Y-105346826D01*
X149822697Y-105343316D01*
X149799493Y-105337504D01*
X149776971Y-105329446D01*
X149755347Y-105319218D01*
X149734830Y-105306921D01*
X149715617Y-105292671D01*
X149697893Y-105276607D01*
X149681829Y-105258883D01*
X149667579Y-105239670D01*
X149655282Y-105219153D01*
X149645054Y-105197529D01*
X149636996Y-105175007D01*
X149631184Y-105151803D01*
X149627674Y-105128142D01*
X149626500Y-105104250D01*
X149626500Y-104191750D01*
X149627674Y-104167858D01*
X149631184Y-104144197D01*
X149636996Y-104120993D01*
X149645054Y-104098471D01*
X149655282Y-104076847D01*
X149667579Y-104056330D01*
X149681829Y-104037117D01*
X149697893Y-104019393D01*
X149715617Y-104003329D01*
X149734830Y-103989079D01*
X149755347Y-103976782D01*
X149776971Y-103966554D01*
X149799493Y-103958496D01*
X149822697Y-103952684D01*
X149846358Y-103949174D01*
X149870250Y-103948000D01*
X150357750Y-103948000D01*
X150381642Y-103949174D01*
G37*
G04 #@! TD.AperFunction*
G04 #@! TA.AperFunction,SMDPad,CuDef*
G36*
X148506642Y-103949174D02*
G01*
X148530303Y-103952684D01*
X148553507Y-103958496D01*
X148576029Y-103966554D01*
X148597653Y-103976782D01*
X148618170Y-103989079D01*
X148637383Y-104003329D01*
X148655107Y-104019393D01*
X148671171Y-104037117D01*
X148685421Y-104056330D01*
X148697718Y-104076847D01*
X148707946Y-104098471D01*
X148716004Y-104120993D01*
X148721816Y-104144197D01*
X148725326Y-104167858D01*
X148726500Y-104191750D01*
X148726500Y-105104250D01*
X148725326Y-105128142D01*
X148721816Y-105151803D01*
X148716004Y-105175007D01*
X148707946Y-105197529D01*
X148697718Y-105219153D01*
X148685421Y-105239670D01*
X148671171Y-105258883D01*
X148655107Y-105276607D01*
X148637383Y-105292671D01*
X148618170Y-105306921D01*
X148597653Y-105319218D01*
X148576029Y-105329446D01*
X148553507Y-105337504D01*
X148530303Y-105343316D01*
X148506642Y-105346826D01*
X148482750Y-105348000D01*
X147995250Y-105348000D01*
X147971358Y-105346826D01*
X147947697Y-105343316D01*
X147924493Y-105337504D01*
X147901971Y-105329446D01*
X147880347Y-105319218D01*
X147859830Y-105306921D01*
X147840617Y-105292671D01*
X147822893Y-105276607D01*
X147806829Y-105258883D01*
X147792579Y-105239670D01*
X147780282Y-105219153D01*
X147770054Y-105197529D01*
X147761996Y-105175007D01*
X147756184Y-105151803D01*
X147752674Y-105128142D01*
X147751500Y-105104250D01*
X147751500Y-104191750D01*
X147752674Y-104167858D01*
X147756184Y-104144197D01*
X147761996Y-104120993D01*
X147770054Y-104098471D01*
X147780282Y-104076847D01*
X147792579Y-104056330D01*
X147806829Y-104037117D01*
X147822893Y-104019393D01*
X147840617Y-104003329D01*
X147859830Y-103989079D01*
X147880347Y-103976782D01*
X147901971Y-103966554D01*
X147924493Y-103958496D01*
X147947697Y-103952684D01*
X147971358Y-103949174D01*
X147995250Y-103948000D01*
X148482750Y-103948000D01*
X148506642Y-103949174D01*
G37*
G04 #@! TD.AperFunction*
D20*
X178264000Y-101212000D03*
D21*
X172764000Y-102362000D03*
D20*
X178264000Y-103512000D03*
D22*
X153924000Y-113792000D03*
X153924000Y-116332000D03*
X153924000Y-118872000D03*
X163068000Y-118872000D03*
X163068000Y-116332000D03*
X163068000Y-113792000D03*
D10*
X140292000Y-108011000D03*
X140292000Y-107061000D03*
X140292000Y-106111000D03*
X138092000Y-106111000D03*
X138092000Y-108011000D03*
X138092000Y-107061000D03*
D23*
X169966000Y-109154000D03*
X169966000Y-108204000D03*
X169966000Y-107254000D03*
X167346000Y-107254000D03*
X167346000Y-109154000D03*
D24*
X154146000Y-107188000D03*
X162846000Y-107188000D03*
X154146000Y-104648000D03*
X162846000Y-104648000D03*
X154146000Y-102108000D03*
X162846000Y-102108000D03*
X154146000Y-99568000D03*
X162846000Y-99568000D03*
D23*
X149860000Y-100716000D03*
X149860000Y-102616000D03*
X147240000Y-102616000D03*
X147240000Y-101666000D03*
X147240000Y-100716000D03*
D25*
X176850000Y-121158000D03*
X177800000Y-121158000D03*
X178750000Y-121158000D03*
X178750000Y-118958000D03*
X176850000Y-118958000D03*
D26*
X183896000Y-87376000D03*
D27*
X152654000Y-99568000D03*
X148336000Y-97536000D03*
X151130000Y-119380000D03*
X145542000Y-115316000D03*
X144018000Y-119380000D03*
X150114000Y-97282000D03*
X147820088Y-95966856D03*
X164338000Y-99568000D03*
X164338000Y-116332000D03*
X171958000Y-115570000D03*
X180848000Y-109728000D03*
X180848000Y-101092000D03*
X171450000Y-105410000D03*
D28*
X138734098Y-107061000D02*
X139684098Y-106111000D01*
X139684098Y-106111000D02*
X140292000Y-106111000D01*
X138092000Y-107061000D02*
X138734098Y-107061000D01*
X144018000Y-118207000D02*
X144018000Y-119380000D01*
X151130000Y-118207000D02*
X151130000Y-119380000D01*
X144943000Y-117282000D02*
X144018000Y-118207000D01*
X146644000Y-117282000D02*
X144943000Y-117282000D01*
X146644000Y-115382000D02*
X145608000Y-115382000D01*
X145608000Y-115382000D02*
X145542000Y-115316000D01*
X148231000Y-101666000D02*
X147240000Y-101666000D01*
X148239000Y-99506000D02*
X148240501Y-99507501D01*
X148240501Y-101656499D02*
X148231000Y-101666000D01*
X148240501Y-99507501D02*
X148240501Y-101656499D01*
X148239000Y-98806000D02*
X148239000Y-99506000D01*
X148231000Y-102616000D02*
X147240000Y-102616000D01*
X148240501Y-102606499D02*
X148231000Y-102616000D01*
X148240501Y-101656499D02*
X148240501Y-102606499D01*
X183864000Y-85310000D02*
X183864000Y-87344000D01*
X183864000Y-87344000D02*
X183896000Y-87376000D01*
X148239000Y-97633000D02*
X148336000Y-97536000D01*
X148239000Y-98806000D02*
X148239000Y-97633000D01*
X154146000Y-99568000D02*
X152654000Y-99568000D01*
X152654000Y-99568000D02*
X152654000Y-99568000D01*
X148336000Y-97536000D02*
X148336000Y-97536000D01*
X151130000Y-119380000D02*
X151130000Y-119380000D01*
X145542000Y-115316000D02*
X145542000Y-115316000D01*
X144018000Y-119380000D02*
X144018000Y-119380000D01*
X153924000Y-116332000D02*
X144018000Y-116332000D01*
X150114000Y-100462000D02*
X149860000Y-100716000D01*
X150114000Y-98806000D02*
X150114000Y-100462000D01*
X150114000Y-97282000D02*
X150114000Y-97282000D01*
X140292000Y-107061000D02*
X141203000Y-107061000D01*
X141212501Y-107051499D02*
X141212501Y-102574443D01*
X141212501Y-102574443D02*
X147420089Y-96366855D01*
X141203000Y-107061000D02*
X141212501Y-107051499D01*
X147420089Y-96366855D02*
X147820088Y-95966856D01*
X150114000Y-97282000D02*
X150114000Y-98806000D01*
X147820088Y-95966856D02*
X147820088Y-95966856D01*
X176859501Y-122078501D02*
X178740499Y-122078501D01*
X176850000Y-122069000D02*
X176859501Y-122078501D01*
X178750000Y-122069000D02*
X178750000Y-121158000D01*
X178740499Y-122078501D02*
X178750000Y-122069000D01*
X176850000Y-121158000D02*
X176850000Y-122069000D01*
X163068000Y-116332000D02*
X164338000Y-116332000D01*
X171958000Y-115570000D02*
X171958000Y-115570000D01*
D29*
X175237527Y-119865527D02*
X174752000Y-119380000D01*
X177306203Y-119942001D02*
X175314001Y-119942001D01*
X177800000Y-120435798D02*
X177306203Y-119942001D01*
X175314001Y-119942001D02*
X175237527Y-119865527D01*
X177800000Y-121158000D02*
X177800000Y-120435798D01*
X174752000Y-119380000D02*
X174752000Y-116840000D01*
X174752000Y-116840000D02*
X171958000Y-116840000D01*
D28*
X183896000Y-101160000D02*
X180916000Y-101160000D01*
X180916000Y-101160000D02*
X180848000Y-101092000D01*
X183896000Y-109660000D02*
X180916000Y-109660000D01*
X180916000Y-109660000D02*
X180848000Y-109728000D01*
X162846000Y-99568000D02*
X164338000Y-99568000D01*
X170434000Y-105410000D02*
X171450000Y-105410000D01*
X170434000Y-107736000D02*
X170434000Y-105410000D01*
X169966000Y-108204000D02*
X170434000Y-107736000D01*
X164338000Y-99568000D02*
X164338000Y-99568000D01*
X164338000Y-116332000D02*
X164338000Y-116332000D01*
X171958000Y-115570000D02*
X171958000Y-116840000D01*
X180848000Y-109728000D02*
X180848000Y-109728000D01*
X180848000Y-101092000D02*
X180848000Y-101092000D01*
X171450000Y-105410000D02*
X171450000Y-105410000D01*
X178264000Y-115203000D02*
X176627000Y-116840000D01*
X178264000Y-103512000D02*
X178264000Y-115203000D01*
X176850000Y-117063000D02*
X176627000Y-116840000D01*
X176850000Y-118958000D02*
X176850000Y-117063000D01*
X168337000Y-109154000D02*
X167346000Y-109154000D01*
X168559000Y-108932000D02*
X168337000Y-109154000D01*
X168559000Y-105410000D02*
X168559000Y-108932000D01*
X168559000Y-105410000D02*
X169494200Y-104474800D01*
X169494200Y-101523800D02*
X170434000Y-100584000D01*
X169494200Y-104474800D02*
X169494200Y-101523800D01*
X169649510Y-104319490D02*
X171629490Y-104319490D01*
X168559000Y-105410000D02*
X169649510Y-104319490D01*
X176627000Y-109317000D02*
X176627000Y-116840000D01*
X171629490Y-104319490D02*
X176627000Y-109317000D01*
X165354000Y-106073000D02*
X165354000Y-105585500D01*
X166423599Y-109869501D02*
X165354000Y-108799902D01*
X169956499Y-109869501D02*
X166423599Y-109869501D01*
X169966000Y-109860000D02*
X169956499Y-109869501D01*
X169966000Y-109154000D02*
X169966000Y-109860000D01*
X162846000Y-107188000D02*
X164592000Y-107188000D01*
X165354000Y-108799902D02*
X165354000Y-106426000D01*
X164592000Y-107188000D02*
X165354000Y-106426000D01*
X165354000Y-106426000D02*
X165354000Y-106073000D01*
X162846000Y-102108000D02*
X162846000Y-102814000D01*
X163742500Y-103710500D02*
X165100000Y-103710500D01*
X162846000Y-102814000D02*
X163742500Y-103710500D01*
X168559000Y-102616000D02*
X167797000Y-102616000D01*
X166702500Y-103710500D02*
X165100000Y-103710500D01*
X167797000Y-102616000D02*
X166702500Y-103710500D01*
X167346000Y-104354000D02*
X167346000Y-107254000D01*
X166702500Y-103710500D02*
X167346000Y-104354000D01*
X152990000Y-102108000D02*
X152482000Y-102616000D01*
X154146000Y-102108000D02*
X152990000Y-102108000D01*
X152482000Y-102616000D02*
X149860000Y-102616000D01*
X150114000Y-102870000D02*
X149860000Y-102616000D01*
X150114000Y-106934000D02*
X150114000Y-102870000D01*
X146239499Y-100725501D02*
X146239499Y-103253401D01*
X146249000Y-100716000D02*
X146239499Y-100725501D01*
X147751500Y-104648000D02*
X148239000Y-104648000D01*
X147634098Y-104648000D02*
X147751500Y-104648000D01*
X146239499Y-103253401D02*
X147634098Y-104648000D01*
X147240000Y-100716000D02*
X146249000Y-100716000D01*
X148239000Y-104648000D02*
X148239000Y-106934000D01*
X146249000Y-98453056D02*
X147956558Y-96745498D01*
X146249000Y-100716000D02*
X146249000Y-98453056D01*
X158834020Y-86614000D02*
X164681000Y-86614000D01*
X147956558Y-96745498D02*
X148702522Y-96745498D01*
X164681000Y-86614000D02*
X165862000Y-86614000D01*
X148702522Y-96745498D02*
X158834020Y-86614000D01*
X169166000Y-85310000D02*
X174464000Y-85310000D01*
X167862000Y-86614000D02*
X169166000Y-85310000D01*
D30*
X163068000Y-113792000D02*
X165354000Y-113792000D01*
X163068000Y-118872000D02*
X165354000Y-118872000D01*
D28*
X178264000Y-101568000D02*
X178264000Y-101212000D01*
X182106000Y-105410000D02*
X178264000Y-101568000D01*
X183896000Y-105410000D02*
X182106000Y-105410000D01*
X174945000Y-101212000D02*
X178264000Y-101212000D01*
X172764000Y-102362000D02*
X173795000Y-102362000D01*
X173795000Y-102362000D02*
X174945000Y-101212000D01*
X172510000Y-102616000D02*
X172764000Y-102362000D01*
X170434000Y-102616000D02*
X172510000Y-102616000D01*
X168071500Y-100584000D02*
X168559000Y-100584000D01*
X161893200Y-104648000D02*
X161645600Y-104400400D01*
X161645600Y-104400400D02*
X161645600Y-101505498D01*
X162846000Y-104648000D02*
X161893200Y-104648000D01*
X161645600Y-101505498D02*
X162567098Y-100584000D01*
X162567098Y-100584000D02*
X168071500Y-100584000D01*
X148844000Y-115382000D02*
X152334000Y-115382000D01*
X152334000Y-115382000D02*
X153924000Y-113792000D01*
X148844000Y-117282000D02*
X152334000Y-117282000D01*
X152334000Y-117282000D02*
X153924000Y-118872000D01*
D31*
G36*
X136816197Y-106769803D02*
G01*
X136835443Y-106785597D01*
X136857399Y-106797333D01*
X136881224Y-106804560D01*
X136906000Y-106807000D01*
X137472519Y-106807000D01*
X137487311Y-106811487D01*
X137562000Y-106818843D01*
X138622000Y-106818843D01*
X138696689Y-106811487D01*
X138711481Y-106807000D01*
X138811000Y-106807000D01*
X138811000Y-111379000D01*
X134418606Y-111379000D01*
X130175000Y-107135394D01*
X130175000Y-106045000D01*
X136091394Y-106045000D01*
X136816197Y-106769803D01*
G37*
X136816197Y-106769803D02*
X136835443Y-106785597D01*
X136857399Y-106797333D01*
X136881224Y-106804560D01*
X136906000Y-106807000D01*
X137472519Y-106807000D01*
X137487311Y-106811487D01*
X137562000Y-106818843D01*
X138622000Y-106818843D01*
X138696689Y-106811487D01*
X138711481Y-106807000D01*
X138811000Y-106807000D01*
X138811000Y-111379000D01*
X134418606Y-111379000D01*
X130175000Y-107135394D01*
X130175000Y-106045000D01*
X136091394Y-106045000D01*
X136816197Y-106769803D01*
G36*
X186030001Y-94615000D02*
G01*
X155194000Y-94615000D01*
X155169224Y-94617440D01*
X155145399Y-94624667D01*
X155123443Y-94636403D01*
X155104197Y-94652197D01*
X155088403Y-94671443D01*
X155076667Y-94693399D01*
X155069440Y-94717224D01*
X155067000Y-94742000D01*
X155067000Y-101429145D01*
X154995689Y-101407513D01*
X154921000Y-101400157D01*
X153371000Y-101400157D01*
X153296311Y-101407513D01*
X153224492Y-101429299D01*
X153158304Y-101464678D01*
X153100289Y-101512289D01*
X153080420Y-101536500D01*
X153018071Y-101536500D01*
X152989999Y-101533735D01*
X152961927Y-101536500D01*
X152961926Y-101536500D01*
X152877966Y-101544769D01*
X152770238Y-101577448D01*
X152670955Y-101630516D01*
X152583933Y-101701933D01*
X152566034Y-101723743D01*
X152245278Y-102044500D01*
X150760580Y-102044500D01*
X150740711Y-102020289D01*
X150682696Y-101972678D01*
X150616508Y-101937299D01*
X150544689Y-101915513D01*
X150470000Y-101908157D01*
X149250000Y-101908157D01*
X149175311Y-101915513D01*
X149103492Y-101937299D01*
X149037304Y-101972678D01*
X148979289Y-102020289D01*
X148931678Y-102078304D01*
X148896299Y-102144492D01*
X148874513Y-102216311D01*
X148867157Y-102291000D01*
X148867157Y-102941000D01*
X148874513Y-103015689D01*
X148896299Y-103087508D01*
X148931678Y-103153696D01*
X148979289Y-103211711D01*
X149037304Y-103259322D01*
X149103492Y-103294701D01*
X149175311Y-103316487D01*
X149250000Y-103323843D01*
X149542501Y-103323843D01*
X149542501Y-103659871D01*
X149522134Y-103670757D01*
X149427182Y-103748682D01*
X149349257Y-103843634D01*
X149291354Y-103951963D01*
X149255697Y-104069508D01*
X149243657Y-104191750D01*
X149243657Y-105104250D01*
X149255697Y-105226492D01*
X149291354Y-105344037D01*
X149349257Y-105452366D01*
X149427182Y-105547318D01*
X149522134Y-105625243D01*
X149542500Y-105636129D01*
X149542500Y-105945871D01*
X149522134Y-105956757D01*
X149427182Y-106034682D01*
X149349257Y-106129634D01*
X149291354Y-106237963D01*
X149255697Y-106355508D01*
X149243657Y-106477750D01*
X149243657Y-107390250D01*
X149255697Y-107512492D01*
X149291354Y-107630037D01*
X149349257Y-107738366D01*
X149427182Y-107833318D01*
X149522134Y-107911243D01*
X149630463Y-107969146D01*
X149748008Y-108004803D01*
X149870250Y-108016843D01*
X150357750Y-108016843D01*
X150479992Y-108004803D01*
X150597537Y-107969146D01*
X150705866Y-107911243D01*
X150800818Y-107833318D01*
X150878743Y-107738366D01*
X150936646Y-107630037D01*
X150972303Y-107512492D01*
X150984343Y-107390250D01*
X150984343Y-106477750D01*
X150972303Y-106355508D01*
X150936646Y-106237963D01*
X150878743Y-106129634D01*
X150800818Y-106034682D01*
X150705866Y-105956757D01*
X150685500Y-105945871D01*
X150685500Y-105636129D01*
X150705866Y-105625243D01*
X150800818Y-105547318D01*
X150878743Y-105452366D01*
X150936646Y-105344037D01*
X150972303Y-105226492D01*
X150984343Y-105104250D01*
X150984343Y-104191750D01*
X150972303Y-104069508D01*
X150936646Y-103951963D01*
X150878743Y-103843634D01*
X150800818Y-103748682D01*
X150705866Y-103670757D01*
X150685500Y-103659871D01*
X150685500Y-103257021D01*
X150740711Y-103211711D01*
X150760580Y-103187500D01*
X152453926Y-103187500D01*
X152482000Y-103190265D01*
X152510074Y-103187500D01*
X152594034Y-103179231D01*
X152701762Y-103146552D01*
X152801045Y-103093484D01*
X152888067Y-103022067D01*
X152905970Y-103000252D01*
X153156435Y-102749788D01*
X153158304Y-102751322D01*
X153224492Y-102786701D01*
X153296311Y-102808487D01*
X153371000Y-102815843D01*
X154921000Y-102815843D01*
X154995689Y-102808487D01*
X155067000Y-102786855D01*
X155067000Y-103969145D01*
X154995689Y-103947513D01*
X154921000Y-103940157D01*
X153371000Y-103940157D01*
X153296311Y-103947513D01*
X153224492Y-103969299D01*
X153158304Y-104004678D01*
X153100289Y-104052289D01*
X153052678Y-104110304D01*
X153017299Y-104176492D01*
X152995513Y-104248311D01*
X152988157Y-104323000D01*
X152988157Y-104973000D01*
X152995513Y-105047689D01*
X153017299Y-105119508D01*
X153052678Y-105185696D01*
X153100289Y-105243711D01*
X153158304Y-105291322D01*
X153224492Y-105326701D01*
X153296311Y-105348487D01*
X153371000Y-105355843D01*
X154921000Y-105355843D01*
X154995689Y-105348487D01*
X155067000Y-105326855D01*
X155067000Y-106509145D01*
X154995689Y-106487513D01*
X154921000Y-106480157D01*
X153371000Y-106480157D01*
X153296311Y-106487513D01*
X153224492Y-106509299D01*
X153158304Y-106544678D01*
X153100289Y-106592289D01*
X153052678Y-106650304D01*
X153017299Y-106716492D01*
X152995513Y-106788311D01*
X152988157Y-106863000D01*
X152988157Y-107513000D01*
X152995513Y-107587689D01*
X153017299Y-107659508D01*
X153052678Y-107725696D01*
X153100289Y-107783711D01*
X153158304Y-107831322D01*
X153224492Y-107866701D01*
X153296311Y-107888487D01*
X153371000Y-107895843D01*
X154921000Y-107895843D01*
X154995689Y-107888487D01*
X155067000Y-107866855D01*
X155067000Y-122276000D01*
X138344170Y-122276000D01*
X126390000Y-110321831D01*
X126390000Y-109308588D01*
X126691414Y-109308588D01*
X126719051Y-109425221D01*
X126843564Y-109710983D01*
X127021434Y-109966962D01*
X127245825Y-110183322D01*
X127508114Y-110351748D01*
X127798222Y-110465768D01*
X128105000Y-110521000D01*
X128905000Y-110521000D01*
X128905000Y-109063000D01*
X126811416Y-109063000D01*
X126691414Y-109308588D01*
X126390000Y-109308588D01*
X126390000Y-108563412D01*
X126691414Y-108563412D01*
X126811416Y-108809000D01*
X128905000Y-108809000D01*
X128905000Y-107351000D01*
X128105000Y-107351000D01*
X127798222Y-107406232D01*
X127508114Y-107520252D01*
X127245825Y-107688678D01*
X127021434Y-107905038D01*
X126843564Y-108161017D01*
X126719051Y-108446779D01*
X126691414Y-108563412D01*
X126390000Y-108563412D01*
X126390000Y-105444304D01*
X128101000Y-105444304D01*
X128101000Y-105627696D01*
X128136778Y-105807563D01*
X128206958Y-105976994D01*
X128308845Y-106129478D01*
X128438522Y-106259155D01*
X128591006Y-106361042D01*
X128760437Y-106431222D01*
X128940304Y-106467000D01*
X129123696Y-106467000D01*
X129303563Y-106431222D01*
X129472994Y-106361042D01*
X129625478Y-106259155D01*
X129667000Y-106217633D01*
X129667000Y-107188000D01*
X129674321Y-107262329D01*
X129696002Y-107333802D01*
X129705194Y-107351000D01*
X129159000Y-107351000D01*
X129159000Y-108809000D01*
X129179000Y-108809000D01*
X129179000Y-109063000D01*
X129159000Y-109063000D01*
X129159000Y-110521000D01*
X129959000Y-110521000D01*
X130265778Y-110465768D01*
X130555886Y-110351748D01*
X130818175Y-110183322D01*
X131042566Y-109966962D01*
X131220436Y-109710983D01*
X131344949Y-109425221D01*
X131372586Y-109308588D01*
X131252585Y-109063002D01*
X131384186Y-109063002D01*
X134096592Y-111775408D01*
X134154328Y-111822790D01*
X134220198Y-111857998D01*
X134291671Y-111879679D01*
X134366000Y-111887000D01*
X138938000Y-111887000D01*
X139012329Y-111879679D01*
X139018359Y-111877850D01*
X142621000Y-115720666D01*
X142621000Y-117094000D01*
X142628321Y-117168329D01*
X142650002Y-117239802D01*
X142685210Y-117305672D01*
X142732592Y-117363408D01*
X142790328Y-117410790D01*
X142856198Y-117445998D01*
X142927671Y-117467679D01*
X143002000Y-117475000D01*
X145288000Y-117475000D01*
X145362329Y-117467679D01*
X145433802Y-117445998D01*
X145499672Y-117410790D01*
X145557408Y-117363408D01*
X145604790Y-117305672D01*
X145639998Y-117239802D01*
X145661679Y-117168329D01*
X145669000Y-117094000D01*
X145669000Y-116903500D01*
X147936426Y-116903500D01*
X147931157Y-116957000D01*
X147931157Y-117607000D01*
X147938513Y-117681689D01*
X147960299Y-117753508D01*
X147995678Y-117819696D01*
X148043289Y-117877711D01*
X148101304Y-117925322D01*
X148167492Y-117960701D01*
X148239311Y-117982487D01*
X148314000Y-117989843D01*
X149374000Y-117989843D01*
X149448689Y-117982487D01*
X149520508Y-117960701D01*
X149586696Y-117925322D01*
X149644711Y-117877711D01*
X149664580Y-117853500D01*
X152097278Y-117853500D01*
X152981157Y-118737380D01*
X152981157Y-119352000D01*
X152988513Y-119426689D01*
X153010299Y-119498508D01*
X153045678Y-119564696D01*
X153093289Y-119622711D01*
X153151304Y-119670322D01*
X153217492Y-119705701D01*
X153289311Y-119727487D01*
X153364000Y-119734843D01*
X154484000Y-119734843D01*
X154558689Y-119727487D01*
X154630508Y-119705701D01*
X154696696Y-119670322D01*
X154754711Y-119622711D01*
X154802322Y-119564696D01*
X154837701Y-119498508D01*
X154859487Y-119426689D01*
X154866843Y-119352000D01*
X154866843Y-118392000D01*
X154859487Y-118317311D01*
X154837701Y-118245492D01*
X154802322Y-118179304D01*
X154754711Y-118121289D01*
X154696696Y-118073678D01*
X154630508Y-118038299D01*
X154558689Y-118016513D01*
X154484000Y-118009157D01*
X153869380Y-118009157D01*
X152763722Y-116903500D01*
X152993613Y-116903500D01*
X153010299Y-116958508D01*
X153045678Y-117024696D01*
X153093289Y-117082711D01*
X153151304Y-117130322D01*
X153217492Y-117165701D01*
X153289311Y-117187487D01*
X153364000Y-117194843D01*
X154484000Y-117194843D01*
X154558689Y-117187487D01*
X154630508Y-117165701D01*
X154696696Y-117130322D01*
X154754711Y-117082711D01*
X154802322Y-117024696D01*
X154837701Y-116958508D01*
X154859487Y-116886689D01*
X154866843Y-116812000D01*
X154866843Y-115852000D01*
X154859487Y-115777311D01*
X154837701Y-115705492D01*
X154802322Y-115639304D01*
X154754711Y-115581289D01*
X154696696Y-115533678D01*
X154630508Y-115498299D01*
X154558689Y-115476513D01*
X154484000Y-115469157D01*
X153364000Y-115469157D01*
X153289311Y-115476513D01*
X153217492Y-115498299D01*
X153151304Y-115533678D01*
X153093289Y-115581289D01*
X153045678Y-115639304D01*
X153010299Y-115705492D01*
X152993613Y-115760500D01*
X152763722Y-115760500D01*
X153869380Y-114654843D01*
X154484000Y-114654843D01*
X154558689Y-114647487D01*
X154630508Y-114625701D01*
X154696696Y-114590322D01*
X154754711Y-114542711D01*
X154802322Y-114484696D01*
X154837701Y-114418508D01*
X154859487Y-114346689D01*
X154866843Y-114272000D01*
X154866843Y-113312000D01*
X154859487Y-113237311D01*
X154837701Y-113165492D01*
X154802322Y-113099304D01*
X154754711Y-113041289D01*
X154696696Y-112993678D01*
X154630508Y-112958299D01*
X154558689Y-112936513D01*
X154484000Y-112929157D01*
X153364000Y-112929157D01*
X153289311Y-112936513D01*
X153217492Y-112958299D01*
X153151304Y-112993678D01*
X153093289Y-113041289D01*
X153045678Y-113099304D01*
X153010299Y-113165492D01*
X152988513Y-113237311D01*
X152981157Y-113312000D01*
X152981157Y-113926620D01*
X152097278Y-114810500D01*
X149664580Y-114810500D01*
X149644711Y-114786289D01*
X149586696Y-114738678D01*
X149520508Y-114703299D01*
X149448689Y-114681513D01*
X149374000Y-114674157D01*
X148314000Y-114674157D01*
X148239311Y-114681513D01*
X148167492Y-114703299D01*
X148101304Y-114738678D01*
X148043289Y-114786289D01*
X147995678Y-114844304D01*
X147960299Y-114910492D01*
X147938513Y-114982311D01*
X147931157Y-115057000D01*
X147931157Y-115707000D01*
X147936426Y-115760500D01*
X145669000Y-115760500D01*
X145669000Y-106680000D01*
X145661679Y-106605671D01*
X145639998Y-106534198D01*
X145604790Y-106468328D01*
X145557408Y-106410592D01*
X145499672Y-106363210D01*
X145433802Y-106328002D01*
X145362329Y-106306321D01*
X145288000Y-106299000D01*
X141784001Y-106299000D01*
X141784001Y-102811165D01*
X145677501Y-98917666D01*
X145677500Y-100609406D01*
X145676268Y-100613468D01*
X145665234Y-100725501D01*
X145667999Y-100753575D01*
X145668000Y-103225317D01*
X145665234Y-103253401D01*
X145676268Y-103365434D01*
X145708947Y-103473162D01*
X145762015Y-103572445D01*
X145765915Y-103577197D01*
X145833433Y-103659468D01*
X145855243Y-103677367D01*
X147210132Y-105032257D01*
X147228031Y-105054067D01*
X147289267Y-105104322D01*
X147315053Y-105125484D01*
X147373843Y-105156908D01*
X147380697Y-105226492D01*
X147416354Y-105344037D01*
X147474257Y-105452366D01*
X147552182Y-105547318D01*
X147647134Y-105625243D01*
X147667500Y-105636129D01*
X147667501Y-105945871D01*
X147647134Y-105956757D01*
X147552182Y-106034682D01*
X147474257Y-106129634D01*
X147416354Y-106237963D01*
X147380697Y-106355508D01*
X147368657Y-106477750D01*
X147368657Y-107390250D01*
X147380697Y-107512492D01*
X147416354Y-107630037D01*
X147474257Y-107738366D01*
X147552182Y-107833318D01*
X147647134Y-107911243D01*
X147755463Y-107969146D01*
X147873008Y-108004803D01*
X147995250Y-108016843D01*
X148482750Y-108016843D01*
X148604992Y-108004803D01*
X148722537Y-107969146D01*
X148830866Y-107911243D01*
X148925818Y-107833318D01*
X149003743Y-107738366D01*
X149061646Y-107630037D01*
X149097303Y-107512492D01*
X149109343Y-107390250D01*
X149109343Y-106477750D01*
X149097303Y-106355508D01*
X149061646Y-106237963D01*
X149003743Y-106129634D01*
X148925818Y-106034682D01*
X148830866Y-105956757D01*
X148810500Y-105945871D01*
X148810500Y-105636129D01*
X148830866Y-105625243D01*
X148925818Y-105547318D01*
X149003743Y-105452366D01*
X149061646Y-105344037D01*
X149097303Y-105226492D01*
X149109343Y-105104250D01*
X149109343Y-104191750D01*
X149097303Y-104069508D01*
X149061646Y-103951963D01*
X149003743Y-103843634D01*
X148925818Y-103748682D01*
X148830866Y-103670757D01*
X148722537Y-103612854D01*
X148604992Y-103577197D01*
X148482750Y-103565157D01*
X147995250Y-103565157D01*
X147873008Y-103577197D01*
X147755463Y-103612854D01*
X147647134Y-103670757D01*
X147552182Y-103748682D01*
X147548044Y-103753724D01*
X146810999Y-103016679D01*
X146810999Y-101423843D01*
X147850000Y-101423843D01*
X147924689Y-101416487D01*
X147996508Y-101394701D01*
X148062696Y-101359322D01*
X148120711Y-101311711D01*
X148168322Y-101253696D01*
X148203701Y-101187508D01*
X148225487Y-101115689D01*
X148232843Y-101041000D01*
X148232843Y-100391000D01*
X148867157Y-100391000D01*
X148867157Y-101041000D01*
X148874513Y-101115689D01*
X148896299Y-101187508D01*
X148931678Y-101253696D01*
X148979289Y-101311711D01*
X149037304Y-101359322D01*
X149103492Y-101394701D01*
X149175311Y-101416487D01*
X149250000Y-101423843D01*
X150470000Y-101423843D01*
X150544689Y-101416487D01*
X150616508Y-101394701D01*
X150682696Y-101359322D01*
X150740711Y-101311711D01*
X150788322Y-101253696D01*
X150823701Y-101187508D01*
X150845487Y-101115689D01*
X150852843Y-101041000D01*
X150852843Y-100391000D01*
X150845487Y-100316311D01*
X150823701Y-100244492D01*
X150788322Y-100178304D01*
X150740711Y-100120289D01*
X150685500Y-100074979D01*
X150685500Y-99794129D01*
X150705866Y-99783243D01*
X150800818Y-99705318D01*
X150878743Y-99610366D01*
X150936646Y-99502037D01*
X150972303Y-99384492D01*
X150984343Y-99262250D01*
X150984343Y-98349750D01*
X150972303Y-98227508D01*
X150936646Y-98109963D01*
X150878743Y-98001634D01*
X150800818Y-97906682D01*
X150705866Y-97828757D01*
X150685500Y-97817871D01*
X150685500Y-97561610D01*
X150724597Y-97467223D01*
X150749000Y-97344542D01*
X150749000Y-97219458D01*
X150724597Y-97096777D01*
X150676729Y-96981215D01*
X150607236Y-96877211D01*
X150518789Y-96788764D01*
X150414785Y-96719271D01*
X150299223Y-96671403D01*
X150176542Y-96647000D01*
X150051458Y-96647000D01*
X149928777Y-96671403D01*
X149813215Y-96719271D01*
X149709211Y-96788764D01*
X149620764Y-96877211D01*
X149551271Y-96981215D01*
X149503403Y-97096777D01*
X149479000Y-97219458D01*
X149479000Y-97344542D01*
X149503403Y-97467223D01*
X149542500Y-97561611D01*
X149542500Y-97817871D01*
X149522134Y-97828757D01*
X149427182Y-97906682D01*
X149349257Y-98001634D01*
X149291354Y-98109963D01*
X149255697Y-98227508D01*
X149243657Y-98349750D01*
X149243657Y-99262250D01*
X149255697Y-99384492D01*
X149291354Y-99502037D01*
X149349257Y-99610366D01*
X149427182Y-99705318D01*
X149522134Y-99783243D01*
X149542501Y-99794129D01*
X149542501Y-100008157D01*
X149250000Y-100008157D01*
X149175311Y-100015513D01*
X149103492Y-100037299D01*
X149037304Y-100072678D01*
X148979289Y-100120289D01*
X148931678Y-100178304D01*
X148896299Y-100244492D01*
X148874513Y-100316311D01*
X148867157Y-100391000D01*
X148232843Y-100391000D01*
X148225487Y-100316311D01*
X148203701Y-100244492D01*
X148168322Y-100178304D01*
X148120711Y-100120289D01*
X148062696Y-100072678D01*
X147996508Y-100037299D01*
X147924689Y-100015513D01*
X147850000Y-100008157D01*
X146820500Y-100008157D01*
X146820500Y-98689778D01*
X148193281Y-97316998D01*
X148674448Y-97316998D01*
X148702522Y-97319763D01*
X148730596Y-97316998D01*
X148814556Y-97308729D01*
X148922284Y-97276050D01*
X149021567Y-97222982D01*
X149108589Y-97151565D01*
X149126492Y-97129750D01*
X154946242Y-91310000D01*
X180381157Y-91310000D01*
X180381157Y-94110000D01*
X180388513Y-94184689D01*
X180410299Y-94256508D01*
X180445678Y-94322696D01*
X180493289Y-94380711D01*
X180551304Y-94428322D01*
X180617492Y-94463701D01*
X180689311Y-94485487D01*
X180764000Y-94492843D01*
X182964000Y-94492843D01*
X183038689Y-94485487D01*
X183110508Y-94463701D01*
X183176696Y-94428322D01*
X183234711Y-94380711D01*
X183282322Y-94322696D01*
X183317701Y-94256508D01*
X183339487Y-94184689D01*
X183346843Y-94110000D01*
X183346843Y-91310000D01*
X183339487Y-91235311D01*
X183317701Y-91163492D01*
X183282322Y-91097304D01*
X183234711Y-91039289D01*
X183176696Y-90991678D01*
X183110508Y-90956299D01*
X183038689Y-90934513D01*
X182964000Y-90927157D01*
X180764000Y-90927157D01*
X180689311Y-90934513D01*
X180617492Y-90956299D01*
X180551304Y-90991678D01*
X180493289Y-91039289D01*
X180445678Y-91097304D01*
X180410299Y-91163492D01*
X180388513Y-91235311D01*
X180381157Y-91310000D01*
X154946242Y-91310000D01*
X157367485Y-88888757D01*
X174533000Y-88888757D01*
X174533000Y-89131243D01*
X174580307Y-89369069D01*
X174673102Y-89593097D01*
X174807820Y-89794717D01*
X174979283Y-89966180D01*
X175180903Y-90100898D01*
X175404931Y-90193693D01*
X175642757Y-90241000D01*
X175885243Y-90241000D01*
X176123069Y-90193693D01*
X176347097Y-90100898D01*
X176548717Y-89966180D01*
X176720180Y-89794717D01*
X176854898Y-89593097D01*
X176947693Y-89369069D01*
X176995000Y-89131243D01*
X176995000Y-88888757D01*
X181533000Y-88888757D01*
X181533000Y-89131243D01*
X181580307Y-89369069D01*
X181673102Y-89593097D01*
X181807820Y-89794717D01*
X181979283Y-89966180D01*
X182180903Y-90100898D01*
X182404931Y-90193693D01*
X182642757Y-90241000D01*
X182885243Y-90241000D01*
X183123069Y-90193693D01*
X183347097Y-90100898D01*
X183548717Y-89966180D01*
X183720180Y-89794717D01*
X183854898Y-89593097D01*
X183947693Y-89369069D01*
X183995000Y-89131243D01*
X183995000Y-88888757D01*
X183947693Y-88650931D01*
X183854898Y-88426903D01*
X183720180Y-88225283D01*
X183548717Y-88053820D01*
X183347097Y-87919102D01*
X183123069Y-87826307D01*
X182885243Y-87779000D01*
X182642757Y-87779000D01*
X182404931Y-87826307D01*
X182180903Y-87919102D01*
X181979283Y-88053820D01*
X181807820Y-88225283D01*
X181673102Y-88426903D01*
X181580307Y-88650931D01*
X181533000Y-88888757D01*
X176995000Y-88888757D01*
X176947693Y-88650931D01*
X176854898Y-88426903D01*
X176720180Y-88225283D01*
X176548717Y-88053820D01*
X176347097Y-87919102D01*
X176123069Y-87826307D01*
X175885243Y-87779000D01*
X175642757Y-87779000D01*
X175404931Y-87826307D01*
X175180903Y-87919102D01*
X174979283Y-88053820D01*
X174807820Y-88225283D01*
X174673102Y-88426903D01*
X174580307Y-88650931D01*
X174533000Y-88888757D01*
X157367485Y-88888757D01*
X159070743Y-87185500D01*
X164679157Y-87185500D01*
X164679157Y-87414000D01*
X164686513Y-87488689D01*
X164708299Y-87560508D01*
X164743678Y-87626696D01*
X164791289Y-87684711D01*
X164849304Y-87732322D01*
X164915492Y-87767701D01*
X164987311Y-87789487D01*
X165062000Y-87796843D01*
X166662000Y-87796843D01*
X166736689Y-87789487D01*
X166808508Y-87767701D01*
X166874696Y-87732322D01*
X166932711Y-87684711D01*
X166980322Y-87626696D01*
X167015701Y-87560508D01*
X167037487Y-87488689D01*
X167040089Y-87462274D01*
X167109157Y-87531342D01*
X167302587Y-87660588D01*
X167517515Y-87749614D01*
X167745682Y-87795000D01*
X167978318Y-87795000D01*
X168206485Y-87749614D01*
X168421413Y-87660588D01*
X168614843Y-87531342D01*
X168779342Y-87366843D01*
X168908588Y-87173413D01*
X168997614Y-86958485D01*
X169043000Y-86730318D01*
X169043000Y-86497682D01*
X169000450Y-86283773D01*
X169402723Y-85881500D01*
X172681157Y-85881500D01*
X172681157Y-86710000D01*
X172688513Y-86784689D01*
X172710299Y-86856508D01*
X172745678Y-86922696D01*
X172793289Y-86980711D01*
X172851304Y-87028322D01*
X172917492Y-87063701D01*
X172989311Y-87085487D01*
X173064000Y-87092843D01*
X175864000Y-87092843D01*
X175938689Y-87085487D01*
X176010508Y-87063701D01*
X176076696Y-87028322D01*
X176134711Y-86980711D01*
X176182322Y-86922696D01*
X176217701Y-86856508D01*
X176239487Y-86784689D01*
X176246843Y-86710000D01*
X176246843Y-83910000D01*
X176239487Y-83835311D01*
X176217701Y-83763492D01*
X176182322Y-83697304D01*
X176134711Y-83639289D01*
X176076696Y-83591678D01*
X176010508Y-83556299D01*
X175938689Y-83534513D01*
X175864000Y-83527157D01*
X173064000Y-83527157D01*
X172989311Y-83534513D01*
X172917492Y-83556299D01*
X172851304Y-83591678D01*
X172793289Y-83639289D01*
X172745678Y-83697304D01*
X172710299Y-83763492D01*
X172688513Y-83835311D01*
X172681157Y-83910000D01*
X172681157Y-84738500D01*
X169194071Y-84738500D01*
X169165999Y-84735735D01*
X169137927Y-84738500D01*
X169137926Y-84738500D01*
X169053966Y-84746769D01*
X168946238Y-84779448D01*
X168846955Y-84832516D01*
X168759933Y-84903933D01*
X168742034Y-84925743D01*
X168192227Y-85475550D01*
X167978318Y-85433000D01*
X167745682Y-85433000D01*
X167517515Y-85478386D01*
X167302587Y-85567412D01*
X167109157Y-85696658D01*
X167040089Y-85765726D01*
X167037487Y-85739311D01*
X167015701Y-85667492D01*
X166980322Y-85601304D01*
X166932711Y-85543289D01*
X166874696Y-85495678D01*
X166808508Y-85460299D01*
X166736689Y-85438513D01*
X166662000Y-85431157D01*
X165062000Y-85431157D01*
X164987311Y-85438513D01*
X164915492Y-85460299D01*
X164849304Y-85495678D01*
X164791289Y-85543289D01*
X164743678Y-85601304D01*
X164708299Y-85667492D01*
X164686513Y-85739311D01*
X164679157Y-85814000D01*
X164679157Y-86042500D01*
X158862094Y-86042500D01*
X158834020Y-86039735D01*
X158805946Y-86042500D01*
X158721986Y-86050769D01*
X158614258Y-86083448D01*
X158514975Y-86136516D01*
X158427953Y-86207933D01*
X158410054Y-86229743D01*
X148465800Y-96173998D01*
X148421606Y-96173998D01*
X148430685Y-96152079D01*
X148455088Y-96029398D01*
X148455088Y-95904314D01*
X148430685Y-95781633D01*
X148382817Y-95666071D01*
X148313324Y-95562067D01*
X148224877Y-95473620D01*
X148120873Y-95404127D01*
X148005311Y-95356259D01*
X147882630Y-95331856D01*
X147757546Y-95331856D01*
X147634865Y-95356259D01*
X147519303Y-95404127D01*
X147415299Y-95473620D01*
X147326852Y-95562067D01*
X147257359Y-95666071D01*
X147218261Y-95760460D01*
X147035833Y-95942889D01*
X147035828Y-95942893D01*
X140828245Y-102150477D01*
X140806435Y-102168376D01*
X140757239Y-102228322D01*
X140735017Y-102255399D01*
X140681949Y-102354682D01*
X140649270Y-102462410D01*
X140638236Y-102574443D01*
X140641002Y-102602527D01*
X140641001Y-105403157D01*
X139762000Y-105403157D01*
X139687311Y-105410513D01*
X139615492Y-105432299D01*
X139549304Y-105467678D01*
X139491289Y-105515289D01*
X139443678Y-105573304D01*
X139430069Y-105598764D01*
X139365053Y-105633516D01*
X139278031Y-105704933D01*
X139260132Y-105726743D01*
X138687876Y-106299000D01*
X137063816Y-106299000D01*
X136413408Y-105648592D01*
X136355672Y-105601210D01*
X136289802Y-105566002D01*
X136218329Y-105544321D01*
X136144000Y-105537000D01*
X130048000Y-105537000D01*
X129973671Y-105544321D01*
X129963000Y-105547558D01*
X129963000Y-105444304D01*
X129927222Y-105264437D01*
X129857042Y-105095006D01*
X129755155Y-104942522D01*
X129625478Y-104812845D01*
X129472994Y-104710958D01*
X129303563Y-104640778D01*
X129123696Y-104605000D01*
X128940304Y-104605000D01*
X128760437Y-104640778D01*
X128591006Y-104710958D01*
X128438522Y-104812845D01*
X128308845Y-104942522D01*
X128206958Y-105095006D01*
X128136778Y-105264437D01*
X128101000Y-105444304D01*
X126390000Y-105444304D01*
X126390000Y-103686000D01*
X130149157Y-103686000D01*
X130149157Y-104786000D01*
X130156513Y-104860689D01*
X130178299Y-104932508D01*
X130213678Y-104998696D01*
X130261289Y-105056711D01*
X130319304Y-105104322D01*
X130385492Y-105139701D01*
X130457311Y-105161487D01*
X130532000Y-105168843D01*
X133032000Y-105168843D01*
X133106689Y-105161487D01*
X133178508Y-105139701D01*
X133244696Y-105104322D01*
X133302711Y-105056711D01*
X133350322Y-104998696D01*
X133385701Y-104932508D01*
X133407487Y-104860689D01*
X133414843Y-104786000D01*
X133414843Y-103686000D01*
X133407487Y-103611311D01*
X133385701Y-103539492D01*
X133350322Y-103473304D01*
X133302711Y-103415289D01*
X133244696Y-103367678D01*
X133178508Y-103332299D01*
X133106689Y-103310513D01*
X133032000Y-103303157D01*
X130532000Y-103303157D01*
X130457311Y-103310513D01*
X130385492Y-103332299D01*
X130319304Y-103367678D01*
X130261289Y-103415289D01*
X130213678Y-103473304D01*
X130178299Y-103539492D01*
X130156513Y-103611311D01*
X130149157Y-103686000D01*
X126390000Y-103686000D01*
X126390000Y-100844304D01*
X128101000Y-100844304D01*
X128101000Y-101027696D01*
X128136778Y-101207563D01*
X128206958Y-101376994D01*
X128308845Y-101529478D01*
X128438522Y-101659155D01*
X128591006Y-101761042D01*
X128760437Y-101831222D01*
X128940304Y-101867000D01*
X129123696Y-101867000D01*
X129303563Y-101831222D01*
X129472994Y-101761042D01*
X129585301Y-101686000D01*
X130149157Y-101686000D01*
X130149157Y-102786000D01*
X130156513Y-102860689D01*
X130178299Y-102932508D01*
X130213678Y-102998696D01*
X130261289Y-103056711D01*
X130319304Y-103104322D01*
X130385492Y-103139701D01*
X130457311Y-103161487D01*
X130532000Y-103168843D01*
X133032000Y-103168843D01*
X133106689Y-103161487D01*
X133178508Y-103139701D01*
X133244696Y-103104322D01*
X133302711Y-103056711D01*
X133350322Y-102998696D01*
X133385701Y-102932508D01*
X133407487Y-102860689D01*
X133414843Y-102786000D01*
X133414843Y-101686000D01*
X133407487Y-101611311D01*
X133385701Y-101539492D01*
X133350322Y-101473304D01*
X133302711Y-101415289D01*
X133244696Y-101367678D01*
X133178508Y-101332299D01*
X133106689Y-101310513D01*
X133032000Y-101303157D01*
X130532000Y-101303157D01*
X130457311Y-101310513D01*
X130385492Y-101332299D01*
X130319304Y-101367678D01*
X130261289Y-101415289D01*
X130213678Y-101473304D01*
X130178299Y-101539492D01*
X130156513Y-101611311D01*
X130149157Y-101686000D01*
X129585301Y-101686000D01*
X129625478Y-101659155D01*
X129755155Y-101529478D01*
X129857042Y-101376994D01*
X129927222Y-101207563D01*
X129963000Y-101027696D01*
X129963000Y-100844304D01*
X129927222Y-100664437D01*
X129857042Y-100495006D01*
X129755155Y-100342522D01*
X129625478Y-100212845D01*
X129472994Y-100110958D01*
X129303563Y-100040778D01*
X129123696Y-100005000D01*
X128940304Y-100005000D01*
X128760437Y-100040778D01*
X128591006Y-100110958D01*
X128438522Y-100212845D01*
X128308845Y-100342522D01*
X128206958Y-100495006D01*
X128136778Y-100664437D01*
X128101000Y-100844304D01*
X126390000Y-100844304D01*
X126390000Y-97908588D01*
X126691414Y-97908588D01*
X126719051Y-98025221D01*
X126843564Y-98310983D01*
X127021434Y-98566962D01*
X127245825Y-98783322D01*
X127508114Y-98951748D01*
X127798222Y-99065768D01*
X128105000Y-99121000D01*
X128905000Y-99121000D01*
X128905000Y-97663000D01*
X129159000Y-97663000D01*
X129159000Y-99121000D01*
X129959000Y-99121000D01*
X130265778Y-99065768D01*
X130555886Y-98951748D01*
X130818175Y-98783322D01*
X131042566Y-98566962D01*
X131220436Y-98310983D01*
X131344949Y-98025221D01*
X131372586Y-97908588D01*
X131252584Y-97663000D01*
X129159000Y-97663000D01*
X128905000Y-97663000D01*
X126811416Y-97663000D01*
X126691414Y-97908588D01*
X126390000Y-97908588D01*
X126390000Y-97163412D01*
X126691414Y-97163412D01*
X126811416Y-97409000D01*
X128905000Y-97409000D01*
X128905000Y-95951000D01*
X129159000Y-95951000D01*
X129159000Y-97409000D01*
X131252584Y-97409000D01*
X131372586Y-97163412D01*
X131344949Y-97046779D01*
X131220436Y-96761017D01*
X131042566Y-96505038D01*
X130818175Y-96288678D01*
X130555886Y-96120252D01*
X130265778Y-96006232D01*
X129959000Y-95951000D01*
X129159000Y-95951000D01*
X128905000Y-95951000D01*
X128105000Y-95951000D01*
X127798222Y-96006232D01*
X127508114Y-96120252D01*
X127245825Y-96288678D01*
X127021434Y-96505038D01*
X126843564Y-96761017D01*
X126719051Y-97046779D01*
X126691414Y-97163412D01*
X126390000Y-97163412D01*
X126390000Y-96180169D01*
X139106171Y-83464000D01*
X186030001Y-83464000D01*
X186030001Y-94615000D01*
G37*
X186030001Y-94615000D02*
X155194000Y-94615000D01*
X155169224Y-94617440D01*
X155145399Y-94624667D01*
X155123443Y-94636403D01*
X155104197Y-94652197D01*
X155088403Y-94671443D01*
X155076667Y-94693399D01*
X155069440Y-94717224D01*
X155067000Y-94742000D01*
X155067000Y-101429145D01*
X154995689Y-101407513D01*
X154921000Y-101400157D01*
X153371000Y-101400157D01*
X153296311Y-101407513D01*
X153224492Y-101429299D01*
X153158304Y-101464678D01*
X153100289Y-101512289D01*
X153080420Y-101536500D01*
X153018071Y-101536500D01*
X152989999Y-101533735D01*
X152961927Y-101536500D01*
X152961926Y-101536500D01*
X152877966Y-101544769D01*
X152770238Y-101577448D01*
X152670955Y-101630516D01*
X152583933Y-101701933D01*
X152566034Y-101723743D01*
X152245278Y-102044500D01*
X150760580Y-102044500D01*
X150740711Y-102020289D01*
X150682696Y-101972678D01*
X150616508Y-101937299D01*
X150544689Y-101915513D01*
X150470000Y-101908157D01*
X149250000Y-101908157D01*
X149175311Y-101915513D01*
X149103492Y-101937299D01*
X149037304Y-101972678D01*
X148979289Y-102020289D01*
X148931678Y-102078304D01*
X148896299Y-102144492D01*
X148874513Y-102216311D01*
X148867157Y-102291000D01*
X148867157Y-102941000D01*
X148874513Y-103015689D01*
X148896299Y-103087508D01*
X148931678Y-103153696D01*
X148979289Y-103211711D01*
X149037304Y-103259322D01*
X149103492Y-103294701D01*
X149175311Y-103316487D01*
X149250000Y-103323843D01*
X149542501Y-103323843D01*
X149542501Y-103659871D01*
X149522134Y-103670757D01*
X149427182Y-103748682D01*
X149349257Y-103843634D01*
X149291354Y-103951963D01*
X149255697Y-104069508D01*
X149243657Y-104191750D01*
X149243657Y-105104250D01*
X149255697Y-105226492D01*
X149291354Y-105344037D01*
X149349257Y-105452366D01*
X149427182Y-105547318D01*
X149522134Y-105625243D01*
X149542500Y-105636129D01*
X149542500Y-105945871D01*
X149522134Y-105956757D01*
X149427182Y-106034682D01*
X149349257Y-106129634D01*
X149291354Y-106237963D01*
X149255697Y-106355508D01*
X149243657Y-106477750D01*
X149243657Y-107390250D01*
X149255697Y-107512492D01*
X149291354Y-107630037D01*
X149349257Y-107738366D01*
X149427182Y-107833318D01*
X149522134Y-107911243D01*
X149630463Y-107969146D01*
X149748008Y-108004803D01*
X149870250Y-108016843D01*
X150357750Y-108016843D01*
X150479992Y-108004803D01*
X150597537Y-107969146D01*
X150705866Y-107911243D01*
X150800818Y-107833318D01*
X150878743Y-107738366D01*
X150936646Y-107630037D01*
X150972303Y-107512492D01*
X150984343Y-107390250D01*
X150984343Y-106477750D01*
X150972303Y-106355508D01*
X150936646Y-106237963D01*
X150878743Y-106129634D01*
X150800818Y-106034682D01*
X150705866Y-105956757D01*
X150685500Y-105945871D01*
X150685500Y-105636129D01*
X150705866Y-105625243D01*
X150800818Y-105547318D01*
X150878743Y-105452366D01*
X150936646Y-105344037D01*
X150972303Y-105226492D01*
X150984343Y-105104250D01*
X150984343Y-104191750D01*
X150972303Y-104069508D01*
X150936646Y-103951963D01*
X150878743Y-103843634D01*
X150800818Y-103748682D01*
X150705866Y-103670757D01*
X150685500Y-103659871D01*
X150685500Y-103257021D01*
X150740711Y-103211711D01*
X150760580Y-103187500D01*
X152453926Y-103187500D01*
X152482000Y-103190265D01*
X152510074Y-103187500D01*
X152594034Y-103179231D01*
X152701762Y-103146552D01*
X152801045Y-103093484D01*
X152888067Y-103022067D01*
X152905970Y-103000252D01*
X153156435Y-102749788D01*
X153158304Y-102751322D01*
X153224492Y-102786701D01*
X153296311Y-102808487D01*
X153371000Y-102815843D01*
X154921000Y-102815843D01*
X154995689Y-102808487D01*
X155067000Y-102786855D01*
X155067000Y-103969145D01*
X154995689Y-103947513D01*
X154921000Y-103940157D01*
X153371000Y-103940157D01*
X153296311Y-103947513D01*
X153224492Y-103969299D01*
X153158304Y-104004678D01*
X153100289Y-104052289D01*
X153052678Y-104110304D01*
X153017299Y-104176492D01*
X152995513Y-104248311D01*
X152988157Y-104323000D01*
X152988157Y-104973000D01*
X152995513Y-105047689D01*
X153017299Y-105119508D01*
X153052678Y-105185696D01*
X153100289Y-105243711D01*
X153158304Y-105291322D01*
X153224492Y-105326701D01*
X153296311Y-105348487D01*
X153371000Y-105355843D01*
X154921000Y-105355843D01*
X154995689Y-105348487D01*
X155067000Y-105326855D01*
X155067000Y-106509145D01*
X154995689Y-106487513D01*
X154921000Y-106480157D01*
X153371000Y-106480157D01*
X153296311Y-106487513D01*
X153224492Y-106509299D01*
X153158304Y-106544678D01*
X153100289Y-106592289D01*
X153052678Y-106650304D01*
X153017299Y-106716492D01*
X152995513Y-106788311D01*
X152988157Y-106863000D01*
X152988157Y-107513000D01*
X152995513Y-107587689D01*
X153017299Y-107659508D01*
X153052678Y-107725696D01*
X153100289Y-107783711D01*
X153158304Y-107831322D01*
X153224492Y-107866701D01*
X153296311Y-107888487D01*
X153371000Y-107895843D01*
X154921000Y-107895843D01*
X154995689Y-107888487D01*
X155067000Y-107866855D01*
X155067000Y-122276000D01*
X138344170Y-122276000D01*
X126390000Y-110321831D01*
X126390000Y-109308588D01*
X126691414Y-109308588D01*
X126719051Y-109425221D01*
X126843564Y-109710983D01*
X127021434Y-109966962D01*
X127245825Y-110183322D01*
X127508114Y-110351748D01*
X127798222Y-110465768D01*
X128105000Y-110521000D01*
X128905000Y-110521000D01*
X128905000Y-109063000D01*
X126811416Y-109063000D01*
X126691414Y-109308588D01*
X126390000Y-109308588D01*
X126390000Y-108563412D01*
X126691414Y-108563412D01*
X126811416Y-108809000D01*
X128905000Y-108809000D01*
X128905000Y-107351000D01*
X128105000Y-107351000D01*
X127798222Y-107406232D01*
X127508114Y-107520252D01*
X127245825Y-107688678D01*
X127021434Y-107905038D01*
X126843564Y-108161017D01*
X126719051Y-108446779D01*
X126691414Y-108563412D01*
X126390000Y-108563412D01*
X126390000Y-105444304D01*
X128101000Y-105444304D01*
X128101000Y-105627696D01*
X128136778Y-105807563D01*
X128206958Y-105976994D01*
X128308845Y-106129478D01*
X128438522Y-106259155D01*
X128591006Y-106361042D01*
X128760437Y-106431222D01*
X128940304Y-106467000D01*
X129123696Y-106467000D01*
X129303563Y-106431222D01*
X129472994Y-106361042D01*
X129625478Y-106259155D01*
X129667000Y-106217633D01*
X129667000Y-107188000D01*
X129674321Y-107262329D01*
X129696002Y-107333802D01*
X129705194Y-107351000D01*
X129159000Y-107351000D01*
X129159000Y-108809000D01*
X129179000Y-108809000D01*
X129179000Y-109063000D01*
X129159000Y-109063000D01*
X129159000Y-110521000D01*
X129959000Y-110521000D01*
X130265778Y-110465768D01*
X130555886Y-110351748D01*
X130818175Y-110183322D01*
X131042566Y-109966962D01*
X131220436Y-109710983D01*
X131344949Y-109425221D01*
X131372586Y-109308588D01*
X131252585Y-109063002D01*
X131384186Y-109063002D01*
X134096592Y-111775408D01*
X134154328Y-111822790D01*
X134220198Y-111857998D01*
X134291671Y-111879679D01*
X134366000Y-111887000D01*
X138938000Y-111887000D01*
X139012329Y-111879679D01*
X139018359Y-111877850D01*
X142621000Y-115720666D01*
X142621000Y-117094000D01*
X142628321Y-117168329D01*
X142650002Y-117239802D01*
X142685210Y-117305672D01*
X142732592Y-117363408D01*
X142790328Y-117410790D01*
X142856198Y-117445998D01*
X142927671Y-117467679D01*
X143002000Y-117475000D01*
X145288000Y-117475000D01*
X145362329Y-117467679D01*
X145433802Y-117445998D01*
X145499672Y-117410790D01*
X145557408Y-117363408D01*
X145604790Y-117305672D01*
X145639998Y-117239802D01*
X145661679Y-117168329D01*
X145669000Y-117094000D01*
X145669000Y-116903500D01*
X147936426Y-116903500D01*
X147931157Y-116957000D01*
X147931157Y-117607000D01*
X147938513Y-117681689D01*
X147960299Y-117753508D01*
X147995678Y-117819696D01*
X148043289Y-117877711D01*
X148101304Y-117925322D01*
X148167492Y-117960701D01*
X148239311Y-117982487D01*
X148314000Y-117989843D01*
X149374000Y-117989843D01*
X149448689Y-117982487D01*
X149520508Y-117960701D01*
X149586696Y-117925322D01*
X149644711Y-117877711D01*
X149664580Y-117853500D01*
X152097278Y-117853500D01*
X152981157Y-118737380D01*
X152981157Y-119352000D01*
X152988513Y-119426689D01*
X153010299Y-119498508D01*
X153045678Y-119564696D01*
X153093289Y-119622711D01*
X153151304Y-119670322D01*
X153217492Y-119705701D01*
X153289311Y-119727487D01*
X153364000Y-119734843D01*
X154484000Y-119734843D01*
X154558689Y-119727487D01*
X154630508Y-119705701D01*
X154696696Y-119670322D01*
X154754711Y-119622711D01*
X154802322Y-119564696D01*
X154837701Y-119498508D01*
X154859487Y-119426689D01*
X154866843Y-119352000D01*
X154866843Y-118392000D01*
X154859487Y-118317311D01*
X154837701Y-118245492D01*
X154802322Y-118179304D01*
X154754711Y-118121289D01*
X154696696Y-118073678D01*
X154630508Y-118038299D01*
X154558689Y-118016513D01*
X154484000Y-118009157D01*
X153869380Y-118009157D01*
X152763722Y-116903500D01*
X152993613Y-116903500D01*
X153010299Y-116958508D01*
X153045678Y-117024696D01*
X153093289Y-117082711D01*
X153151304Y-117130322D01*
X153217492Y-117165701D01*
X153289311Y-117187487D01*
X153364000Y-117194843D01*
X154484000Y-117194843D01*
X154558689Y-117187487D01*
X154630508Y-117165701D01*
X154696696Y-117130322D01*
X154754711Y-117082711D01*
X154802322Y-117024696D01*
X154837701Y-116958508D01*
X154859487Y-116886689D01*
X154866843Y-116812000D01*
X154866843Y-115852000D01*
X154859487Y-115777311D01*
X154837701Y-115705492D01*
X154802322Y-115639304D01*
X154754711Y-115581289D01*
X154696696Y-115533678D01*
X154630508Y-115498299D01*
X154558689Y-115476513D01*
X154484000Y-115469157D01*
X153364000Y-115469157D01*
X153289311Y-115476513D01*
X153217492Y-115498299D01*
X153151304Y-115533678D01*
X153093289Y-115581289D01*
X153045678Y-115639304D01*
X153010299Y-115705492D01*
X152993613Y-115760500D01*
X152763722Y-115760500D01*
X153869380Y-114654843D01*
X154484000Y-114654843D01*
X154558689Y-114647487D01*
X154630508Y-114625701D01*
X154696696Y-114590322D01*
X154754711Y-114542711D01*
X154802322Y-114484696D01*
X154837701Y-114418508D01*
X154859487Y-114346689D01*
X154866843Y-114272000D01*
X154866843Y-113312000D01*
X154859487Y-113237311D01*
X154837701Y-113165492D01*
X154802322Y-113099304D01*
X154754711Y-113041289D01*
X154696696Y-112993678D01*
X154630508Y-112958299D01*
X154558689Y-112936513D01*
X154484000Y-112929157D01*
X153364000Y-112929157D01*
X153289311Y-112936513D01*
X153217492Y-112958299D01*
X153151304Y-112993678D01*
X153093289Y-113041289D01*
X153045678Y-113099304D01*
X153010299Y-113165492D01*
X152988513Y-113237311D01*
X152981157Y-113312000D01*
X152981157Y-113926620D01*
X152097278Y-114810500D01*
X149664580Y-114810500D01*
X149644711Y-114786289D01*
X149586696Y-114738678D01*
X149520508Y-114703299D01*
X149448689Y-114681513D01*
X149374000Y-114674157D01*
X148314000Y-114674157D01*
X148239311Y-114681513D01*
X148167492Y-114703299D01*
X148101304Y-114738678D01*
X148043289Y-114786289D01*
X147995678Y-114844304D01*
X147960299Y-114910492D01*
X147938513Y-114982311D01*
X147931157Y-115057000D01*
X147931157Y-115707000D01*
X147936426Y-115760500D01*
X145669000Y-115760500D01*
X145669000Y-106680000D01*
X145661679Y-106605671D01*
X145639998Y-106534198D01*
X145604790Y-106468328D01*
X145557408Y-106410592D01*
X145499672Y-106363210D01*
X145433802Y-106328002D01*
X145362329Y-106306321D01*
X145288000Y-106299000D01*
X141784001Y-106299000D01*
X141784001Y-102811165D01*
X145677501Y-98917666D01*
X145677500Y-100609406D01*
X145676268Y-100613468D01*
X145665234Y-100725501D01*
X145667999Y-100753575D01*
X145668000Y-103225317D01*
X145665234Y-103253401D01*
X145676268Y-103365434D01*
X145708947Y-103473162D01*
X145762015Y-103572445D01*
X145765915Y-103577197D01*
X145833433Y-103659468D01*
X145855243Y-103677367D01*
X147210132Y-105032257D01*
X147228031Y-105054067D01*
X147289267Y-105104322D01*
X147315053Y-105125484D01*
X147373843Y-105156908D01*
X147380697Y-105226492D01*
X147416354Y-105344037D01*
X147474257Y-105452366D01*
X147552182Y-105547318D01*
X147647134Y-105625243D01*
X147667500Y-105636129D01*
X147667501Y-105945871D01*
X147647134Y-105956757D01*
X147552182Y-106034682D01*
X147474257Y-106129634D01*
X147416354Y-106237963D01*
X147380697Y-106355508D01*
X147368657Y-106477750D01*
X147368657Y-107390250D01*
X147380697Y-107512492D01*
X147416354Y-107630037D01*
X147474257Y-107738366D01*
X147552182Y-107833318D01*
X147647134Y-107911243D01*
X147755463Y-107969146D01*
X147873008Y-108004803D01*
X147995250Y-108016843D01*
X148482750Y-108016843D01*
X148604992Y-108004803D01*
X148722537Y-107969146D01*
X148830866Y-107911243D01*
X148925818Y-107833318D01*
X149003743Y-107738366D01*
X149061646Y-107630037D01*
X149097303Y-107512492D01*
X149109343Y-107390250D01*
X149109343Y-106477750D01*
X149097303Y-106355508D01*
X149061646Y-106237963D01*
X149003743Y-106129634D01*
X148925818Y-106034682D01*
X148830866Y-105956757D01*
X148810500Y-105945871D01*
X148810500Y-105636129D01*
X148830866Y-105625243D01*
X148925818Y-105547318D01*
X149003743Y-105452366D01*
X149061646Y-105344037D01*
X149097303Y-105226492D01*
X149109343Y-105104250D01*
X149109343Y-104191750D01*
X149097303Y-104069508D01*
X149061646Y-103951963D01*
X149003743Y-103843634D01*
X148925818Y-103748682D01*
X148830866Y-103670757D01*
X148722537Y-103612854D01*
X148604992Y-103577197D01*
X148482750Y-103565157D01*
X147995250Y-103565157D01*
X147873008Y-103577197D01*
X147755463Y-103612854D01*
X147647134Y-103670757D01*
X147552182Y-103748682D01*
X147548044Y-103753724D01*
X146810999Y-103016679D01*
X146810999Y-101423843D01*
X147850000Y-101423843D01*
X147924689Y-101416487D01*
X147996508Y-101394701D01*
X148062696Y-101359322D01*
X148120711Y-101311711D01*
X148168322Y-101253696D01*
X148203701Y-101187508D01*
X148225487Y-101115689D01*
X148232843Y-101041000D01*
X148232843Y-100391000D01*
X148867157Y-100391000D01*
X148867157Y-101041000D01*
X148874513Y-101115689D01*
X148896299Y-101187508D01*
X148931678Y-101253696D01*
X148979289Y-101311711D01*
X149037304Y-101359322D01*
X149103492Y-101394701D01*
X149175311Y-101416487D01*
X149250000Y-101423843D01*
X150470000Y-101423843D01*
X150544689Y-101416487D01*
X150616508Y-101394701D01*
X150682696Y-101359322D01*
X150740711Y-101311711D01*
X150788322Y-101253696D01*
X150823701Y-101187508D01*
X150845487Y-101115689D01*
X150852843Y-101041000D01*
X150852843Y-100391000D01*
X150845487Y-100316311D01*
X150823701Y-100244492D01*
X150788322Y-100178304D01*
X150740711Y-100120289D01*
X150685500Y-100074979D01*
X150685500Y-99794129D01*
X150705866Y-99783243D01*
X150800818Y-99705318D01*
X150878743Y-99610366D01*
X150936646Y-99502037D01*
X150972303Y-99384492D01*
X150984343Y-99262250D01*
X150984343Y-98349750D01*
X150972303Y-98227508D01*
X150936646Y-98109963D01*
X150878743Y-98001634D01*
X150800818Y-97906682D01*
X150705866Y-97828757D01*
X150685500Y-97817871D01*
X150685500Y-97561610D01*
X150724597Y-97467223D01*
X150749000Y-97344542D01*
X150749000Y-97219458D01*
X150724597Y-97096777D01*
X150676729Y-96981215D01*
X150607236Y-96877211D01*
X150518789Y-96788764D01*
X150414785Y-96719271D01*
X150299223Y-96671403D01*
X150176542Y-96647000D01*
X150051458Y-96647000D01*
X149928777Y-96671403D01*
X149813215Y-96719271D01*
X149709211Y-96788764D01*
X149620764Y-96877211D01*
X149551271Y-96981215D01*
X149503403Y-97096777D01*
X149479000Y-97219458D01*
X149479000Y-97344542D01*
X149503403Y-97467223D01*
X149542500Y-97561611D01*
X149542500Y-97817871D01*
X149522134Y-97828757D01*
X149427182Y-97906682D01*
X149349257Y-98001634D01*
X149291354Y-98109963D01*
X149255697Y-98227508D01*
X149243657Y-98349750D01*
X149243657Y-99262250D01*
X149255697Y-99384492D01*
X149291354Y-99502037D01*
X149349257Y-99610366D01*
X149427182Y-99705318D01*
X149522134Y-99783243D01*
X149542501Y-99794129D01*
X149542501Y-100008157D01*
X149250000Y-100008157D01*
X149175311Y-100015513D01*
X149103492Y-100037299D01*
X149037304Y-100072678D01*
X148979289Y-100120289D01*
X148931678Y-100178304D01*
X148896299Y-100244492D01*
X148874513Y-100316311D01*
X148867157Y-100391000D01*
X148232843Y-100391000D01*
X148225487Y-100316311D01*
X148203701Y-100244492D01*
X148168322Y-100178304D01*
X148120711Y-100120289D01*
X148062696Y-100072678D01*
X147996508Y-100037299D01*
X147924689Y-100015513D01*
X147850000Y-100008157D01*
X146820500Y-100008157D01*
X146820500Y-98689778D01*
X148193281Y-97316998D01*
X148674448Y-97316998D01*
X148702522Y-97319763D01*
X148730596Y-97316998D01*
X148814556Y-97308729D01*
X148922284Y-97276050D01*
X149021567Y-97222982D01*
X149108589Y-97151565D01*
X149126492Y-97129750D01*
X154946242Y-91310000D01*
X180381157Y-91310000D01*
X180381157Y-94110000D01*
X180388513Y-94184689D01*
X180410299Y-94256508D01*
X180445678Y-94322696D01*
X180493289Y-94380711D01*
X180551304Y-94428322D01*
X180617492Y-94463701D01*
X180689311Y-94485487D01*
X180764000Y-94492843D01*
X182964000Y-94492843D01*
X183038689Y-94485487D01*
X183110508Y-94463701D01*
X183176696Y-94428322D01*
X183234711Y-94380711D01*
X183282322Y-94322696D01*
X183317701Y-94256508D01*
X183339487Y-94184689D01*
X183346843Y-94110000D01*
X183346843Y-91310000D01*
X183339487Y-91235311D01*
X183317701Y-91163492D01*
X183282322Y-91097304D01*
X183234711Y-91039289D01*
X183176696Y-90991678D01*
X183110508Y-90956299D01*
X183038689Y-90934513D01*
X182964000Y-90927157D01*
X180764000Y-90927157D01*
X180689311Y-90934513D01*
X180617492Y-90956299D01*
X180551304Y-90991678D01*
X180493289Y-91039289D01*
X180445678Y-91097304D01*
X180410299Y-91163492D01*
X180388513Y-91235311D01*
X180381157Y-91310000D01*
X154946242Y-91310000D01*
X157367485Y-88888757D01*
X174533000Y-88888757D01*
X174533000Y-89131243D01*
X174580307Y-89369069D01*
X174673102Y-89593097D01*
X174807820Y-89794717D01*
X174979283Y-89966180D01*
X175180903Y-90100898D01*
X175404931Y-90193693D01*
X175642757Y-90241000D01*
X175885243Y-90241000D01*
X176123069Y-90193693D01*
X176347097Y-90100898D01*
X176548717Y-89966180D01*
X176720180Y-89794717D01*
X176854898Y-89593097D01*
X176947693Y-89369069D01*
X176995000Y-89131243D01*
X176995000Y-88888757D01*
X181533000Y-88888757D01*
X181533000Y-89131243D01*
X181580307Y-89369069D01*
X181673102Y-89593097D01*
X181807820Y-89794717D01*
X181979283Y-89966180D01*
X182180903Y-90100898D01*
X182404931Y-90193693D01*
X182642757Y-90241000D01*
X182885243Y-90241000D01*
X183123069Y-90193693D01*
X183347097Y-90100898D01*
X183548717Y-89966180D01*
X183720180Y-89794717D01*
X183854898Y-89593097D01*
X183947693Y-89369069D01*
X183995000Y-89131243D01*
X183995000Y-88888757D01*
X183947693Y-88650931D01*
X183854898Y-88426903D01*
X183720180Y-88225283D01*
X183548717Y-88053820D01*
X183347097Y-87919102D01*
X183123069Y-87826307D01*
X182885243Y-87779000D01*
X182642757Y-87779000D01*
X182404931Y-87826307D01*
X182180903Y-87919102D01*
X181979283Y-88053820D01*
X181807820Y-88225283D01*
X181673102Y-88426903D01*
X181580307Y-88650931D01*
X181533000Y-88888757D01*
X176995000Y-88888757D01*
X176947693Y-88650931D01*
X176854898Y-88426903D01*
X176720180Y-88225283D01*
X176548717Y-88053820D01*
X176347097Y-87919102D01*
X176123069Y-87826307D01*
X175885243Y-87779000D01*
X175642757Y-87779000D01*
X175404931Y-87826307D01*
X175180903Y-87919102D01*
X174979283Y-88053820D01*
X174807820Y-88225283D01*
X174673102Y-88426903D01*
X174580307Y-88650931D01*
X174533000Y-88888757D01*
X157367485Y-88888757D01*
X159070743Y-87185500D01*
X164679157Y-87185500D01*
X164679157Y-87414000D01*
X164686513Y-87488689D01*
X164708299Y-87560508D01*
X164743678Y-87626696D01*
X164791289Y-87684711D01*
X164849304Y-87732322D01*
X164915492Y-87767701D01*
X164987311Y-87789487D01*
X165062000Y-87796843D01*
X166662000Y-87796843D01*
X166736689Y-87789487D01*
X166808508Y-87767701D01*
X166874696Y-87732322D01*
X166932711Y-87684711D01*
X166980322Y-87626696D01*
X167015701Y-87560508D01*
X167037487Y-87488689D01*
X167040089Y-87462274D01*
X167109157Y-87531342D01*
X167302587Y-87660588D01*
X167517515Y-87749614D01*
X167745682Y-87795000D01*
X167978318Y-87795000D01*
X168206485Y-87749614D01*
X168421413Y-87660588D01*
X168614843Y-87531342D01*
X168779342Y-87366843D01*
X168908588Y-87173413D01*
X168997614Y-86958485D01*
X169043000Y-86730318D01*
X169043000Y-86497682D01*
X169000450Y-86283773D01*
X169402723Y-85881500D01*
X172681157Y-85881500D01*
X172681157Y-86710000D01*
X172688513Y-86784689D01*
X172710299Y-86856508D01*
X172745678Y-86922696D01*
X172793289Y-86980711D01*
X172851304Y-87028322D01*
X172917492Y-87063701D01*
X172989311Y-87085487D01*
X173064000Y-87092843D01*
X175864000Y-87092843D01*
X175938689Y-87085487D01*
X176010508Y-87063701D01*
X176076696Y-87028322D01*
X176134711Y-86980711D01*
X176182322Y-86922696D01*
X176217701Y-86856508D01*
X176239487Y-86784689D01*
X176246843Y-86710000D01*
X176246843Y-83910000D01*
X176239487Y-83835311D01*
X176217701Y-83763492D01*
X176182322Y-83697304D01*
X176134711Y-83639289D01*
X176076696Y-83591678D01*
X176010508Y-83556299D01*
X175938689Y-83534513D01*
X175864000Y-83527157D01*
X173064000Y-83527157D01*
X172989311Y-83534513D01*
X172917492Y-83556299D01*
X172851304Y-83591678D01*
X172793289Y-83639289D01*
X172745678Y-83697304D01*
X172710299Y-83763492D01*
X172688513Y-83835311D01*
X172681157Y-83910000D01*
X172681157Y-84738500D01*
X169194071Y-84738500D01*
X169165999Y-84735735D01*
X169137927Y-84738500D01*
X169137926Y-84738500D01*
X169053966Y-84746769D01*
X168946238Y-84779448D01*
X168846955Y-84832516D01*
X168759933Y-84903933D01*
X168742034Y-84925743D01*
X168192227Y-85475550D01*
X167978318Y-85433000D01*
X167745682Y-85433000D01*
X167517515Y-85478386D01*
X167302587Y-85567412D01*
X167109157Y-85696658D01*
X167040089Y-85765726D01*
X167037487Y-85739311D01*
X167015701Y-85667492D01*
X166980322Y-85601304D01*
X166932711Y-85543289D01*
X166874696Y-85495678D01*
X166808508Y-85460299D01*
X166736689Y-85438513D01*
X166662000Y-85431157D01*
X165062000Y-85431157D01*
X164987311Y-85438513D01*
X164915492Y-85460299D01*
X164849304Y-85495678D01*
X164791289Y-85543289D01*
X164743678Y-85601304D01*
X164708299Y-85667492D01*
X164686513Y-85739311D01*
X164679157Y-85814000D01*
X164679157Y-86042500D01*
X158862094Y-86042500D01*
X158834020Y-86039735D01*
X158805946Y-86042500D01*
X158721986Y-86050769D01*
X158614258Y-86083448D01*
X158514975Y-86136516D01*
X158427953Y-86207933D01*
X158410054Y-86229743D01*
X148465800Y-96173998D01*
X148421606Y-96173998D01*
X148430685Y-96152079D01*
X148455088Y-96029398D01*
X148455088Y-95904314D01*
X148430685Y-95781633D01*
X148382817Y-95666071D01*
X148313324Y-95562067D01*
X148224877Y-95473620D01*
X148120873Y-95404127D01*
X148005311Y-95356259D01*
X147882630Y-95331856D01*
X147757546Y-95331856D01*
X147634865Y-95356259D01*
X147519303Y-95404127D01*
X147415299Y-95473620D01*
X147326852Y-95562067D01*
X147257359Y-95666071D01*
X147218261Y-95760460D01*
X147035833Y-95942889D01*
X147035828Y-95942893D01*
X140828245Y-102150477D01*
X140806435Y-102168376D01*
X140757239Y-102228322D01*
X140735017Y-102255399D01*
X140681949Y-102354682D01*
X140649270Y-102462410D01*
X140638236Y-102574443D01*
X140641002Y-102602527D01*
X140641001Y-105403157D01*
X139762000Y-105403157D01*
X139687311Y-105410513D01*
X139615492Y-105432299D01*
X139549304Y-105467678D01*
X139491289Y-105515289D01*
X139443678Y-105573304D01*
X139430069Y-105598764D01*
X139365053Y-105633516D01*
X139278031Y-105704933D01*
X139260132Y-105726743D01*
X138687876Y-106299000D01*
X137063816Y-106299000D01*
X136413408Y-105648592D01*
X136355672Y-105601210D01*
X136289802Y-105566002D01*
X136218329Y-105544321D01*
X136144000Y-105537000D01*
X130048000Y-105537000D01*
X129973671Y-105544321D01*
X129963000Y-105547558D01*
X129963000Y-105444304D01*
X129927222Y-105264437D01*
X129857042Y-105095006D01*
X129755155Y-104942522D01*
X129625478Y-104812845D01*
X129472994Y-104710958D01*
X129303563Y-104640778D01*
X129123696Y-104605000D01*
X128940304Y-104605000D01*
X128760437Y-104640778D01*
X128591006Y-104710958D01*
X128438522Y-104812845D01*
X128308845Y-104942522D01*
X128206958Y-105095006D01*
X128136778Y-105264437D01*
X128101000Y-105444304D01*
X126390000Y-105444304D01*
X126390000Y-103686000D01*
X130149157Y-103686000D01*
X130149157Y-104786000D01*
X130156513Y-104860689D01*
X130178299Y-104932508D01*
X130213678Y-104998696D01*
X130261289Y-105056711D01*
X130319304Y-105104322D01*
X130385492Y-105139701D01*
X130457311Y-105161487D01*
X130532000Y-105168843D01*
X133032000Y-105168843D01*
X133106689Y-105161487D01*
X133178508Y-105139701D01*
X133244696Y-105104322D01*
X133302711Y-105056711D01*
X133350322Y-104998696D01*
X133385701Y-104932508D01*
X133407487Y-104860689D01*
X133414843Y-104786000D01*
X133414843Y-103686000D01*
X133407487Y-103611311D01*
X133385701Y-103539492D01*
X133350322Y-103473304D01*
X133302711Y-103415289D01*
X133244696Y-103367678D01*
X133178508Y-103332299D01*
X133106689Y-103310513D01*
X133032000Y-103303157D01*
X130532000Y-103303157D01*
X130457311Y-103310513D01*
X130385492Y-103332299D01*
X130319304Y-103367678D01*
X130261289Y-103415289D01*
X130213678Y-103473304D01*
X130178299Y-103539492D01*
X130156513Y-103611311D01*
X130149157Y-103686000D01*
X126390000Y-103686000D01*
X126390000Y-100844304D01*
X128101000Y-100844304D01*
X128101000Y-101027696D01*
X128136778Y-101207563D01*
X128206958Y-101376994D01*
X128308845Y-101529478D01*
X128438522Y-101659155D01*
X128591006Y-101761042D01*
X128760437Y-101831222D01*
X128940304Y-101867000D01*
X129123696Y-101867000D01*
X129303563Y-101831222D01*
X129472994Y-101761042D01*
X129585301Y-101686000D01*
X130149157Y-101686000D01*
X130149157Y-102786000D01*
X130156513Y-102860689D01*
X130178299Y-102932508D01*
X130213678Y-102998696D01*
X130261289Y-103056711D01*
X130319304Y-103104322D01*
X130385492Y-103139701D01*
X130457311Y-103161487D01*
X130532000Y-103168843D01*
X133032000Y-103168843D01*
X133106689Y-103161487D01*
X133178508Y-103139701D01*
X133244696Y-103104322D01*
X133302711Y-103056711D01*
X133350322Y-102998696D01*
X133385701Y-102932508D01*
X133407487Y-102860689D01*
X133414843Y-102786000D01*
X133414843Y-101686000D01*
X133407487Y-101611311D01*
X133385701Y-101539492D01*
X133350322Y-101473304D01*
X133302711Y-101415289D01*
X133244696Y-101367678D01*
X133178508Y-101332299D01*
X133106689Y-101310513D01*
X133032000Y-101303157D01*
X130532000Y-101303157D01*
X130457311Y-101310513D01*
X130385492Y-101332299D01*
X130319304Y-101367678D01*
X130261289Y-101415289D01*
X130213678Y-101473304D01*
X130178299Y-101539492D01*
X130156513Y-101611311D01*
X130149157Y-101686000D01*
X129585301Y-101686000D01*
X129625478Y-101659155D01*
X129755155Y-101529478D01*
X129857042Y-101376994D01*
X129927222Y-101207563D01*
X129963000Y-101027696D01*
X129963000Y-100844304D01*
X129927222Y-100664437D01*
X129857042Y-100495006D01*
X129755155Y-100342522D01*
X129625478Y-100212845D01*
X129472994Y-100110958D01*
X129303563Y-100040778D01*
X129123696Y-100005000D01*
X128940304Y-100005000D01*
X128760437Y-100040778D01*
X128591006Y-100110958D01*
X128438522Y-100212845D01*
X128308845Y-100342522D01*
X128206958Y-100495006D01*
X128136778Y-100664437D01*
X128101000Y-100844304D01*
X126390000Y-100844304D01*
X126390000Y-97908588D01*
X126691414Y-97908588D01*
X126719051Y-98025221D01*
X126843564Y-98310983D01*
X127021434Y-98566962D01*
X127245825Y-98783322D01*
X127508114Y-98951748D01*
X127798222Y-99065768D01*
X128105000Y-99121000D01*
X128905000Y-99121000D01*
X128905000Y-97663000D01*
X129159000Y-97663000D01*
X129159000Y-99121000D01*
X129959000Y-99121000D01*
X130265778Y-99065768D01*
X130555886Y-98951748D01*
X130818175Y-98783322D01*
X131042566Y-98566962D01*
X131220436Y-98310983D01*
X131344949Y-98025221D01*
X131372586Y-97908588D01*
X131252584Y-97663000D01*
X129159000Y-97663000D01*
X128905000Y-97663000D01*
X126811416Y-97663000D01*
X126691414Y-97908588D01*
X126390000Y-97908588D01*
X126390000Y-97163412D01*
X126691414Y-97163412D01*
X126811416Y-97409000D01*
X128905000Y-97409000D01*
X128905000Y-95951000D01*
X129159000Y-95951000D01*
X129159000Y-97409000D01*
X131252584Y-97409000D01*
X131372586Y-97163412D01*
X131344949Y-97046779D01*
X131220436Y-96761017D01*
X131042566Y-96505038D01*
X130818175Y-96288678D01*
X130555886Y-96120252D01*
X130265778Y-96006232D01*
X129959000Y-95951000D01*
X129159000Y-95951000D01*
X128905000Y-95951000D01*
X128105000Y-95951000D01*
X127798222Y-96006232D01*
X127508114Y-96120252D01*
X127245825Y-96288678D01*
X127021434Y-96505038D01*
X126843564Y-96761017D01*
X126719051Y-97046779D01*
X126691414Y-97163412D01*
X126390000Y-97163412D01*
X126390000Y-96180169D01*
X139106171Y-83464000D01*
X186030001Y-83464000D01*
X186030001Y-94615000D01*
G36*
X145161000Y-114806869D02*
G01*
X145137211Y-114822764D01*
X145048764Y-114911211D01*
X144979271Y-115015215D01*
X144931403Y-115130777D01*
X144907000Y-115253458D01*
X144907000Y-115378542D01*
X144931403Y-115501223D01*
X144979271Y-115616785D01*
X145048764Y-115720789D01*
X145137211Y-115809236D01*
X145161000Y-115825131D01*
X145161000Y-116710500D01*
X144971074Y-116710500D01*
X144943000Y-116707735D01*
X144914926Y-116710500D01*
X144830966Y-116718769D01*
X144723238Y-116751448D01*
X144623955Y-116804516D01*
X144536933Y-116875933D01*
X144519034Y-116897743D01*
X144449777Y-116967000D01*
X143129000Y-116967000D01*
X143129000Y-115570000D01*
X143126560Y-115545224D01*
X143119333Y-115521399D01*
X143107597Y-115499443D01*
X143094651Y-115483139D01*
X139319000Y-111455778D01*
X139319000Y-109249980D01*
X139559592Y-108768796D01*
X139568490Y-108745544D01*
X139573000Y-108712000D01*
X139573000Y-107030321D01*
X139784478Y-106818843D01*
X140822000Y-106818843D01*
X140896689Y-106811487D01*
X140911481Y-106807000D01*
X145161000Y-106807000D01*
X145161000Y-114806869D01*
G37*
X145161000Y-114806869D02*
X145137211Y-114822764D01*
X145048764Y-114911211D01*
X144979271Y-115015215D01*
X144931403Y-115130777D01*
X144907000Y-115253458D01*
X144907000Y-115378542D01*
X144931403Y-115501223D01*
X144979271Y-115616785D01*
X145048764Y-115720789D01*
X145137211Y-115809236D01*
X145161000Y-115825131D01*
X145161000Y-116710500D01*
X144971074Y-116710500D01*
X144943000Y-116707735D01*
X144914926Y-116710500D01*
X144830966Y-116718769D01*
X144723238Y-116751448D01*
X144623955Y-116804516D01*
X144536933Y-116875933D01*
X144519034Y-116897743D01*
X144449777Y-116967000D01*
X143129000Y-116967000D01*
X143129000Y-115570000D01*
X143126560Y-115545224D01*
X143119333Y-115521399D01*
X143107597Y-115499443D01*
X143094651Y-115483139D01*
X139319000Y-111455778D01*
X139319000Y-109249980D01*
X139559592Y-108768796D01*
X139568490Y-108745544D01*
X139573000Y-108712000D01*
X139573000Y-107030321D01*
X139784478Y-106818843D01*
X140822000Y-106818843D01*
X140896689Y-106811487D01*
X140911481Y-106807000D01*
X145161000Y-106807000D01*
X145161000Y-114806869D01*
G36*
X169545000Y-116840000D02*
G01*
X169547440Y-116864776D01*
X169554667Y-116888601D01*
X169566403Y-116910557D01*
X169582197Y-116929803D01*
X170598197Y-117945803D01*
X170617443Y-117961597D01*
X170639399Y-117973333D01*
X170663224Y-117980560D01*
X170688000Y-117983000D01*
X172667394Y-117983000D01*
X173101000Y-118416606D01*
X173101000Y-119380000D01*
X173103440Y-119404776D01*
X173110667Y-119428601D01*
X173122403Y-119450557D01*
X173138197Y-119469803D01*
X173900197Y-120231803D01*
X173919443Y-120247597D01*
X173941399Y-120259333D01*
X173965224Y-120266560D01*
X173990000Y-120269000D01*
X174742975Y-120269000D01*
X174810570Y-120336595D01*
X174810574Y-120336598D01*
X174842929Y-120368954D01*
X174862816Y-120393186D01*
X174887045Y-120413070D01*
X174959508Y-120472539D01*
X175010857Y-120499986D01*
X175069821Y-120531503D01*
X175189519Y-120567813D01*
X175282809Y-120577001D01*
X175282812Y-120577001D01*
X175314001Y-120580073D01*
X175345190Y-120577001D01*
X177043178Y-120577001D01*
X177092338Y-120626161D01*
X177092157Y-120628000D01*
X177092157Y-121688000D01*
X177099513Y-121762689D01*
X177121299Y-121834508D01*
X177156678Y-121900696D01*
X177204289Y-121958711D01*
X177262304Y-122006322D01*
X177328492Y-122041701D01*
X177400311Y-122063487D01*
X177475000Y-122070843D01*
X178125000Y-122070843D01*
X178199689Y-122063487D01*
X178271508Y-122041701D01*
X178337696Y-122006322D01*
X178395711Y-121958711D01*
X178443322Y-121900696D01*
X178478701Y-121834508D01*
X178500487Y-121762689D01*
X178507843Y-121688000D01*
X178507843Y-120628000D01*
X178500487Y-120553311D01*
X178478701Y-120481492D01*
X178443322Y-120415304D01*
X178435061Y-120405238D01*
X178435000Y-120404616D01*
X178435000Y-120404606D01*
X178425812Y-120311316D01*
X178412976Y-120269000D01*
X179578000Y-120269000D01*
X179578000Y-122276000D01*
X170080606Y-122276000D01*
X167767000Y-119962394D01*
X167767000Y-113157000D01*
X169545000Y-113157000D01*
X169545000Y-116840000D01*
G37*
X169545000Y-116840000D02*
X169547440Y-116864776D01*
X169554667Y-116888601D01*
X169566403Y-116910557D01*
X169582197Y-116929803D01*
X170598197Y-117945803D01*
X170617443Y-117961597D01*
X170639399Y-117973333D01*
X170663224Y-117980560D01*
X170688000Y-117983000D01*
X172667394Y-117983000D01*
X173101000Y-118416606D01*
X173101000Y-119380000D01*
X173103440Y-119404776D01*
X173110667Y-119428601D01*
X173122403Y-119450557D01*
X173138197Y-119469803D01*
X173900197Y-120231803D01*
X173919443Y-120247597D01*
X173941399Y-120259333D01*
X173965224Y-120266560D01*
X173990000Y-120269000D01*
X174742975Y-120269000D01*
X174810570Y-120336595D01*
X174810574Y-120336598D01*
X174842929Y-120368954D01*
X174862816Y-120393186D01*
X174887045Y-120413070D01*
X174959508Y-120472539D01*
X175010857Y-120499986D01*
X175069821Y-120531503D01*
X175189519Y-120567813D01*
X175282809Y-120577001D01*
X175282812Y-120577001D01*
X175314001Y-120580073D01*
X175345190Y-120577001D01*
X177043178Y-120577001D01*
X177092338Y-120626161D01*
X177092157Y-120628000D01*
X177092157Y-121688000D01*
X177099513Y-121762689D01*
X177121299Y-121834508D01*
X177156678Y-121900696D01*
X177204289Y-121958711D01*
X177262304Y-122006322D01*
X177328492Y-122041701D01*
X177400311Y-122063487D01*
X177475000Y-122070843D01*
X178125000Y-122070843D01*
X178199689Y-122063487D01*
X178271508Y-122041701D01*
X178337696Y-122006322D01*
X178395711Y-121958711D01*
X178443322Y-121900696D01*
X178478701Y-121834508D01*
X178500487Y-121762689D01*
X178507843Y-121688000D01*
X178507843Y-120628000D01*
X178500487Y-120553311D01*
X178478701Y-120481492D01*
X178443322Y-120415304D01*
X178435061Y-120405238D01*
X178435000Y-120404616D01*
X178435000Y-120404606D01*
X178425812Y-120311316D01*
X178412976Y-120269000D01*
X179578000Y-120269000D01*
X179578000Y-122276000D01*
X170080606Y-122276000D01*
X167767000Y-119962394D01*
X167767000Y-113157000D01*
X169545000Y-113157000D01*
X169545000Y-116840000D01*
G36*
X180973157Y-105085380D02*
G01*
X180973157Y-106160000D01*
X180980513Y-106234689D01*
X181002299Y-106306508D01*
X181037678Y-106372696D01*
X181085289Y-106430711D01*
X181143304Y-106478322D01*
X181209492Y-106513701D01*
X181281311Y-106535487D01*
X181356000Y-106542843D01*
X186030000Y-106542843D01*
X186030000Y-122276000D01*
X180086000Y-122276000D01*
X180086000Y-120142000D01*
X180078679Y-120067671D01*
X180056998Y-119996198D01*
X180021790Y-119930328D01*
X179974408Y-119872592D01*
X179916672Y-119825210D01*
X179850802Y-119790002D01*
X179779329Y-119768321D01*
X179705000Y-119761000D01*
X179342922Y-119761000D01*
X179345711Y-119758711D01*
X179393322Y-119700696D01*
X179428701Y-119634508D01*
X179450487Y-119562689D01*
X179457843Y-119488000D01*
X179457843Y-118428000D01*
X179450487Y-118353311D01*
X179428701Y-118281492D01*
X179393322Y-118215304D01*
X179345711Y-118157289D01*
X179287696Y-118109678D01*
X179221508Y-118074299D01*
X179149689Y-118052513D01*
X179075000Y-118045157D01*
X178425000Y-118045157D01*
X178350311Y-118052513D01*
X178278492Y-118074299D01*
X178212304Y-118109678D01*
X178154289Y-118157289D01*
X178106678Y-118215304D01*
X178071299Y-118281492D01*
X178049513Y-118353311D01*
X178042157Y-118428000D01*
X178042157Y-119488000D01*
X178049513Y-119562689D01*
X178071299Y-119634508D01*
X178106678Y-119700696D01*
X178154289Y-119758711D01*
X178157078Y-119761000D01*
X177442922Y-119761000D01*
X177445711Y-119758711D01*
X177493322Y-119700696D01*
X177528701Y-119634508D01*
X177550487Y-119562689D01*
X177557843Y-119488000D01*
X177557843Y-118428000D01*
X177550487Y-118353311D01*
X177528701Y-118281492D01*
X177493322Y-118215304D01*
X177445711Y-118157289D01*
X177421500Y-118137420D01*
X177421500Y-117588695D01*
X177449646Y-117536037D01*
X177485303Y-117418492D01*
X177497343Y-117296250D01*
X177497343Y-116777879D01*
X178648257Y-115626966D01*
X178670067Y-115609067D01*
X178741484Y-115522045D01*
X178794552Y-115422762D01*
X178827231Y-115315034D01*
X178835500Y-115231074D01*
X178838265Y-115203000D01*
X178835500Y-115174926D01*
X178835500Y-104544843D01*
X178914000Y-104544843D01*
X178988689Y-104537487D01*
X179060508Y-104515701D01*
X179126696Y-104480322D01*
X179184711Y-104432711D01*
X179232322Y-104374696D01*
X179267701Y-104308508D01*
X179289487Y-104236689D01*
X179296843Y-104162000D01*
X179296843Y-103409065D01*
X180973157Y-105085380D01*
G37*
X180973157Y-105085380D02*
X180973157Y-106160000D01*
X180980513Y-106234689D01*
X181002299Y-106306508D01*
X181037678Y-106372696D01*
X181085289Y-106430711D01*
X181143304Y-106478322D01*
X181209492Y-106513701D01*
X181281311Y-106535487D01*
X181356000Y-106542843D01*
X186030000Y-106542843D01*
X186030000Y-122276000D01*
X180086000Y-122276000D01*
X180086000Y-120142000D01*
X180078679Y-120067671D01*
X180056998Y-119996198D01*
X180021790Y-119930328D01*
X179974408Y-119872592D01*
X179916672Y-119825210D01*
X179850802Y-119790002D01*
X179779329Y-119768321D01*
X179705000Y-119761000D01*
X179342922Y-119761000D01*
X179345711Y-119758711D01*
X179393322Y-119700696D01*
X179428701Y-119634508D01*
X179450487Y-119562689D01*
X179457843Y-119488000D01*
X179457843Y-118428000D01*
X179450487Y-118353311D01*
X179428701Y-118281492D01*
X179393322Y-118215304D01*
X179345711Y-118157289D01*
X179287696Y-118109678D01*
X179221508Y-118074299D01*
X179149689Y-118052513D01*
X179075000Y-118045157D01*
X178425000Y-118045157D01*
X178350311Y-118052513D01*
X178278492Y-118074299D01*
X178212304Y-118109678D01*
X178154289Y-118157289D01*
X178106678Y-118215304D01*
X178071299Y-118281492D01*
X178049513Y-118353311D01*
X178042157Y-118428000D01*
X178042157Y-119488000D01*
X178049513Y-119562689D01*
X178071299Y-119634508D01*
X178106678Y-119700696D01*
X178154289Y-119758711D01*
X178157078Y-119761000D01*
X177442922Y-119761000D01*
X177445711Y-119758711D01*
X177493322Y-119700696D01*
X177528701Y-119634508D01*
X177550487Y-119562689D01*
X177557843Y-119488000D01*
X177557843Y-118428000D01*
X177550487Y-118353311D01*
X177528701Y-118281492D01*
X177493322Y-118215304D01*
X177445711Y-118157289D01*
X177421500Y-118137420D01*
X177421500Y-117588695D01*
X177449646Y-117536037D01*
X177485303Y-117418492D01*
X177497343Y-117296250D01*
X177497343Y-116777879D01*
X178648257Y-115626966D01*
X178670067Y-115609067D01*
X178741484Y-115522045D01*
X178794552Y-115422762D01*
X178827231Y-115315034D01*
X178835500Y-115231074D01*
X178838265Y-115203000D01*
X178835500Y-115174926D01*
X178835500Y-104544843D01*
X178914000Y-104544843D01*
X178988689Y-104537487D01*
X179060508Y-104515701D01*
X179126696Y-104480322D01*
X179184711Y-104432711D01*
X179232322Y-104374696D01*
X179267701Y-104308508D01*
X179289487Y-104236689D01*
X179296843Y-104162000D01*
X179296843Y-103409065D01*
X180973157Y-105085380D01*
G36*
X176055500Y-109553723D02*
G01*
X176055501Y-115851871D01*
X176035134Y-115862757D01*
X175940182Y-115940682D01*
X175862257Y-116035634D01*
X175804354Y-116143963D01*
X175768697Y-116261508D01*
X175756657Y-116383750D01*
X175756657Y-117296250D01*
X175768697Y-117418492D01*
X175804354Y-117536037D01*
X175862257Y-117644366D01*
X175940182Y-117739318D01*
X176035134Y-117817243D01*
X176143463Y-117875146D01*
X176261008Y-117910803D01*
X176278501Y-117912526D01*
X176278500Y-118137419D01*
X176254289Y-118157289D01*
X176206678Y-118215304D01*
X176171299Y-118281492D01*
X176149513Y-118353311D01*
X176142157Y-118428000D01*
X176142157Y-119488000D01*
X176149513Y-119562689D01*
X176171299Y-119634508D01*
X176206678Y-119700696D01*
X176254289Y-119758711D01*
X176257078Y-119761000D01*
X174147816Y-119761000D01*
X173609000Y-119222184D01*
X173609000Y-118364000D01*
X173601679Y-118289671D01*
X173579998Y-118218198D01*
X173544790Y-118152328D01*
X173497408Y-118094592D01*
X172989408Y-117586592D01*
X172931672Y-117539210D01*
X172865802Y-117504002D01*
X172794329Y-117482321D01*
X172720000Y-117475000D01*
X170845816Y-117475000D01*
X170053000Y-116682184D01*
X170053000Y-113030000D01*
X170045679Y-112955671D01*
X170023998Y-112884198D01*
X169988790Y-112818328D01*
X169941408Y-112760592D01*
X169883672Y-112713210D01*
X169817802Y-112678002D01*
X169746329Y-112656321D01*
X169672000Y-112649000D01*
X167640000Y-112649000D01*
X167565671Y-112656321D01*
X167494198Y-112678002D01*
X167428328Y-112713210D01*
X167370592Y-112760592D01*
X167323210Y-112818328D01*
X167288002Y-112884198D01*
X167266321Y-112955671D01*
X167259000Y-113030000D01*
X167259000Y-120015000D01*
X167266321Y-120089329D01*
X167288002Y-120160802D01*
X167323210Y-120226672D01*
X167370592Y-120284408D01*
X169362184Y-122276000D01*
X161925000Y-122276000D01*
X161925000Y-118392000D01*
X162125157Y-118392000D01*
X162125157Y-119352000D01*
X162132513Y-119426689D01*
X162154299Y-119498508D01*
X162189678Y-119564696D01*
X162237289Y-119622711D01*
X162295304Y-119670322D01*
X162361492Y-119705701D01*
X162433311Y-119727487D01*
X162508000Y-119734843D01*
X163628000Y-119734843D01*
X163702689Y-119727487D01*
X163774508Y-119705701D01*
X163840696Y-119670322D01*
X163898711Y-119622711D01*
X163935404Y-119578000D01*
X164538011Y-119578000D01*
X164550299Y-119618508D01*
X164585678Y-119684696D01*
X164633289Y-119742711D01*
X164691304Y-119790322D01*
X164757492Y-119825701D01*
X164829311Y-119847487D01*
X164904000Y-119854843D01*
X165804000Y-119854843D01*
X165878689Y-119847487D01*
X165950508Y-119825701D01*
X166016696Y-119790322D01*
X166074711Y-119742711D01*
X166122322Y-119684696D01*
X166157701Y-119618508D01*
X166179487Y-119546689D01*
X166186843Y-119472000D01*
X166186843Y-118272000D01*
X166179487Y-118197311D01*
X166157701Y-118125492D01*
X166122322Y-118059304D01*
X166074711Y-118001289D01*
X166016696Y-117953678D01*
X165950508Y-117918299D01*
X165878689Y-117896513D01*
X165804000Y-117889157D01*
X164904000Y-117889157D01*
X164829311Y-117896513D01*
X164757492Y-117918299D01*
X164691304Y-117953678D01*
X164633289Y-118001289D01*
X164585678Y-118059304D01*
X164550299Y-118125492D01*
X164538011Y-118166000D01*
X163935404Y-118166000D01*
X163898711Y-118121289D01*
X163840696Y-118073678D01*
X163774508Y-118038299D01*
X163702689Y-118016513D01*
X163628000Y-118009157D01*
X162508000Y-118009157D01*
X162433311Y-118016513D01*
X162361492Y-118038299D01*
X162295304Y-118073678D01*
X162237289Y-118121289D01*
X162189678Y-118179304D01*
X162154299Y-118245492D01*
X162132513Y-118317311D01*
X162125157Y-118392000D01*
X161925000Y-118392000D01*
X161925000Y-113312000D01*
X162125157Y-113312000D01*
X162125157Y-114272000D01*
X162132513Y-114346689D01*
X162154299Y-114418508D01*
X162189678Y-114484696D01*
X162237289Y-114542711D01*
X162295304Y-114590322D01*
X162361492Y-114625701D01*
X162433311Y-114647487D01*
X162508000Y-114654843D01*
X163628000Y-114654843D01*
X163702689Y-114647487D01*
X163774508Y-114625701D01*
X163840696Y-114590322D01*
X163898711Y-114542711D01*
X163935404Y-114498000D01*
X164538011Y-114498000D01*
X164550299Y-114538508D01*
X164585678Y-114604696D01*
X164633289Y-114662711D01*
X164691304Y-114710322D01*
X164757492Y-114745701D01*
X164829311Y-114767487D01*
X164904000Y-114774843D01*
X165804000Y-114774843D01*
X165878689Y-114767487D01*
X165950508Y-114745701D01*
X166016696Y-114710322D01*
X166074711Y-114662711D01*
X166122322Y-114604696D01*
X166157701Y-114538508D01*
X166179487Y-114466689D01*
X166186843Y-114392000D01*
X166186843Y-113192000D01*
X166179487Y-113117311D01*
X166157701Y-113045492D01*
X166122322Y-112979304D01*
X166074711Y-112921289D01*
X166016696Y-112873678D01*
X165950508Y-112838299D01*
X165878689Y-112816513D01*
X165804000Y-112809157D01*
X164904000Y-112809157D01*
X164829311Y-112816513D01*
X164757492Y-112838299D01*
X164691304Y-112873678D01*
X164633289Y-112921289D01*
X164585678Y-112979304D01*
X164550299Y-113045492D01*
X164538011Y-113086000D01*
X163935404Y-113086000D01*
X163898711Y-113041289D01*
X163840696Y-112993678D01*
X163774508Y-112958299D01*
X163702689Y-112936513D01*
X163628000Y-112929157D01*
X162508000Y-112929157D01*
X162433311Y-112936513D01*
X162361492Y-112958299D01*
X162295304Y-112993678D01*
X162237289Y-113041289D01*
X162189678Y-113099304D01*
X162154299Y-113165492D01*
X162132513Y-113237311D01*
X162125157Y-113312000D01*
X161925000Y-113312000D01*
X161925000Y-107866855D01*
X161996311Y-107888487D01*
X162071000Y-107895843D01*
X163621000Y-107895843D01*
X163695689Y-107888487D01*
X163767508Y-107866701D01*
X163833696Y-107831322D01*
X163891711Y-107783711D01*
X163911580Y-107759500D01*
X164563926Y-107759500D01*
X164592000Y-107762265D01*
X164620074Y-107759500D01*
X164704034Y-107751231D01*
X164782500Y-107727428D01*
X164782500Y-108771828D01*
X164779735Y-108799902D01*
X164783637Y-108839516D01*
X164790769Y-108911935D01*
X164823448Y-109019663D01*
X164876516Y-109118946D01*
X164947933Y-109205969D01*
X164969748Y-109223872D01*
X165999633Y-110253758D01*
X166017532Y-110275568D01*
X166104554Y-110346985D01*
X166203837Y-110400053D01*
X166311565Y-110432732D01*
X166395525Y-110441001D01*
X166395526Y-110441001D01*
X166423598Y-110443766D01*
X166451670Y-110441001D01*
X169928425Y-110441001D01*
X169956499Y-110443766D01*
X169984573Y-110441001D01*
X170068533Y-110432732D01*
X170176261Y-110400053D01*
X170275544Y-110346985D01*
X170362566Y-110275568D01*
X170366849Y-110270350D01*
X170372067Y-110266067D01*
X170443484Y-110179045D01*
X170496552Y-110079762D01*
X170529231Y-109972034D01*
X170537500Y-109888074D01*
X170537500Y-109888072D01*
X170540084Y-109861843D01*
X170576000Y-109861843D01*
X170650689Y-109854487D01*
X170722508Y-109832701D01*
X170788696Y-109797322D01*
X170846711Y-109749711D01*
X170894322Y-109691696D01*
X170929701Y-109625508D01*
X170951487Y-109553689D01*
X170958843Y-109479000D01*
X170958843Y-108829000D01*
X170951487Y-108754311D01*
X170929701Y-108682492D01*
X170894322Y-108616304D01*
X170846711Y-108558289D01*
X170788696Y-108510678D01*
X170722508Y-108475299D01*
X170650689Y-108453513D01*
X170576000Y-108446157D01*
X169356000Y-108446157D01*
X169281311Y-108453513D01*
X169209492Y-108475299D01*
X169143304Y-108510678D01*
X169130500Y-108521186D01*
X169130500Y-106398129D01*
X169150866Y-106387243D01*
X169245818Y-106309318D01*
X169323743Y-106214366D01*
X169381646Y-106106037D01*
X169417303Y-105988492D01*
X169429343Y-105866250D01*
X169429343Y-105347879D01*
X169878458Y-104898765D01*
X169887932Y-104890990D01*
X171392768Y-104890990D01*
X176055500Y-109553723D01*
G37*
X176055500Y-109553723D02*
X176055501Y-115851871D01*
X176035134Y-115862757D01*
X175940182Y-115940682D01*
X175862257Y-116035634D01*
X175804354Y-116143963D01*
X175768697Y-116261508D01*
X175756657Y-116383750D01*
X175756657Y-117296250D01*
X175768697Y-117418492D01*
X175804354Y-117536037D01*
X175862257Y-117644366D01*
X175940182Y-117739318D01*
X176035134Y-117817243D01*
X176143463Y-117875146D01*
X176261008Y-117910803D01*
X176278501Y-117912526D01*
X176278500Y-118137419D01*
X176254289Y-118157289D01*
X176206678Y-118215304D01*
X176171299Y-118281492D01*
X176149513Y-118353311D01*
X176142157Y-118428000D01*
X176142157Y-119488000D01*
X176149513Y-119562689D01*
X176171299Y-119634508D01*
X176206678Y-119700696D01*
X176254289Y-119758711D01*
X176257078Y-119761000D01*
X174147816Y-119761000D01*
X173609000Y-119222184D01*
X173609000Y-118364000D01*
X173601679Y-118289671D01*
X173579998Y-118218198D01*
X173544790Y-118152328D01*
X173497408Y-118094592D01*
X172989408Y-117586592D01*
X172931672Y-117539210D01*
X172865802Y-117504002D01*
X172794329Y-117482321D01*
X172720000Y-117475000D01*
X170845816Y-117475000D01*
X170053000Y-116682184D01*
X170053000Y-113030000D01*
X170045679Y-112955671D01*
X170023998Y-112884198D01*
X169988790Y-112818328D01*
X169941408Y-112760592D01*
X169883672Y-112713210D01*
X169817802Y-112678002D01*
X169746329Y-112656321D01*
X169672000Y-112649000D01*
X167640000Y-112649000D01*
X167565671Y-112656321D01*
X167494198Y-112678002D01*
X167428328Y-112713210D01*
X167370592Y-112760592D01*
X167323210Y-112818328D01*
X167288002Y-112884198D01*
X167266321Y-112955671D01*
X167259000Y-113030000D01*
X167259000Y-120015000D01*
X167266321Y-120089329D01*
X167288002Y-120160802D01*
X167323210Y-120226672D01*
X167370592Y-120284408D01*
X169362184Y-122276000D01*
X161925000Y-122276000D01*
X161925000Y-118392000D01*
X162125157Y-118392000D01*
X162125157Y-119352000D01*
X162132513Y-119426689D01*
X162154299Y-119498508D01*
X162189678Y-119564696D01*
X162237289Y-119622711D01*
X162295304Y-119670322D01*
X162361492Y-119705701D01*
X162433311Y-119727487D01*
X162508000Y-119734843D01*
X163628000Y-119734843D01*
X163702689Y-119727487D01*
X163774508Y-119705701D01*
X163840696Y-119670322D01*
X163898711Y-119622711D01*
X163935404Y-119578000D01*
X164538011Y-119578000D01*
X164550299Y-119618508D01*
X164585678Y-119684696D01*
X164633289Y-119742711D01*
X164691304Y-119790322D01*
X164757492Y-119825701D01*
X164829311Y-119847487D01*
X164904000Y-119854843D01*
X165804000Y-119854843D01*
X165878689Y-119847487D01*
X165950508Y-119825701D01*
X166016696Y-119790322D01*
X166074711Y-119742711D01*
X166122322Y-119684696D01*
X166157701Y-119618508D01*
X166179487Y-119546689D01*
X166186843Y-119472000D01*
X166186843Y-118272000D01*
X166179487Y-118197311D01*
X166157701Y-118125492D01*
X166122322Y-118059304D01*
X166074711Y-118001289D01*
X166016696Y-117953678D01*
X165950508Y-117918299D01*
X165878689Y-117896513D01*
X165804000Y-117889157D01*
X164904000Y-117889157D01*
X164829311Y-117896513D01*
X164757492Y-117918299D01*
X164691304Y-117953678D01*
X164633289Y-118001289D01*
X164585678Y-118059304D01*
X164550299Y-118125492D01*
X164538011Y-118166000D01*
X163935404Y-118166000D01*
X163898711Y-118121289D01*
X163840696Y-118073678D01*
X163774508Y-118038299D01*
X163702689Y-118016513D01*
X163628000Y-118009157D01*
X162508000Y-118009157D01*
X162433311Y-118016513D01*
X162361492Y-118038299D01*
X162295304Y-118073678D01*
X162237289Y-118121289D01*
X162189678Y-118179304D01*
X162154299Y-118245492D01*
X162132513Y-118317311D01*
X162125157Y-118392000D01*
X161925000Y-118392000D01*
X161925000Y-113312000D01*
X162125157Y-113312000D01*
X162125157Y-114272000D01*
X162132513Y-114346689D01*
X162154299Y-114418508D01*
X162189678Y-114484696D01*
X162237289Y-114542711D01*
X162295304Y-114590322D01*
X162361492Y-114625701D01*
X162433311Y-114647487D01*
X162508000Y-114654843D01*
X163628000Y-114654843D01*
X163702689Y-114647487D01*
X163774508Y-114625701D01*
X163840696Y-114590322D01*
X163898711Y-114542711D01*
X163935404Y-114498000D01*
X164538011Y-114498000D01*
X164550299Y-114538508D01*
X164585678Y-114604696D01*
X164633289Y-114662711D01*
X164691304Y-114710322D01*
X164757492Y-114745701D01*
X164829311Y-114767487D01*
X164904000Y-114774843D01*
X165804000Y-114774843D01*
X165878689Y-114767487D01*
X165950508Y-114745701D01*
X166016696Y-114710322D01*
X166074711Y-114662711D01*
X166122322Y-114604696D01*
X166157701Y-114538508D01*
X166179487Y-114466689D01*
X166186843Y-114392000D01*
X166186843Y-113192000D01*
X166179487Y-113117311D01*
X166157701Y-113045492D01*
X166122322Y-112979304D01*
X166074711Y-112921289D01*
X166016696Y-112873678D01*
X165950508Y-112838299D01*
X165878689Y-112816513D01*
X165804000Y-112809157D01*
X164904000Y-112809157D01*
X164829311Y-112816513D01*
X164757492Y-112838299D01*
X164691304Y-112873678D01*
X164633289Y-112921289D01*
X164585678Y-112979304D01*
X164550299Y-113045492D01*
X164538011Y-113086000D01*
X163935404Y-113086000D01*
X163898711Y-113041289D01*
X163840696Y-112993678D01*
X163774508Y-112958299D01*
X163702689Y-112936513D01*
X163628000Y-112929157D01*
X162508000Y-112929157D01*
X162433311Y-112936513D01*
X162361492Y-112958299D01*
X162295304Y-112993678D01*
X162237289Y-113041289D01*
X162189678Y-113099304D01*
X162154299Y-113165492D01*
X162132513Y-113237311D01*
X162125157Y-113312000D01*
X161925000Y-113312000D01*
X161925000Y-107866855D01*
X161996311Y-107888487D01*
X162071000Y-107895843D01*
X163621000Y-107895843D01*
X163695689Y-107888487D01*
X163767508Y-107866701D01*
X163833696Y-107831322D01*
X163891711Y-107783711D01*
X163911580Y-107759500D01*
X164563926Y-107759500D01*
X164592000Y-107762265D01*
X164620074Y-107759500D01*
X164704034Y-107751231D01*
X164782500Y-107727428D01*
X164782500Y-108771828D01*
X164779735Y-108799902D01*
X164783637Y-108839516D01*
X164790769Y-108911935D01*
X164823448Y-109019663D01*
X164876516Y-109118946D01*
X164947933Y-109205969D01*
X164969748Y-109223872D01*
X165999633Y-110253758D01*
X166017532Y-110275568D01*
X166104554Y-110346985D01*
X166203837Y-110400053D01*
X166311565Y-110432732D01*
X166395525Y-110441001D01*
X166395526Y-110441001D01*
X166423598Y-110443766D01*
X166451670Y-110441001D01*
X169928425Y-110441001D01*
X169956499Y-110443766D01*
X169984573Y-110441001D01*
X170068533Y-110432732D01*
X170176261Y-110400053D01*
X170275544Y-110346985D01*
X170362566Y-110275568D01*
X170366849Y-110270350D01*
X170372067Y-110266067D01*
X170443484Y-110179045D01*
X170496552Y-110079762D01*
X170529231Y-109972034D01*
X170537500Y-109888074D01*
X170537500Y-109888072D01*
X170540084Y-109861843D01*
X170576000Y-109861843D01*
X170650689Y-109854487D01*
X170722508Y-109832701D01*
X170788696Y-109797322D01*
X170846711Y-109749711D01*
X170894322Y-109691696D01*
X170929701Y-109625508D01*
X170951487Y-109553689D01*
X170958843Y-109479000D01*
X170958843Y-108829000D01*
X170951487Y-108754311D01*
X170929701Y-108682492D01*
X170894322Y-108616304D01*
X170846711Y-108558289D01*
X170788696Y-108510678D01*
X170722508Y-108475299D01*
X170650689Y-108453513D01*
X170576000Y-108446157D01*
X169356000Y-108446157D01*
X169281311Y-108453513D01*
X169209492Y-108475299D01*
X169143304Y-108510678D01*
X169130500Y-108521186D01*
X169130500Y-106398129D01*
X169150866Y-106387243D01*
X169245818Y-106309318D01*
X169323743Y-106214366D01*
X169381646Y-106106037D01*
X169417303Y-105988492D01*
X169429343Y-105866250D01*
X169429343Y-105347879D01*
X169878458Y-104898765D01*
X169887932Y-104890990D01*
X171392768Y-104890990D01*
X176055500Y-109553723D01*
G36*
X186030000Y-104277157D02*
G01*
X181781380Y-104277157D01*
X179296843Y-101792621D01*
X179296843Y-100562000D01*
X179289487Y-100487311D01*
X179267701Y-100415492D01*
X179232322Y-100349304D01*
X179184711Y-100291289D01*
X179126696Y-100243678D01*
X179060508Y-100208299D01*
X178988689Y-100186513D01*
X178914000Y-100179157D01*
X177614000Y-100179157D01*
X177539311Y-100186513D01*
X177467492Y-100208299D01*
X177401304Y-100243678D01*
X177343289Y-100291289D01*
X177295678Y-100349304D01*
X177260299Y-100415492D01*
X177238513Y-100487311D01*
X177231157Y-100562000D01*
X177231157Y-100640500D01*
X174973074Y-100640500D01*
X174945000Y-100637735D01*
X174916926Y-100640500D01*
X174832966Y-100648769D01*
X174725238Y-100681448D01*
X174625955Y-100734516D01*
X174538933Y-100805933D01*
X174521034Y-100827743D01*
X173796843Y-101551935D01*
X173796843Y-101362000D01*
X173789487Y-101287311D01*
X173767701Y-101215492D01*
X173732322Y-101149304D01*
X173684711Y-101091289D01*
X173626696Y-101043678D01*
X173560508Y-101008299D01*
X173488689Y-100986513D01*
X173414000Y-100979157D01*
X172114000Y-100979157D01*
X172039311Y-100986513D01*
X171967492Y-101008299D01*
X171901304Y-101043678D01*
X171843289Y-101091289D01*
X171795678Y-101149304D01*
X171760299Y-101215492D01*
X171738513Y-101287311D01*
X171731157Y-101362000D01*
X171731157Y-102044500D01*
X171292992Y-102044500D01*
X171292303Y-102037508D01*
X171256646Y-101919963D01*
X171198743Y-101811634D01*
X171120818Y-101716682D01*
X171025866Y-101638757D01*
X170953357Y-101600000D01*
X171025866Y-101561243D01*
X171120818Y-101483318D01*
X171198743Y-101388366D01*
X171256646Y-101280037D01*
X171292303Y-101162492D01*
X171304343Y-101040250D01*
X171304343Y-100127750D01*
X171292303Y-100005508D01*
X171256646Y-99887963D01*
X171198743Y-99779634D01*
X171120818Y-99684682D01*
X171025866Y-99606757D01*
X170917537Y-99548854D01*
X170799992Y-99513197D01*
X170677750Y-99501157D01*
X170190250Y-99501157D01*
X170068008Y-99513197D01*
X169950463Y-99548854D01*
X169842134Y-99606757D01*
X169747182Y-99684682D01*
X169669257Y-99779634D01*
X169611354Y-99887963D01*
X169575697Y-100005508D01*
X169563657Y-100127750D01*
X169563657Y-100646120D01*
X169429343Y-100780435D01*
X169429343Y-100127750D01*
X169417303Y-100005508D01*
X169381646Y-99887963D01*
X169323743Y-99779634D01*
X169245818Y-99684682D01*
X169150866Y-99606757D01*
X169042537Y-99548854D01*
X168924992Y-99513197D01*
X168802750Y-99501157D01*
X168315250Y-99501157D01*
X168193008Y-99513197D01*
X168075463Y-99548854D01*
X167967134Y-99606757D01*
X167872182Y-99684682D01*
X167794257Y-99779634D01*
X167736354Y-99887963D01*
X167700697Y-100005508D01*
X167700008Y-100012500D01*
X162595172Y-100012500D01*
X162567098Y-100009735D01*
X162539024Y-100012500D01*
X162455064Y-100020769D01*
X162347336Y-100053448D01*
X162248053Y-100106516D01*
X162161031Y-100177933D01*
X162143132Y-100199743D01*
X161925000Y-100417875D01*
X161925000Y-98933000D01*
X186030001Y-98933000D01*
X186030000Y-104277157D01*
G37*
X186030000Y-104277157D02*
X181781380Y-104277157D01*
X179296843Y-101792621D01*
X179296843Y-100562000D01*
X179289487Y-100487311D01*
X179267701Y-100415492D01*
X179232322Y-100349304D01*
X179184711Y-100291289D01*
X179126696Y-100243678D01*
X179060508Y-100208299D01*
X178988689Y-100186513D01*
X178914000Y-100179157D01*
X177614000Y-100179157D01*
X177539311Y-100186513D01*
X177467492Y-100208299D01*
X177401304Y-100243678D01*
X177343289Y-100291289D01*
X177295678Y-100349304D01*
X177260299Y-100415492D01*
X177238513Y-100487311D01*
X177231157Y-100562000D01*
X177231157Y-100640500D01*
X174973074Y-100640500D01*
X174945000Y-100637735D01*
X174916926Y-100640500D01*
X174832966Y-100648769D01*
X174725238Y-100681448D01*
X174625955Y-100734516D01*
X174538933Y-100805933D01*
X174521034Y-100827743D01*
X173796843Y-101551935D01*
X173796843Y-101362000D01*
X173789487Y-101287311D01*
X173767701Y-101215492D01*
X173732322Y-101149304D01*
X173684711Y-101091289D01*
X173626696Y-101043678D01*
X173560508Y-101008299D01*
X173488689Y-100986513D01*
X173414000Y-100979157D01*
X172114000Y-100979157D01*
X172039311Y-100986513D01*
X171967492Y-101008299D01*
X171901304Y-101043678D01*
X171843289Y-101091289D01*
X171795678Y-101149304D01*
X171760299Y-101215492D01*
X171738513Y-101287311D01*
X171731157Y-101362000D01*
X171731157Y-102044500D01*
X171292992Y-102044500D01*
X171292303Y-102037508D01*
X171256646Y-101919963D01*
X171198743Y-101811634D01*
X171120818Y-101716682D01*
X171025866Y-101638757D01*
X170953357Y-101600000D01*
X171025866Y-101561243D01*
X171120818Y-101483318D01*
X171198743Y-101388366D01*
X171256646Y-101280037D01*
X171292303Y-101162492D01*
X171304343Y-101040250D01*
X171304343Y-100127750D01*
X171292303Y-100005508D01*
X171256646Y-99887963D01*
X171198743Y-99779634D01*
X171120818Y-99684682D01*
X171025866Y-99606757D01*
X170917537Y-99548854D01*
X170799992Y-99513197D01*
X170677750Y-99501157D01*
X170190250Y-99501157D01*
X170068008Y-99513197D01*
X169950463Y-99548854D01*
X169842134Y-99606757D01*
X169747182Y-99684682D01*
X169669257Y-99779634D01*
X169611354Y-99887963D01*
X169575697Y-100005508D01*
X169563657Y-100127750D01*
X169563657Y-100646120D01*
X169429343Y-100780435D01*
X169429343Y-100127750D01*
X169417303Y-100005508D01*
X169381646Y-99887963D01*
X169323743Y-99779634D01*
X169245818Y-99684682D01*
X169150866Y-99606757D01*
X169042537Y-99548854D01*
X168924992Y-99513197D01*
X168802750Y-99501157D01*
X168315250Y-99501157D01*
X168193008Y-99513197D01*
X168075463Y-99548854D01*
X167967134Y-99606757D01*
X167872182Y-99684682D01*
X167794257Y-99779634D01*
X167736354Y-99887963D01*
X167700697Y-100005508D01*
X167700008Y-100012500D01*
X162595172Y-100012500D01*
X162567098Y-100009735D01*
X162539024Y-100012500D01*
X162455064Y-100020769D01*
X162347336Y-100053448D01*
X162248053Y-100106516D01*
X162161031Y-100177933D01*
X162143132Y-100199743D01*
X161925000Y-100417875D01*
X161925000Y-98933000D01*
X186030001Y-98933000D01*
X186030000Y-104277157D01*
M02*
