M48
; DRILL file {KiCad 5.1.5} date Wed 03 Jun 2020 07:44:26 PM CDT
; FORMAT={-:-/ absolute / inch / decimal}
; #@! TF.CreationDate,2020-06-03T19:44:26-05:00
; #@! TF.GenerationSoftware,Kicad,Pcbnew,5.1.5
; #@! TF.FileFunction,Plated,1,2,PTH
FMAT,2
INCH
T1C0.0100
T2C0.0157
T3C0.0315
T4C0.0354
%
G90
G05
T1
X5.67Y-4.7
X5.73Y-4.54
X5.8197Y-3.7782
X5.84Y-3.84
X5.91Y-3.83
X5.95Y-4.7
X6.01Y-3.92
X6.47Y-3.92
X6.47Y-4.58
X6.75Y-4.15
X6.77Y-4.55
X7.12Y-3.98
X7.12Y-4.32
T2
X7.24Y-3.44
T3
X6.53Y-3.41
X6.6087Y-3.41
T4
G00X5.1115Y-3.84
M15
G01X5.0485Y-3.84
M16
G05
G00X5.1115Y-4.2888
M15
G01X5.0485Y-4.2888
M16
G05
T0
M30
