G04 #@! TF.GenerationSoftware,KiCad,Pcbnew,5.1.5*
G04 #@! TF.CreationDate,2020-06-04T17:32:55-05:00*
G04 #@! TF.ProjectId,Receiver,52656365-6976-4657-922e-6b696361645f,rev?*
G04 #@! TF.SameCoordinates,Original*
G04 #@! TF.FileFunction,Legend,Top*
G04 #@! TF.FilePolarity,Positive*
%FSLAX46Y46*%
G04 Gerber Fmt 4.6, Leading zero omitted, Abs format (unit mm)*
G04 Created by KiCad (PCBNEW 5.1.5) date 2020-06-04 17:32:55*
%MOMM*%
%LPD*%
G04 APERTURE LIST*
%ADD10C,0.300000*%
%ADD11C,0.120000*%
%ADD12C,0.150000*%
G04 APERTURE END LIST*
D10*
X139529857Y-84258571D02*
X140029857Y-85758571D01*
X140529857Y-84258571D01*
X141744142Y-85758571D02*
X141029857Y-85758571D01*
X141029857Y-84258571D01*
X142744142Y-84972857D02*
X142244142Y-84972857D01*
X142244142Y-85758571D02*
X142244142Y-84258571D01*
X142958428Y-84258571D01*
X145529857Y-85758571D02*
X145029857Y-85044285D01*
X144672714Y-85758571D02*
X144672714Y-84258571D01*
X145244142Y-84258571D01*
X145387000Y-84330000D01*
X145458428Y-84401428D01*
X145529857Y-84544285D01*
X145529857Y-84758571D01*
X145458428Y-84901428D01*
X145387000Y-84972857D01*
X145244142Y-85044285D01*
X144672714Y-85044285D01*
X146744142Y-85687142D02*
X146601285Y-85758571D01*
X146315571Y-85758571D01*
X146172714Y-85687142D01*
X146101285Y-85544285D01*
X146101285Y-84972857D01*
X146172714Y-84830000D01*
X146315571Y-84758571D01*
X146601285Y-84758571D01*
X146744142Y-84830000D01*
X146815571Y-84972857D01*
X146815571Y-85115714D01*
X146101285Y-85258571D01*
X148101285Y-85687142D02*
X147958428Y-85758571D01*
X147672714Y-85758571D01*
X147529857Y-85687142D01*
X147458428Y-85615714D01*
X147387000Y-85472857D01*
X147387000Y-85044285D01*
X147458428Y-84901428D01*
X147529857Y-84830000D01*
X147672714Y-84758571D01*
X147958428Y-84758571D01*
X148101285Y-84830000D01*
X149315571Y-85687142D02*
X149172714Y-85758571D01*
X148887000Y-85758571D01*
X148744142Y-85687142D01*
X148672714Y-85544285D01*
X148672714Y-84972857D01*
X148744142Y-84830000D01*
X148887000Y-84758571D01*
X149172714Y-84758571D01*
X149315571Y-84830000D01*
X149387000Y-84972857D01*
X149387000Y-85115714D01*
X148672714Y-85258571D01*
X150029857Y-85758571D02*
X150029857Y-84758571D01*
X150029857Y-84258571D02*
X149958428Y-84330000D01*
X150029857Y-84401428D01*
X150101285Y-84330000D01*
X150029857Y-84258571D01*
X150029857Y-84401428D01*
X150601285Y-84758571D02*
X150958428Y-85758571D01*
X151315571Y-84758571D01*
X152458428Y-85687142D02*
X152315571Y-85758571D01*
X152029857Y-85758571D01*
X151887000Y-85687142D01*
X151815571Y-85544285D01*
X151815571Y-84972857D01*
X151887000Y-84830000D01*
X152029857Y-84758571D01*
X152315571Y-84758571D01*
X152458428Y-84830000D01*
X152529857Y-84972857D01*
X152529857Y-85115714D01*
X151815571Y-85258571D01*
X153172714Y-85758571D02*
X153172714Y-84758571D01*
X153172714Y-85044285D02*
X153244142Y-84901428D01*
X153315571Y-84830000D01*
X153458428Y-84758571D01*
X153601285Y-84758571D01*
X140601285Y-88308571D02*
X140101285Y-87594285D01*
X139744142Y-88308571D02*
X139744142Y-86808571D01*
X140315571Y-86808571D01*
X140458428Y-86880000D01*
X140529857Y-86951428D01*
X140601285Y-87094285D01*
X140601285Y-87308571D01*
X140529857Y-87451428D01*
X140458428Y-87522857D01*
X140315571Y-87594285D01*
X139744142Y-87594285D01*
X141815571Y-88237142D02*
X141672714Y-88308571D01*
X141387000Y-88308571D01*
X141244142Y-88237142D01*
X141172714Y-88094285D01*
X141172714Y-87522857D01*
X141244142Y-87380000D01*
X141387000Y-87308571D01*
X141672714Y-87308571D01*
X141815571Y-87380000D01*
X141887000Y-87522857D01*
X141887000Y-87665714D01*
X141172714Y-87808571D01*
X142387000Y-87308571D02*
X142744142Y-88308571D01*
X143101285Y-87308571D01*
X144744142Y-86951428D02*
X144815571Y-86880000D01*
X144958428Y-86808571D01*
X145315571Y-86808571D01*
X145458428Y-86880000D01*
X145529857Y-86951428D01*
X145601285Y-87094285D01*
X145601285Y-87237142D01*
X145529857Y-87451428D01*
X144672714Y-88308571D01*
X145601285Y-88308571D01*
X140172714Y-89358571D02*
X140172714Y-90430000D01*
X140101285Y-90644285D01*
X139958428Y-90787142D01*
X139744142Y-90858571D01*
X139601285Y-90858571D01*
X141529857Y-89858571D02*
X141529857Y-90858571D01*
X140887000Y-89858571D02*
X140887000Y-90644285D01*
X140958428Y-90787142D01*
X141101285Y-90858571D01*
X141315571Y-90858571D01*
X141458428Y-90787142D01*
X141529857Y-90715714D01*
X142172714Y-90787142D02*
X142315571Y-90858571D01*
X142601285Y-90858571D01*
X142744142Y-90787142D01*
X142815571Y-90644285D01*
X142815571Y-90572857D01*
X142744142Y-90430000D01*
X142601285Y-90358571D01*
X142387000Y-90358571D01*
X142244142Y-90287142D01*
X142172714Y-90144285D01*
X142172714Y-90072857D01*
X142244142Y-89930000D01*
X142387000Y-89858571D01*
X142601285Y-89858571D01*
X142744142Y-89930000D01*
X143244142Y-89858571D02*
X143815571Y-89858571D01*
X143458428Y-89358571D02*
X143458428Y-90644285D01*
X143529857Y-90787142D01*
X143672714Y-90858571D01*
X143815571Y-90858571D01*
X144315571Y-90858571D02*
X144315571Y-89858571D01*
X144315571Y-89358571D02*
X144244142Y-89430000D01*
X144315571Y-89501428D01*
X144387000Y-89430000D01*
X144315571Y-89358571D01*
X144315571Y-89501428D01*
X145029857Y-89858571D02*
X145029857Y-90858571D01*
X145029857Y-90001428D02*
X145101285Y-89930000D01*
X145244142Y-89858571D01*
X145458428Y-89858571D01*
X145601285Y-89930000D01*
X145672714Y-90072857D01*
X145672714Y-90858571D01*
X147529857Y-90072857D02*
X148029857Y-90072857D01*
X148244142Y-90858571D02*
X147529857Y-90858571D01*
X147529857Y-89358571D01*
X148244142Y-89358571D01*
X148744142Y-89858571D02*
X149101285Y-90858571D01*
X149458428Y-89858571D01*
X150672714Y-90858571D02*
X150672714Y-90072857D01*
X150601285Y-89930000D01*
X150458428Y-89858571D01*
X150172714Y-89858571D01*
X150029857Y-89930000D01*
X150672714Y-90787142D02*
X150529857Y-90858571D01*
X150172714Y-90858571D01*
X150029857Y-90787142D01*
X149958428Y-90644285D01*
X149958428Y-90501428D01*
X150029857Y-90358571D01*
X150172714Y-90287142D01*
X150529857Y-90287142D01*
X150672714Y-90215714D01*
X151387000Y-89858571D02*
X151387000Y-90858571D01*
X151387000Y-90001428D02*
X151458428Y-89930000D01*
X151601285Y-89858571D01*
X151815571Y-89858571D01*
X151958428Y-89930000D01*
X152029857Y-90072857D01*
X152029857Y-90858571D01*
X152744142Y-90858571D02*
X152744142Y-89358571D01*
X152887000Y-90287142D02*
X153315571Y-90858571D01*
X153315571Y-89858571D02*
X152744142Y-90430000D01*
X154172714Y-90858571D02*
X154029857Y-90787142D01*
X153958428Y-90715714D01*
X153887000Y-90572857D01*
X153887000Y-90144285D01*
X153958428Y-90001428D01*
X154029857Y-89930000D01*
X154172714Y-89858571D01*
X154387000Y-89858571D01*
X154529857Y-89930000D01*
X154601285Y-90001428D01*
X154672714Y-90144285D01*
X154672714Y-90572857D01*
X154601285Y-90715714D01*
X154529857Y-90787142D01*
X154387000Y-90858571D01*
X154172714Y-90858571D01*
X155172714Y-89858571D02*
X155529857Y-90858571D01*
X155887000Y-89858571D01*
X156458428Y-90858571D02*
X156458428Y-89858571D01*
X156458428Y-89358571D02*
X156387000Y-89430000D01*
X156458428Y-89501428D01*
X156529857Y-89430000D01*
X156458428Y-89358571D01*
X156458428Y-89501428D01*
X157815571Y-90787142D02*
X157672714Y-90858571D01*
X157387000Y-90858571D01*
X157244142Y-90787142D01*
X157172714Y-90715714D01*
X157101285Y-90572857D01*
X157101285Y-90144285D01*
X157172714Y-90001428D01*
X157244142Y-89930000D01*
X157387000Y-89858571D01*
X157672714Y-89858571D01*
X157815571Y-89930000D01*
X158458428Y-90858571D02*
X158458428Y-89358571D01*
X159101285Y-90858571D02*
X159101285Y-90072857D01*
X159029857Y-89930000D01*
X158887000Y-89858571D01*
X158672714Y-89858571D01*
X158529857Y-89930000D01*
X158458428Y-90001428D01*
D11*
X146844000Y-117942000D02*
X149294000Y-117942000D01*
X148644000Y-114722000D02*
X146844000Y-114722000D01*
X134672000Y-106352078D02*
X134672000Y-105834922D01*
X136092000Y-106352078D02*
X136092000Y-105834922D01*
X144728000Y-117010922D02*
X144728000Y-117528078D01*
X143308000Y-117010922D02*
X143308000Y-117528078D01*
X150420000Y-117010922D02*
X150420000Y-117528078D01*
X151840000Y-117010922D02*
X151840000Y-117528078D01*
X171248000Y-118036078D02*
X171248000Y-117518922D01*
X172668000Y-118036078D02*
X172668000Y-117518922D01*
X175462000Y-120576078D02*
X175462000Y-120058922D01*
X174042000Y-120576078D02*
X174042000Y-120058922D01*
X175948078Y-117550000D02*
X175430922Y-117550000D01*
X175948078Y-116130000D02*
X175430922Y-116130000D01*
X169755078Y-104700000D02*
X169237922Y-104700000D01*
X169755078Y-106120000D02*
X169237922Y-106120000D01*
X164644000Y-104389422D02*
X164644000Y-104906578D01*
X166064000Y-104389422D02*
X166064000Y-104906578D01*
X149435078Y-99516000D02*
X148917922Y-99516000D01*
X149435078Y-98096000D02*
X148917922Y-98096000D01*
X148917922Y-107644000D02*
X149435078Y-107644000D01*
X148917922Y-106224000D02*
X149435078Y-106224000D01*
X169482000Y-86614000D02*
G75*
G03X169482000Y-86614000I-2620000J0D01*
G01*
X166862000Y-87654000D02*
X166862000Y-89194000D01*
X166862000Y-84034000D02*
X166862000Y-85574000D01*
X166902000Y-87654000D02*
X166902000Y-89194000D01*
X166902000Y-84034000D02*
X166902000Y-85574000D01*
X166942000Y-84035000D02*
X166942000Y-85574000D01*
X166942000Y-87654000D02*
X166942000Y-89193000D01*
X166982000Y-84036000D02*
X166982000Y-85574000D01*
X166982000Y-87654000D02*
X166982000Y-89192000D01*
X167022000Y-84038000D02*
X167022000Y-85574000D01*
X167022000Y-87654000D02*
X167022000Y-89190000D01*
X167062000Y-84041000D02*
X167062000Y-85574000D01*
X167062000Y-87654000D02*
X167062000Y-89187000D01*
X167102000Y-84045000D02*
X167102000Y-85574000D01*
X167102000Y-87654000D02*
X167102000Y-89183000D01*
X167142000Y-84049000D02*
X167142000Y-85574000D01*
X167142000Y-87654000D02*
X167142000Y-89179000D01*
X167182000Y-84053000D02*
X167182000Y-85574000D01*
X167182000Y-87654000D02*
X167182000Y-89175000D01*
X167222000Y-84058000D02*
X167222000Y-85574000D01*
X167222000Y-87654000D02*
X167222000Y-89170000D01*
X167262000Y-84064000D02*
X167262000Y-85574000D01*
X167262000Y-87654000D02*
X167262000Y-89164000D01*
X167302000Y-84071000D02*
X167302000Y-85574000D01*
X167302000Y-87654000D02*
X167302000Y-89157000D01*
X167342000Y-84078000D02*
X167342000Y-85574000D01*
X167342000Y-87654000D02*
X167342000Y-89150000D01*
X167382000Y-84086000D02*
X167382000Y-85574000D01*
X167382000Y-87654000D02*
X167382000Y-89142000D01*
X167422000Y-84094000D02*
X167422000Y-85574000D01*
X167422000Y-87654000D02*
X167422000Y-89134000D01*
X167462000Y-84103000D02*
X167462000Y-85574000D01*
X167462000Y-87654000D02*
X167462000Y-89125000D01*
X167502000Y-84113000D02*
X167502000Y-85574000D01*
X167502000Y-87654000D02*
X167502000Y-89115000D01*
X167542000Y-84123000D02*
X167542000Y-85574000D01*
X167542000Y-87654000D02*
X167542000Y-89105000D01*
X167583000Y-84134000D02*
X167583000Y-85574000D01*
X167583000Y-87654000D02*
X167583000Y-89094000D01*
X167623000Y-84146000D02*
X167623000Y-85574000D01*
X167623000Y-87654000D02*
X167623000Y-89082000D01*
X167663000Y-84159000D02*
X167663000Y-85574000D01*
X167663000Y-87654000D02*
X167663000Y-89069000D01*
X167703000Y-84172000D02*
X167703000Y-85574000D01*
X167703000Y-87654000D02*
X167703000Y-89056000D01*
X167743000Y-84186000D02*
X167743000Y-85574000D01*
X167743000Y-87654000D02*
X167743000Y-89042000D01*
X167783000Y-84200000D02*
X167783000Y-85574000D01*
X167783000Y-87654000D02*
X167783000Y-89028000D01*
X167823000Y-84216000D02*
X167823000Y-85574000D01*
X167823000Y-87654000D02*
X167823000Y-89012000D01*
X167863000Y-84232000D02*
X167863000Y-85574000D01*
X167863000Y-87654000D02*
X167863000Y-88996000D01*
X167903000Y-84249000D02*
X167903000Y-85574000D01*
X167903000Y-87654000D02*
X167903000Y-88979000D01*
X167943000Y-84266000D02*
X167943000Y-85574000D01*
X167943000Y-87654000D02*
X167943000Y-88962000D01*
X167983000Y-84285000D02*
X167983000Y-85574000D01*
X167983000Y-87654000D02*
X167983000Y-88943000D01*
X168023000Y-84304000D02*
X168023000Y-85574000D01*
X168023000Y-87654000D02*
X168023000Y-88924000D01*
X168063000Y-84324000D02*
X168063000Y-85574000D01*
X168063000Y-87654000D02*
X168063000Y-88904000D01*
X168103000Y-84346000D02*
X168103000Y-85574000D01*
X168103000Y-87654000D02*
X168103000Y-88882000D01*
X168143000Y-84367000D02*
X168143000Y-85574000D01*
X168143000Y-87654000D02*
X168143000Y-88861000D01*
X168183000Y-84390000D02*
X168183000Y-85574000D01*
X168183000Y-87654000D02*
X168183000Y-88838000D01*
X168223000Y-84414000D02*
X168223000Y-85574000D01*
X168223000Y-87654000D02*
X168223000Y-88814000D01*
X168263000Y-84439000D02*
X168263000Y-85574000D01*
X168263000Y-87654000D02*
X168263000Y-88789000D01*
X168303000Y-84465000D02*
X168303000Y-85574000D01*
X168303000Y-87654000D02*
X168303000Y-88763000D01*
X168343000Y-84492000D02*
X168343000Y-85574000D01*
X168343000Y-87654000D02*
X168343000Y-88736000D01*
X168383000Y-84519000D02*
X168383000Y-85574000D01*
X168383000Y-87654000D02*
X168383000Y-88709000D01*
X168423000Y-84549000D02*
X168423000Y-85574000D01*
X168423000Y-87654000D02*
X168423000Y-88679000D01*
X168463000Y-84579000D02*
X168463000Y-85574000D01*
X168463000Y-87654000D02*
X168463000Y-88649000D01*
X168503000Y-84610000D02*
X168503000Y-85574000D01*
X168503000Y-87654000D02*
X168503000Y-88618000D01*
X168543000Y-84643000D02*
X168543000Y-85574000D01*
X168543000Y-87654000D02*
X168543000Y-88585000D01*
X168583000Y-84677000D02*
X168583000Y-85574000D01*
X168583000Y-87654000D02*
X168583000Y-88551000D01*
X168623000Y-84713000D02*
X168623000Y-85574000D01*
X168623000Y-87654000D02*
X168623000Y-88515000D01*
X168663000Y-84750000D02*
X168663000Y-85574000D01*
X168663000Y-87654000D02*
X168663000Y-88478000D01*
X168703000Y-84788000D02*
X168703000Y-85574000D01*
X168703000Y-87654000D02*
X168703000Y-88440000D01*
X168743000Y-84829000D02*
X168743000Y-85574000D01*
X168743000Y-87654000D02*
X168743000Y-88399000D01*
X168783000Y-84871000D02*
X168783000Y-85574000D01*
X168783000Y-87654000D02*
X168783000Y-88357000D01*
X168823000Y-84915000D02*
X168823000Y-85574000D01*
X168823000Y-87654000D02*
X168823000Y-88313000D01*
X168863000Y-84961000D02*
X168863000Y-85574000D01*
X168863000Y-87654000D02*
X168863000Y-88267000D01*
X168903000Y-85009000D02*
X168903000Y-88219000D01*
X168943000Y-85060000D02*
X168943000Y-88168000D01*
X168983000Y-85114000D02*
X168983000Y-88114000D01*
X169023000Y-85171000D02*
X169023000Y-88057000D01*
X169063000Y-85231000D02*
X169063000Y-87997000D01*
X169103000Y-85295000D02*
X169103000Y-87933000D01*
X169143000Y-85363000D02*
X169143000Y-87865000D01*
X169183000Y-85436000D02*
X169183000Y-87792000D01*
X169223000Y-85516000D02*
X169223000Y-87712000D01*
X169263000Y-85603000D02*
X169263000Y-87625000D01*
X169303000Y-85699000D02*
X169303000Y-87529000D01*
X169343000Y-85809000D02*
X169343000Y-87419000D01*
X169383000Y-85937000D02*
X169383000Y-87291000D01*
X169423000Y-86096000D02*
X169423000Y-87132000D01*
X169463000Y-86330000D02*
X169463000Y-86898000D01*
X164057225Y-85139000D02*
X164557225Y-85139000D01*
X164307225Y-84889000D02*
X164307225Y-85389000D01*
X169254000Y-114792000D02*
X169254000Y-112792000D01*
X169254000Y-112792000D02*
X165354000Y-112792000D01*
X169254000Y-114792000D02*
X165354000Y-114792000D01*
X169254000Y-119872000D02*
X165354000Y-119872000D01*
X169254000Y-117872000D02*
X165354000Y-117872000D01*
X169254000Y-119872000D02*
X169254000Y-117872000D01*
X130152000Y-107636000D02*
X130152000Y-98836000D01*
X126982000Y-109381000D02*
X125932000Y-109381000D01*
X126982000Y-97091000D02*
X125932000Y-97091000D01*
X180186000Y-105660000D02*
X180686000Y-105410000D01*
X180186000Y-105160000D02*
X180186000Y-105660000D01*
X180686000Y-105410000D02*
X180186000Y-105160000D01*
X185164000Y-85910000D02*
X186364000Y-85910000D01*
X186364000Y-85910000D02*
X186364000Y-86410000D01*
X186364000Y-86410000D02*
X188864000Y-86410000D01*
X188864000Y-86410000D02*
X188864000Y-91610000D01*
X188864000Y-91610000D02*
X186364000Y-91610000D01*
X186364000Y-91610000D02*
X186364000Y-92110000D01*
X186364000Y-92110000D02*
X183164000Y-92110000D01*
X180564000Y-92110000D02*
X171664000Y-92110000D01*
X171664000Y-92110000D02*
X171664000Y-85910000D01*
X171664000Y-85910000D02*
X172864000Y-85910000D01*
X176064000Y-85910000D02*
X182564000Y-85910000D01*
X185164000Y-85910000D02*
X185164000Y-83910000D01*
X182564000Y-85910000D02*
X182564000Y-83910000D01*
X139118078Y-110946000D02*
X138600922Y-110946000D01*
X139118078Y-109526000D02*
X138600922Y-109526000D01*
X169237922Y-103326000D02*
X169755078Y-103326000D01*
X169237922Y-101906000D02*
X169755078Y-101906000D01*
X169755078Y-101294000D02*
X169237922Y-101294000D01*
X169755078Y-99874000D02*
X169237922Y-99874000D01*
X148917922Y-105358000D02*
X149435078Y-105358000D01*
X148917922Y-103938000D02*
X149435078Y-103938000D01*
X177884000Y-104732000D02*
X173144000Y-104732000D01*
X177884000Y-99992000D02*
X173144000Y-99992000D01*
X173144000Y-103602000D02*
X173144000Y-104732000D01*
X173144000Y-99992000D02*
X173144000Y-101122000D01*
X177884000Y-102103000D02*
X177884000Y-102622000D01*
X177884000Y-99992000D02*
X177884000Y-100323000D01*
X177884000Y-104402000D02*
X177884000Y-104732000D01*
X154178000Y-112268000D02*
G75*
G03X154178000Y-112268000I-254000J0D01*
G01*
X154940000Y-113030000D02*
X154940000Y-119634000D01*
X154940000Y-119634000D02*
X162052000Y-119634000D01*
X162052000Y-119634000D02*
X162052000Y-113030000D01*
X162052000Y-113030000D02*
X154940000Y-113030000D01*
X140092000Y-105451000D02*
X138292000Y-105451000D01*
X138292000Y-108671000D02*
X140742000Y-108671000D01*
X169536000Y-106644000D02*
X167776000Y-106644000D01*
X167776000Y-109714000D02*
X170206000Y-109714000D01*
X164121000Y-107213000D02*
X163321000Y-108013000D01*
X163321000Y-108013000D02*
X152871000Y-108013000D01*
X152871000Y-108013000D02*
X152871000Y-98743000D01*
X152871000Y-98743000D02*
X164121000Y-98743000D01*
X164121000Y-98743000D02*
X164121000Y-107213000D01*
X149430000Y-100156000D02*
X147000000Y-100156000D01*
X147670000Y-103226000D02*
X149430000Y-103226000D01*
X179410000Y-120958000D02*
X179410000Y-119158000D01*
X176190000Y-119158000D02*
X176190000Y-121608000D01*
D12*
X146982095Y-118578380D02*
X146982095Y-119387904D01*
X147029714Y-119483142D01*
X147077333Y-119530761D01*
X147172571Y-119578380D01*
X147363047Y-119578380D01*
X147458285Y-119530761D01*
X147505904Y-119483142D01*
X147553523Y-119387904D01*
X147553523Y-118578380D01*
X147982095Y-118673619D02*
X148029714Y-118626000D01*
X148124952Y-118578380D01*
X148363047Y-118578380D01*
X148458285Y-118626000D01*
X148505904Y-118673619D01*
X148553523Y-118768857D01*
X148553523Y-118864095D01*
X148505904Y-119006952D01*
X147934476Y-119578380D01*
X148553523Y-119578380D01*
X135215333Y-103735142D02*
X135167714Y-103782761D01*
X135024857Y-103830380D01*
X134929619Y-103830380D01*
X134786761Y-103782761D01*
X134691523Y-103687523D01*
X134643904Y-103592285D01*
X134596285Y-103401809D01*
X134596285Y-103258952D01*
X134643904Y-103068476D01*
X134691523Y-102973238D01*
X134786761Y-102878000D01*
X134929619Y-102830380D01*
X135024857Y-102830380D01*
X135167714Y-102878000D01*
X135215333Y-102925619D01*
X136167714Y-103830380D02*
X135596285Y-103830380D01*
X135882000Y-103830380D02*
X135882000Y-102830380D01*
X135786761Y-102973238D01*
X135691523Y-103068476D01*
X135596285Y-103116095D01*
X143851333Y-120245142D02*
X143803714Y-120292761D01*
X143660857Y-120340380D01*
X143565619Y-120340380D01*
X143422761Y-120292761D01*
X143327523Y-120197523D01*
X143279904Y-120102285D01*
X143232285Y-119911809D01*
X143232285Y-119768952D01*
X143279904Y-119578476D01*
X143327523Y-119483238D01*
X143422761Y-119388000D01*
X143565619Y-119340380D01*
X143660857Y-119340380D01*
X143803714Y-119388000D01*
X143851333Y-119435619D01*
X144232285Y-119435619D02*
X144279904Y-119388000D01*
X144375142Y-119340380D01*
X144613238Y-119340380D01*
X144708476Y-119388000D01*
X144756095Y-119435619D01*
X144803714Y-119530857D01*
X144803714Y-119626095D01*
X144756095Y-119768952D01*
X144184666Y-120340380D01*
X144803714Y-120340380D01*
X150963333Y-120245142D02*
X150915714Y-120292761D01*
X150772857Y-120340380D01*
X150677619Y-120340380D01*
X150534761Y-120292761D01*
X150439523Y-120197523D01*
X150391904Y-120102285D01*
X150344285Y-119911809D01*
X150344285Y-119768952D01*
X150391904Y-119578476D01*
X150439523Y-119483238D01*
X150534761Y-119388000D01*
X150677619Y-119340380D01*
X150772857Y-119340380D01*
X150915714Y-119388000D01*
X150963333Y-119435619D01*
X151296666Y-119340380D02*
X151915714Y-119340380D01*
X151582380Y-119721333D01*
X151725238Y-119721333D01*
X151820476Y-119768952D01*
X151868095Y-119816571D01*
X151915714Y-119911809D01*
X151915714Y-120149904D01*
X151868095Y-120245142D01*
X151820476Y-120292761D01*
X151725238Y-120340380D01*
X151439523Y-120340380D01*
X151344285Y-120292761D01*
X151296666Y-120245142D01*
X171791333Y-115673142D02*
X171743714Y-115720761D01*
X171600857Y-115768380D01*
X171505619Y-115768380D01*
X171362761Y-115720761D01*
X171267523Y-115625523D01*
X171219904Y-115530285D01*
X171172285Y-115339809D01*
X171172285Y-115196952D01*
X171219904Y-115006476D01*
X171267523Y-114911238D01*
X171362761Y-114816000D01*
X171505619Y-114768380D01*
X171600857Y-114768380D01*
X171743714Y-114816000D01*
X171791333Y-114863619D01*
X172648476Y-115101714D02*
X172648476Y-115768380D01*
X172410380Y-114720761D02*
X172172285Y-115435047D01*
X172791333Y-115435047D01*
X172553333Y-121769142D02*
X172505714Y-121816761D01*
X172362857Y-121864380D01*
X172267619Y-121864380D01*
X172124761Y-121816761D01*
X172029523Y-121721523D01*
X171981904Y-121626285D01*
X171934285Y-121435809D01*
X171934285Y-121292952D01*
X171981904Y-121102476D01*
X172029523Y-121007238D01*
X172124761Y-120912000D01*
X172267619Y-120864380D01*
X172362857Y-120864380D01*
X172505714Y-120912000D01*
X172553333Y-120959619D01*
X173458095Y-120864380D02*
X172981904Y-120864380D01*
X172934285Y-121340571D01*
X172981904Y-121292952D01*
X173077142Y-121245333D01*
X173315238Y-121245333D01*
X173410476Y-121292952D01*
X173458095Y-121340571D01*
X173505714Y-121435809D01*
X173505714Y-121673904D01*
X173458095Y-121769142D01*
X173410476Y-121816761D01*
X173315238Y-121864380D01*
X173077142Y-121864380D01*
X172981904Y-121816761D01*
X172934285Y-121769142D01*
X175522833Y-115419142D02*
X175475214Y-115466761D01*
X175332357Y-115514380D01*
X175237119Y-115514380D01*
X175094261Y-115466761D01*
X174999023Y-115371523D01*
X174951404Y-115276285D01*
X174903785Y-115085809D01*
X174903785Y-114942952D01*
X174951404Y-114752476D01*
X174999023Y-114657238D01*
X175094261Y-114562000D01*
X175237119Y-114514380D01*
X175332357Y-114514380D01*
X175475214Y-114562000D01*
X175522833Y-114609619D01*
X176379976Y-114514380D02*
X176189500Y-114514380D01*
X176094261Y-114562000D01*
X176046642Y-114609619D01*
X175951404Y-114752476D01*
X175903785Y-114942952D01*
X175903785Y-115323904D01*
X175951404Y-115419142D01*
X175999023Y-115466761D01*
X176094261Y-115514380D01*
X176284738Y-115514380D01*
X176379976Y-115466761D01*
X176427595Y-115419142D01*
X176475214Y-115323904D01*
X176475214Y-115085809D01*
X176427595Y-114990571D01*
X176379976Y-114942952D01*
X176284738Y-114895333D01*
X176094261Y-114895333D01*
X175999023Y-114942952D01*
X175951404Y-114990571D01*
X175903785Y-115085809D01*
X172045333Y-106529142D02*
X171997714Y-106576761D01*
X171854857Y-106624380D01*
X171759619Y-106624380D01*
X171616761Y-106576761D01*
X171521523Y-106481523D01*
X171473904Y-106386285D01*
X171426285Y-106195809D01*
X171426285Y-106052952D01*
X171473904Y-105862476D01*
X171521523Y-105767238D01*
X171616761Y-105672000D01*
X171759619Y-105624380D01*
X171854857Y-105624380D01*
X171997714Y-105672000D01*
X172045333Y-105719619D01*
X172378666Y-105624380D02*
X173045333Y-105624380D01*
X172616761Y-106624380D01*
X164933333Y-102719142D02*
X164885714Y-102766761D01*
X164742857Y-102814380D01*
X164647619Y-102814380D01*
X164504761Y-102766761D01*
X164409523Y-102671523D01*
X164361904Y-102576285D01*
X164314285Y-102385809D01*
X164314285Y-102242952D01*
X164361904Y-102052476D01*
X164409523Y-101957238D01*
X164504761Y-101862000D01*
X164647619Y-101814380D01*
X164742857Y-101814380D01*
X164885714Y-101862000D01*
X164933333Y-101909619D01*
X165504761Y-102242952D02*
X165409523Y-102195333D01*
X165361904Y-102147714D01*
X165314285Y-102052476D01*
X165314285Y-102004857D01*
X165361904Y-101909619D01*
X165409523Y-101862000D01*
X165504761Y-101814380D01*
X165695238Y-101814380D01*
X165790476Y-101862000D01*
X165838095Y-101909619D01*
X165885714Y-102004857D01*
X165885714Y-102052476D01*
X165838095Y-102147714D01*
X165790476Y-102195333D01*
X165695238Y-102242952D01*
X165504761Y-102242952D01*
X165409523Y-102290571D01*
X165361904Y-102338190D01*
X165314285Y-102433428D01*
X165314285Y-102623904D01*
X165361904Y-102719142D01*
X165409523Y-102766761D01*
X165504761Y-102814380D01*
X165695238Y-102814380D01*
X165790476Y-102766761D01*
X165838095Y-102719142D01*
X165885714Y-102623904D01*
X165885714Y-102433428D01*
X165838095Y-102338190D01*
X165790476Y-102290571D01*
X165695238Y-102242952D01*
X145883333Y-99163142D02*
X145835714Y-99210761D01*
X145692857Y-99258380D01*
X145597619Y-99258380D01*
X145454761Y-99210761D01*
X145359523Y-99115523D01*
X145311904Y-99020285D01*
X145264285Y-98829809D01*
X145264285Y-98686952D01*
X145311904Y-98496476D01*
X145359523Y-98401238D01*
X145454761Y-98306000D01*
X145597619Y-98258380D01*
X145692857Y-98258380D01*
X145835714Y-98306000D01*
X145883333Y-98353619D01*
X146359523Y-99258380D02*
X146550000Y-99258380D01*
X146645238Y-99210761D01*
X146692857Y-99163142D01*
X146788095Y-99020285D01*
X146835714Y-98829809D01*
X146835714Y-98448857D01*
X146788095Y-98353619D01*
X146740476Y-98306000D01*
X146645238Y-98258380D01*
X146454761Y-98258380D01*
X146359523Y-98306000D01*
X146311904Y-98353619D01*
X146264285Y-98448857D01*
X146264285Y-98686952D01*
X146311904Y-98782190D01*
X146359523Y-98829809D01*
X146454761Y-98877428D01*
X146645238Y-98877428D01*
X146740476Y-98829809D01*
X146788095Y-98782190D01*
X146835714Y-98686952D01*
X145153142Y-107291142D02*
X145105523Y-107338761D01*
X144962666Y-107386380D01*
X144867428Y-107386380D01*
X144724571Y-107338761D01*
X144629333Y-107243523D01*
X144581714Y-107148285D01*
X144534095Y-106957809D01*
X144534095Y-106814952D01*
X144581714Y-106624476D01*
X144629333Y-106529238D01*
X144724571Y-106434000D01*
X144867428Y-106386380D01*
X144962666Y-106386380D01*
X145105523Y-106434000D01*
X145153142Y-106481619D01*
X146105523Y-107386380D02*
X145534095Y-107386380D01*
X145819809Y-107386380D02*
X145819809Y-106386380D01*
X145724571Y-106529238D01*
X145629333Y-106624476D01*
X145534095Y-106672095D01*
X146724571Y-106386380D02*
X146819809Y-106386380D01*
X146915047Y-106434000D01*
X146962666Y-106481619D01*
X147010285Y-106576857D01*
X147057904Y-106767333D01*
X147057904Y-107005428D01*
X147010285Y-107195904D01*
X146962666Y-107291142D01*
X146915047Y-107338761D01*
X146819809Y-107386380D01*
X146724571Y-107386380D01*
X146629333Y-107338761D01*
X146581714Y-107291142D01*
X146534095Y-107195904D01*
X146486476Y-107005428D01*
X146486476Y-106767333D01*
X146534095Y-106576857D01*
X146581714Y-106481619D01*
X146629333Y-106434000D01*
X146724571Y-106386380D01*
X161409142Y-86971142D02*
X161361523Y-87018761D01*
X161218666Y-87066380D01*
X161123428Y-87066380D01*
X160980571Y-87018761D01*
X160885333Y-86923523D01*
X160837714Y-86828285D01*
X160790095Y-86637809D01*
X160790095Y-86494952D01*
X160837714Y-86304476D01*
X160885333Y-86209238D01*
X160980571Y-86114000D01*
X161123428Y-86066380D01*
X161218666Y-86066380D01*
X161361523Y-86114000D01*
X161409142Y-86161619D01*
X162361523Y-87066380D02*
X161790095Y-87066380D01*
X162075809Y-87066380D02*
X162075809Y-86066380D01*
X161980571Y-86209238D01*
X161885333Y-86304476D01*
X161790095Y-86352095D01*
X163313904Y-87066380D02*
X162742476Y-87066380D01*
X163028190Y-87066380D02*
X163028190Y-86066380D01*
X162932952Y-86209238D01*
X162837714Y-86304476D01*
X162742476Y-86352095D01*
X166265904Y-116244380D02*
X166265904Y-115244380D01*
X166504000Y-115244380D01*
X166646857Y-115292000D01*
X166742095Y-115387238D01*
X166789714Y-115482476D01*
X166837333Y-115672952D01*
X166837333Y-115815809D01*
X166789714Y-116006285D01*
X166742095Y-116101523D01*
X166646857Y-116196761D01*
X166504000Y-116244380D01*
X166265904Y-116244380D01*
X167789714Y-116244380D02*
X167218285Y-116244380D01*
X167504000Y-116244380D02*
X167504000Y-115244380D01*
X167408761Y-115387238D01*
X167313523Y-115482476D01*
X167218285Y-115530095D01*
X166265904Y-121324380D02*
X166265904Y-120324380D01*
X166504000Y-120324380D01*
X166646857Y-120372000D01*
X166742095Y-120467238D01*
X166789714Y-120562476D01*
X166837333Y-120752952D01*
X166837333Y-120895809D01*
X166789714Y-121086285D01*
X166742095Y-121181523D01*
X166646857Y-121276761D01*
X166504000Y-121324380D01*
X166265904Y-121324380D01*
X167218285Y-120419619D02*
X167265904Y-120372000D01*
X167361142Y-120324380D01*
X167599238Y-120324380D01*
X167694476Y-120372000D01*
X167742095Y-120419619D01*
X167789714Y-120514857D01*
X167789714Y-120610095D01*
X167742095Y-120752952D01*
X167170666Y-121324380D01*
X167789714Y-121324380D01*
X131786380Y-97615333D02*
X132500666Y-97615333D01*
X132643523Y-97662952D01*
X132738761Y-97758190D01*
X132786380Y-97901047D01*
X132786380Y-97996285D01*
X132786380Y-96615333D02*
X132786380Y-97186761D01*
X132786380Y-96901047D02*
X131786380Y-96901047D01*
X131929238Y-96996285D01*
X132024476Y-97091523D01*
X132072095Y-97186761D01*
X183562666Y-98258380D02*
X183562666Y-98972666D01*
X183515047Y-99115523D01*
X183419809Y-99210761D01*
X183276952Y-99258380D01*
X183181714Y-99258380D01*
X183991238Y-98353619D02*
X184038857Y-98306000D01*
X184134095Y-98258380D01*
X184372190Y-98258380D01*
X184467428Y-98306000D01*
X184515047Y-98353619D01*
X184562666Y-98448857D01*
X184562666Y-98544095D01*
X184515047Y-98686952D01*
X183943619Y-99258380D01*
X184562666Y-99258380D01*
X171878666Y-92924380D02*
X171878666Y-93638666D01*
X171831047Y-93781523D01*
X171735809Y-93876761D01*
X171592952Y-93924380D01*
X171497714Y-93924380D01*
X172259619Y-92924380D02*
X172878666Y-92924380D01*
X172545333Y-93305333D01*
X172688190Y-93305333D01*
X172783428Y-93352952D01*
X172831047Y-93400571D01*
X172878666Y-93495809D01*
X172878666Y-93733904D01*
X172831047Y-93829142D01*
X172783428Y-93876761D01*
X172688190Y-93924380D01*
X172402476Y-93924380D01*
X172307238Y-93876761D01*
X172259619Y-93829142D01*
X138692833Y-112720380D02*
X138359500Y-112244190D01*
X138121404Y-112720380D02*
X138121404Y-111720380D01*
X138502357Y-111720380D01*
X138597595Y-111768000D01*
X138645214Y-111815619D01*
X138692833Y-111910857D01*
X138692833Y-112053714D01*
X138645214Y-112148952D01*
X138597595Y-112196571D01*
X138502357Y-112244190D01*
X138121404Y-112244190D01*
X139645214Y-112720380D02*
X139073785Y-112720380D01*
X139359500Y-112720380D02*
X139359500Y-111720380D01*
X139264261Y-111863238D01*
X139169023Y-111958476D01*
X139073785Y-112006095D01*
X167584380Y-102782666D02*
X167108190Y-103116000D01*
X167584380Y-103354095D02*
X166584380Y-103354095D01*
X166584380Y-102973142D01*
X166632000Y-102877904D01*
X166679619Y-102830285D01*
X166774857Y-102782666D01*
X166917714Y-102782666D01*
X167012952Y-102830285D01*
X167060571Y-102877904D01*
X167108190Y-102973142D01*
X167108190Y-103354095D01*
X166679619Y-102401714D02*
X166632000Y-102354095D01*
X166584380Y-102258857D01*
X166584380Y-102020761D01*
X166632000Y-101925523D01*
X166679619Y-101877904D01*
X166774857Y-101830285D01*
X166870095Y-101830285D01*
X167012952Y-101877904D01*
X167584380Y-102449333D01*
X167584380Y-101830285D01*
X167584380Y-100750666D02*
X167108190Y-101084000D01*
X167584380Y-101322095D02*
X166584380Y-101322095D01*
X166584380Y-100941142D01*
X166632000Y-100845904D01*
X166679619Y-100798285D01*
X166774857Y-100750666D01*
X166917714Y-100750666D01*
X167012952Y-100798285D01*
X167060571Y-100845904D01*
X167108190Y-100941142D01*
X167108190Y-101322095D01*
X166584380Y-100417333D02*
X166584380Y-99798285D01*
X166965333Y-100131619D01*
X166965333Y-99988761D01*
X167012952Y-99893523D01*
X167060571Y-99845904D01*
X167155809Y-99798285D01*
X167393904Y-99798285D01*
X167489142Y-99845904D01*
X167536761Y-99893523D01*
X167584380Y-99988761D01*
X167584380Y-100274476D01*
X167536761Y-100369714D01*
X167489142Y-100417333D01*
X145629333Y-105100380D02*
X145296000Y-104624190D01*
X145057904Y-105100380D02*
X145057904Y-104100380D01*
X145438857Y-104100380D01*
X145534095Y-104148000D01*
X145581714Y-104195619D01*
X145629333Y-104290857D01*
X145629333Y-104433714D01*
X145581714Y-104528952D01*
X145534095Y-104576571D01*
X145438857Y-104624190D01*
X145057904Y-104624190D01*
X146486476Y-104433714D02*
X146486476Y-105100380D01*
X146248380Y-104052761D02*
X146010285Y-104767047D01*
X146629333Y-104767047D01*
X174918761Y-106370380D02*
X174585428Y-105894190D01*
X174347333Y-106370380D02*
X174347333Y-105370380D01*
X174728285Y-105370380D01*
X174823523Y-105418000D01*
X174871142Y-105465619D01*
X174918761Y-105560857D01*
X174918761Y-105703714D01*
X174871142Y-105798952D01*
X174823523Y-105846571D01*
X174728285Y-105894190D01*
X174347333Y-105894190D01*
X175204476Y-105370380D02*
X175537809Y-106370380D01*
X175871142Y-105370380D01*
X176728285Y-106370380D02*
X176156857Y-106370380D01*
X176442571Y-106370380D02*
X176442571Y-105370380D01*
X176347333Y-105513238D01*
X176252095Y-105608476D01*
X176156857Y-105656095D01*
X157734095Y-111339380D02*
X158305523Y-111339380D01*
X158019809Y-112339380D02*
X158019809Y-111339380D01*
X159162666Y-112339380D02*
X158591238Y-112339380D01*
X158876952Y-112339380D02*
X158876952Y-111339380D01*
X158781714Y-111482238D01*
X158686476Y-111577476D01*
X158591238Y-111625095D01*
X138430095Y-103846380D02*
X138430095Y-104655904D01*
X138477714Y-104751142D01*
X138525333Y-104798761D01*
X138620571Y-104846380D01*
X138811047Y-104846380D01*
X138906285Y-104798761D01*
X138953904Y-104751142D01*
X139001523Y-104655904D01*
X139001523Y-103846380D01*
X140001523Y-104846380D02*
X139430095Y-104846380D01*
X139715809Y-104846380D02*
X139715809Y-103846380D01*
X139620571Y-103989238D01*
X139525333Y-104084476D01*
X139430095Y-104132095D01*
X167894095Y-110106380D02*
X167894095Y-110915904D01*
X167941714Y-111011142D01*
X167989333Y-111058761D01*
X168084571Y-111106380D01*
X168275047Y-111106380D01*
X168370285Y-111058761D01*
X168417904Y-111011142D01*
X168465523Y-110915904D01*
X168465523Y-110106380D01*
X169370285Y-110439714D02*
X169370285Y-111106380D01*
X169132190Y-110058761D02*
X168894095Y-110773047D01*
X169513142Y-110773047D01*
X157734095Y-97242380D02*
X157734095Y-98051904D01*
X157781714Y-98147142D01*
X157829333Y-98194761D01*
X157924571Y-98242380D01*
X158115047Y-98242380D01*
X158210285Y-98194761D01*
X158257904Y-98147142D01*
X158305523Y-98051904D01*
X158305523Y-97242380D01*
X159257904Y-97242380D02*
X158781714Y-97242380D01*
X158734095Y-97718571D01*
X158781714Y-97670952D01*
X158876952Y-97623333D01*
X159115047Y-97623333D01*
X159210285Y-97670952D01*
X159257904Y-97718571D01*
X159305523Y-97813809D01*
X159305523Y-98051904D01*
X159257904Y-98147142D01*
X159210285Y-98194761D01*
X159115047Y-98242380D01*
X158876952Y-98242380D01*
X158781714Y-98194761D01*
X158734095Y-98147142D01*
X144526095Y-101052380D02*
X144526095Y-101861904D01*
X144573714Y-101957142D01*
X144621333Y-102004761D01*
X144716571Y-102052380D01*
X144907047Y-102052380D01*
X145002285Y-102004761D01*
X145049904Y-101957142D01*
X145097523Y-101861904D01*
X145097523Y-101052380D01*
X146002285Y-101052380D02*
X145811809Y-101052380D01*
X145716571Y-101100000D01*
X145668952Y-101147619D01*
X145573714Y-101290476D01*
X145526095Y-101480952D01*
X145526095Y-101861904D01*
X145573714Y-101957142D01*
X145621333Y-102004761D01*
X145716571Y-102052380D01*
X145907047Y-102052380D01*
X146002285Y-102004761D01*
X146049904Y-101957142D01*
X146097523Y-101861904D01*
X146097523Y-101623809D01*
X146049904Y-101528571D01*
X146002285Y-101480952D01*
X145907047Y-101433333D01*
X145716571Y-101433333D01*
X145621333Y-101480952D01*
X145573714Y-101528571D01*
X145526095Y-101623809D01*
X178054095Y-116716380D02*
X178054095Y-117525904D01*
X178101714Y-117621142D01*
X178149333Y-117668761D01*
X178244571Y-117716380D01*
X178435047Y-117716380D01*
X178530285Y-117668761D01*
X178577904Y-117621142D01*
X178625523Y-117525904D01*
X178625523Y-116716380D01*
X179006476Y-116716380D02*
X179625523Y-116716380D01*
X179292190Y-117097333D01*
X179435047Y-117097333D01*
X179530285Y-117144952D01*
X179577904Y-117192571D01*
X179625523Y-117287809D01*
X179625523Y-117525904D01*
X179577904Y-117621142D01*
X179530285Y-117668761D01*
X179435047Y-117716380D01*
X179149333Y-117716380D01*
X179054095Y-117668761D01*
X179006476Y-117621142D01*
M02*
