G04 #@! TF.GenerationSoftware,KiCad,Pcbnew,5.1.5*
G04 #@! TF.CreationDate,2020-06-04T17:32:55-05:00*
G04 #@! TF.ProjectId,Receiver,52656365-6976-4657-922e-6b696361645f,rev?*
G04 #@! TF.SameCoordinates,Original*
G04 #@! TF.FileFunction,Soldermask,Bot*
G04 #@! TF.FilePolarity,Negative*
%FSLAX46Y46*%
G04 Gerber Fmt 4.6, Leading zero omitted, Abs format (unit mm)*
G04 Created by KiCad (PCBNEW 5.1.5) date 2020-06-04 17:32:55*
%MOMM*%
%LPD*%
G04 APERTURE LIST*
%ADD10C,0.100000*%
G04 APERTURE END LIST*
D10*
G36*
X186487000Y-110461000D02*
G01*
X181305000Y-110461000D01*
X181305000Y-108859000D01*
X186487000Y-108859000D01*
X186487000Y-110461000D01*
G37*
G36*
X130028228Y-107949483D02*
G01*
X130216922Y-108006723D01*
X130390815Y-108099671D01*
X130543239Y-108224761D01*
X130668329Y-108377185D01*
X130761277Y-108551078D01*
X130818517Y-108739772D01*
X130837843Y-108936000D01*
X130818517Y-109132228D01*
X130761277Y-109320922D01*
X130668329Y-109494815D01*
X130543239Y-109647239D01*
X130390815Y-109772329D01*
X130216922Y-109865277D01*
X130028228Y-109922517D01*
X129881175Y-109937000D01*
X128182825Y-109937000D01*
X128035772Y-109922517D01*
X127847078Y-109865277D01*
X127673185Y-109772329D01*
X127520761Y-109647239D01*
X127395671Y-109494815D01*
X127302723Y-109320922D01*
X127245483Y-109132228D01*
X127226157Y-108936000D01*
X127245483Y-108739772D01*
X127302723Y-108551078D01*
X127395671Y-108377185D01*
X127520761Y-108224761D01*
X127673185Y-108099671D01*
X127847078Y-108006723D01*
X128035772Y-107949483D01*
X128182825Y-107935000D01*
X129881175Y-107935000D01*
X130028228Y-107949483D01*
G37*
G36*
X129168601Y-104950397D02*
G01*
X129207305Y-104958096D01*
X129239340Y-104971365D01*
X129316680Y-105003400D01*
X129415115Y-105069173D01*
X129498827Y-105152885D01*
X129564600Y-105251320D01*
X129609904Y-105360696D01*
X129633000Y-105476805D01*
X129633000Y-105595195D01*
X129609904Y-105711304D01*
X129564600Y-105820680D01*
X129498827Y-105919115D01*
X129415115Y-106002827D01*
X129316680Y-106068600D01*
X129239340Y-106100635D01*
X129207305Y-106113904D01*
X129168601Y-106121603D01*
X129091195Y-106137000D01*
X128972805Y-106137000D01*
X128895399Y-106121603D01*
X128856695Y-106113904D01*
X128824660Y-106100635D01*
X128747320Y-106068600D01*
X128648885Y-106002827D01*
X128565173Y-105919115D01*
X128499400Y-105820680D01*
X128454096Y-105711304D01*
X128431000Y-105595195D01*
X128431000Y-105476805D01*
X128454096Y-105360696D01*
X128499400Y-105251320D01*
X128565173Y-105152885D01*
X128648885Y-105069173D01*
X128747320Y-105003400D01*
X128824660Y-104971365D01*
X128856695Y-104958096D01*
X128895399Y-104950397D01*
X128972805Y-104935000D01*
X129091195Y-104935000D01*
X129168601Y-104950397D01*
G37*
G36*
X186487000Y-101961000D02*
G01*
X181305000Y-101961000D01*
X181305000Y-100359000D01*
X186487000Y-100359000D01*
X186487000Y-101961000D01*
G37*
G36*
X129168601Y-100350397D02*
G01*
X129207305Y-100358096D01*
X129239340Y-100371365D01*
X129316680Y-100403400D01*
X129415115Y-100469173D01*
X129498827Y-100552885D01*
X129564600Y-100651320D01*
X129609904Y-100760696D01*
X129633000Y-100876805D01*
X129633000Y-100995195D01*
X129609904Y-101111304D01*
X129564600Y-101220680D01*
X129498827Y-101319115D01*
X129415115Y-101402827D01*
X129316680Y-101468600D01*
X129239340Y-101500635D01*
X129207305Y-101513904D01*
X129168601Y-101521603D01*
X129091195Y-101537000D01*
X128972805Y-101537000D01*
X128895399Y-101521603D01*
X128856695Y-101513904D01*
X128824660Y-101500635D01*
X128747320Y-101468600D01*
X128648885Y-101402827D01*
X128565173Y-101319115D01*
X128499400Y-101220680D01*
X128454096Y-101111304D01*
X128431000Y-100995195D01*
X128431000Y-100876805D01*
X128454096Y-100760696D01*
X128499400Y-100651320D01*
X128565173Y-100552885D01*
X128648885Y-100469173D01*
X128747320Y-100403400D01*
X128824660Y-100371365D01*
X128856695Y-100358096D01*
X128895399Y-100350397D01*
X128972805Y-100335000D01*
X129091195Y-100335000D01*
X129168601Y-100350397D01*
G37*
G36*
X130028228Y-96549483D02*
G01*
X130216922Y-96606723D01*
X130390815Y-96699671D01*
X130543239Y-96824761D01*
X130668329Y-96977185D01*
X130761277Y-97151078D01*
X130818517Y-97339772D01*
X130837843Y-97536000D01*
X130818517Y-97732228D01*
X130761277Y-97920922D01*
X130668329Y-98094815D01*
X130543239Y-98247239D01*
X130390815Y-98372329D01*
X130216922Y-98465277D01*
X130028228Y-98522517D01*
X129881175Y-98537000D01*
X128182825Y-98537000D01*
X128035772Y-98522517D01*
X127847078Y-98465277D01*
X127673185Y-98372329D01*
X127520761Y-98247239D01*
X127395671Y-98094815D01*
X127302723Y-97920922D01*
X127245483Y-97732228D01*
X127226157Y-97536000D01*
X127245483Y-97339772D01*
X127302723Y-97151078D01*
X127395671Y-96977185D01*
X127520761Y-96824761D01*
X127673185Y-96699671D01*
X127847078Y-96606723D01*
X128035772Y-96549483D01*
X128182825Y-96535000D01*
X129881175Y-96535000D01*
X130028228Y-96549483D01*
G37*
G36*
X175877512Y-88113927D02*
G01*
X176026812Y-88143624D01*
X176190784Y-88211544D01*
X176338354Y-88310147D01*
X176463853Y-88435646D01*
X176562456Y-88583216D01*
X176630376Y-88747188D01*
X176665000Y-88921259D01*
X176665000Y-89098741D01*
X176630376Y-89272812D01*
X176562456Y-89436784D01*
X176463853Y-89584354D01*
X176338354Y-89709853D01*
X176190784Y-89808456D01*
X176026812Y-89876376D01*
X175877512Y-89906073D01*
X175852742Y-89911000D01*
X175675258Y-89911000D01*
X175650488Y-89906073D01*
X175501188Y-89876376D01*
X175337216Y-89808456D01*
X175189646Y-89709853D01*
X175064147Y-89584354D01*
X174965544Y-89436784D01*
X174897624Y-89272812D01*
X174863000Y-89098741D01*
X174863000Y-88921259D01*
X174897624Y-88747188D01*
X174965544Y-88583216D01*
X175064147Y-88435646D01*
X175189646Y-88310147D01*
X175337216Y-88211544D01*
X175501188Y-88143624D01*
X175650488Y-88113927D01*
X175675258Y-88109000D01*
X175852742Y-88109000D01*
X175877512Y-88113927D01*
G37*
G36*
X182877512Y-88113927D02*
G01*
X183026812Y-88143624D01*
X183190784Y-88211544D01*
X183338354Y-88310147D01*
X183463853Y-88435646D01*
X183562456Y-88583216D01*
X183630376Y-88747188D01*
X183665000Y-88921259D01*
X183665000Y-89098741D01*
X183630376Y-89272812D01*
X183562456Y-89436784D01*
X183463853Y-89584354D01*
X183338354Y-89709853D01*
X183190784Y-89808456D01*
X183026812Y-89876376D01*
X182877512Y-89906073D01*
X182852742Y-89911000D01*
X182675258Y-89911000D01*
X182650488Y-89906073D01*
X182501188Y-89876376D01*
X182337216Y-89808456D01*
X182189646Y-89709853D01*
X182064147Y-89584354D01*
X181965544Y-89436784D01*
X181897624Y-89272812D01*
X181863000Y-89098741D01*
X181863000Y-88921259D01*
X181897624Y-88747188D01*
X181965544Y-88583216D01*
X182064147Y-88435646D01*
X182189646Y-88310147D01*
X182337216Y-88211544D01*
X182501188Y-88143624D01*
X182650488Y-88113927D01*
X182675258Y-88109000D01*
X182852742Y-88109000D01*
X182877512Y-88113927D01*
G37*
G36*
X168110228Y-85795703D02*
G01*
X168265100Y-85859853D01*
X168404481Y-85952985D01*
X168523015Y-86071519D01*
X168616147Y-86210900D01*
X168680297Y-86365772D01*
X168713000Y-86530184D01*
X168713000Y-86697816D01*
X168680297Y-86862228D01*
X168616147Y-87017100D01*
X168523015Y-87156481D01*
X168404481Y-87275015D01*
X168265100Y-87368147D01*
X168110228Y-87432297D01*
X167945816Y-87465000D01*
X167778184Y-87465000D01*
X167613772Y-87432297D01*
X167458900Y-87368147D01*
X167319519Y-87275015D01*
X167200985Y-87156481D01*
X167107853Y-87017100D01*
X167043703Y-86862228D01*
X167011000Y-86697816D01*
X167011000Y-86530184D01*
X167043703Y-86365772D01*
X167107853Y-86210900D01*
X167200985Y-86071519D01*
X167319519Y-85952985D01*
X167458900Y-85859853D01*
X167613772Y-85795703D01*
X167778184Y-85763000D01*
X167945816Y-85763000D01*
X168110228Y-85795703D01*
G37*
G36*
X166713000Y-87465000D02*
G01*
X165011000Y-87465000D01*
X165011000Y-85763000D01*
X166713000Y-85763000D01*
X166713000Y-87465000D01*
G37*
M02*
